<svg xmlns="http://www.w3.org/2000/svg" width="68.087" height="56" viewBox="0 0 68.087 56">
  <g id="Grupo_1107981" data-name="Grupo 1107981" transform="translate(-354.756 -1438)">
    <g id="Grupo_1107958" data-name="Grupo 1107958" transform="translate(361.787 1438)">
      <path id="Trazado_888881" data-name="Trazado 888881" d="M36.347,25.5q8.239.21,9.333,8.373-1.289,9.112-10.431,7.961-7.382-2.619-5.9-10.294A8.772,8.772,0,0,1,36.347,25.5Z" transform="translate(-29.099 -25.5)" fill="#252222" fill-rule="evenodd" opacity="0.941"/>
    </g>
    <g id="Grupo_1107959" data-name="Grupo 1107959" transform="translate(380.618 1438)">
      <path id="Trazado_888882" data-name="Trazado 888882" d="M104.779,25.5q9.659.256,9.2,9.882-2.122,7.619-10.02,6.451-6.983-2.362-6.176-9.745A8.42,8.42,0,0,1,104.779,25.5Z" transform="translate(-97.696 -25.5)" fill="#242323" fill-rule="evenodd" opacity="0.939"/>
    </g>
    <g id="Grupo_1107960" data-name="Grupo 1107960" transform="translate(399.399 1438)">
      <path id="Trazado_888883" data-name="Trazado 888883" d="M173.357,25.5q8.254.226,9.333,8.373-1.282,9.1-10.431,7.961-7.369-2.588-5.9-10.294A8.772,8.772,0,0,1,173.357,25.5Z" transform="translate(-166.113 -25.5)" fill="#252322" fill-rule="evenodd" opacity="0.944"/>
    </g>
    <g id="Grupo_1107961" data-name="Grupo 1107961" transform="translate(364.149 1440.361)">
      <path id="Trazado_888884" data-name="Trazado 888884" d="M41.765,34.211q5.354-.789,7.549,4.118.695,7.952-7.275,7.549Q37.108,43.91,37.784,38.6A7.28,7.28,0,0,1,41.765,34.211Z" transform="translate(-37.703 -34.102)" fill="#f6d973" fill-rule="evenodd"/>
    </g>
    <g id="Grupo_1107962" data-name="Grupo 1107962" transform="translate(382.76 1440.402)">
      <path id="Trazado_888885" data-name="Trazado 888885" d="M109.892,34.32q5.666-.636,7.549,4.667a6.308,6.308,0,0,1-4.529,7q-6.526.477-7.412-6.039A6.629,6.629,0,0,1,109.892,34.32Z" transform="translate(-105.5 -34.252)" fill="#86c3f7" fill-rule="evenodd"/>
    </g>
    <g id="Grupo_1107963" data-name="Grupo 1107963" transform="translate(401.682 1440.443)">
      <path id="Trazado_888886" data-name="Trazado 888886" d="M178.566,34.427q7.961-.48,7.549,7.412-2.6,5.864-8.647,3.706Q172.7,42.137,175.41,36.9A8.191,8.191,0,0,1,178.566,34.427Z" transform="translate(-174.429 -34.4)" fill="#f7d973" fill-rule="evenodd"/>
    </g>
    <g id="Grupo_1107964" data-name="Grupo 1107964" transform="translate(366.589 1442.925)">
      <path id="Trazado_888887" data-name="Trazado 888887" d="M46.841,43.457a3.551,3.551,0,0,1,1.373.137A6.973,6.973,0,0,0,50,45.1a6.973,6.973,0,0,0,1.784-1.51q2.127-.618,1.51,1.51l-1.784,1.784,1.784,1.784q.48,1.99-1.51,1.51L50,48.4l-1.784,1.784q-1.853.343-1.51-1.51l1.784-1.784L46.7,45.1A2.04,2.04,0,0,1,46.841,43.457Z" transform="translate(-46.592 -43.441)" fill="#272423" fill-rule="evenodd"/>
    </g>
    <g id="Grupo_1107965" data-name="Grupo 1107965" transform="translate(404.17 1442.925)">
      <path id="Trazado_888888" data-name="Trazado 888888" d="M183.77,43.457a3.551,3.551,0,0,1,1.373.137,6.972,6.972,0,0,0,1.784,1.51,6.972,6.972,0,0,0,1.784-1.51q2.128-.618,1.51,1.51l-1.784,1.784,1.784,1.784q.343,1.853-1.51,1.51L186.927,48.4l-1.784,1.784q-2.128.618-1.51-1.51l1.784-1.784L183.633,45.1A2.039,2.039,0,0,1,183.77,43.457Z" transform="translate(-183.494 -43.441)" fill="#272423" fill-rule="evenodd"/>
    </g>
    <g id="Grupo_1107966" data-name="Grupo 1107966" transform="translate(384.428 1443.206)">
      <path id="Trazado_888889" data-name="Trazado 888889" d="M118.693,44.474q1.853-.138,1.51,1.647l-5.078,4.529a1.167,1.167,0,0,1-1.1,0l-2.333-2.333q-.47-1.382.961-1.647a12,12,0,0,0,2.2,1.235Q116.851,46.245,118.693,44.474Z" transform="translate(-111.577 -44.464)" fill="#272627" fill-rule="evenodd"/>
    </g>
    <g id="Grupo_1107967" data-name="Grupo 1107967" transform="translate(354.756 1457.456)">
      <path id="Trazado_888890" data-name="Trazado 888890" d="M35.057,96.409q13.373-.7,12.49,12.627a11.092,11.092,0,0,1-4.255,6.176,30.3,30.3,0,0,1,6.863,3.706,7.941,7.941,0,0,1,1.1-.412q-5.7-5.469-1.51-12.216,5.476-5.264,11.941-1.235,4.776,4.685,2.059,10.843a15.707,15.707,0,0,1-2.333,2.608A15.109,15.109,0,0,1,71.43,129.9a3.475,3.475,0,0,1-.412,2.882q-33.49.275-66.981,0a3.474,3.474,0,0,1-.412-2.882,15.109,15.109,0,0,1,10.02-11.392q-5.669-5.472-1.51-12.216,5.476-5.264,11.941-1.235A8.843,8.843,0,0,1,26.41,115.35a10.779,10.779,0,0,1-2.608,3.157,7.935,7.935,0,0,1,1.1.412,22.955,22.955,0,0,1,7.137-3.706q-5.87-4.01-4.529-11.118A10.4,10.4,0,0,1,35.057,96.409Z" transform="translate(-3.484 -96.374)" fill="#252323" fill-rule="evenodd" opacity="0.95"/>
    </g>
    <g id="Grupo_1107972" data-name="Grupo 1107972" transform="translate(387.152 1477.803)">
      <path id="Trazado_888895" data-name="Trazado 888895" d="M121.5,170.771a6.8,6.8,0,0,1,3.294-.137,10.83,10.83,0,0,0-1.647,1.235A4.914,4.914,0,0,0,121.5,170.771Z" transform="translate(-121.5 -170.495)" fill="#ddc6b9" fill-rule="evenodd"/>
    </g>
    <g id="Grupo_1107973" data-name="Grupo 1107973" transform="translate(383.309 1478.353)">
      <path id="Trazado_888896" data-name="Trazado 888896" d="M108.049,172.5a10.813,10.813,0,0,1,3.294,2.471,12.8,12.8,0,0,1-1.51,1.647q-1.218-1.818-2.333-3.706A.907.907,0,0,0,108.049,172.5Z" transform="translate(-107.5 -172.5)" fill="#635a63" fill-rule="evenodd"/>
    </g>
    <g id="Grupo_1107974" data-name="Grupo 1107974" transform="translate(390.447 1478.353)">
      <path id="Trazado_888897" data-name="Trazado 888897" d="M136.245,172.5a2.782,2.782,0,0,1,1.1.412q-1.115,1.888-2.333,3.706a12.8,12.8,0,0,1-1.51-1.647Q134.881,173.726,136.245,172.5Z" transform="translate(-133.5 -172.5)" fill="#635a63" fill-rule="evenodd"/>
    </g>
    <g id="Grupo_1107975" data-name="Grupo 1107975" transform="translate(372.329 1479.726)">
      <path id="Trazado_888898" data-name="Trazado 888898" d="M81.226,189.029q-6.791.411-13.726.275a16.442,16.442,0,0,1,8.647-11.8,2.3,2.3,0,0,1,1.1,1.1,44.194,44.194,0,0,1,2.2,4.118,7,7,0,0,0,1.235,1.1,8.683,8.683,0,0,0-.412,4.118A5.264,5.264,0,0,1,81.226,189.029Z" transform="translate(-67.5 -177.5)" fill="#88c7fb" fill-rule="evenodd"/>
    </g>
    <g id="Grupo_1107977" data-name="Grupo 1107977" transform="translate(391.545 1480)">
      <path id="Trazado_888900" data-name="Trazado 888900" d="M142.926,178.5a17.493,17.493,0,0,1,8.3,11.529q-6.947.135-13.726-.275a2.416,2.416,0,0,0,1.277-2.333,10.065,10.065,0,0,0-.638-2.882,7.884,7.884,0,0,0,1.436-1.1Q141.142,180.877,142.926,178.5Z" transform="translate(-137.5 -178.5)" fill="#89c7fc" fill-rule="evenodd"/>
    </g>
    <g id="Grupo_1107978" data-name="Grupo 1107978" transform="translate(357.231 1481.049)">
      <path id="Trazado_888901" data-name="Trazado 888901" d="M22.657,182.37a17.219,17.219,0,0,1,7.137.961A17.242,17.242,0,0,0,25.4,192.8H12.5A13.477,13.477,0,0,1,22.657,182.37Z" transform="translate(-12.5 -182.321)" fill="#fcde76" fill-rule="evenodd"/>
    </g>
    <g id="Grupo_1107979" data-name="Grupo 1107979" transform="translate(403.074 1481.108)">
      <path id="Trazado_888902" data-name="Trazado 888902" d="M191.3,184.722a20.367,20.367,0,0,0,2.608,3.569,20.661,20.661,0,0,1,1.784,4.667h-11.8a18.129,18.129,0,0,0-4.392-9.608A13.086,13.086,0,0,1,191.3,184.722Z" transform="translate(-179.5 -182.536)" fill="#fcdf76" fill-rule="evenodd"/>
    </g>
    <g id="Grupo_1107980" data-name="Grupo 1107980" transform="translate(387.152 1482.467)">
      <path id="Trazado_888903" data-name="Trazado 888903" d="M122.873,187.49a.784.784,0,0,1,.686.275,34.475,34.475,0,0,1,1.1,6.588,9.48,9.48,0,0,1-1.51,1.647,7.651,7.651,0,0,1-1.647-2.2Q122.056,190.6,122.873,187.49Z" transform="translate(-121.5 -187.487)" fill="#fcdf76" fill-rule="evenodd"/>
    </g>
    <circle id="Elipse_11926" data-name="Elipse 11926" cx="7.001" cy="7.001" r="7.001" transform="translate(363.078 1465.999)" fill="#f4dacb"/>
    <circle id="Elipse_11927" data-name="Elipse 11927" cx="6.5" cy="6.5" r="6.5" transform="translate(401.079 1466)" fill="#f4dacb"/>
    <circle id="Elipse_11928" data-name="Elipse 11928" cx="8.5" cy="8.5" r="8.5" transform="translate(380.079 1459)" fill="#f4dacb"/>
    <path id="Trazado_888904" data-name="Trazado 888904" d="M-8098.521-10002.561s-3.5-11.393-14.343-10.363c-4.049-.823,3.637,10.363,3.637,10.363Z" transform="translate(8519.651 11494.091)" fill="#fcdf76"/>
  </g>
</svg>
