<svg xmlns="http://www.w3.org/2000/svg" width="54.806" height="54.569" viewBox="0 0 54.806 54.569">
  <g id="recruit_2910452_-_copia_2_" data-name="recruit_2910452 - copia (2)" transform="translate(-3.5 -3.438)">
    <g id="Grupo_1107412" data-name="Grupo 1107412" transform="translate(3.5 3.438)">
      <path id="Trazado_888339" data-name="Trazado 888339" d="M4.38,3.451q11.44-.055,22.878.11a2.082,2.082,0,0,1,.55.33q.436,12.951.44,25.958a3.89,3.89,0,0,1,1.54,1.54q.22,5.83,0,11.659a22.327,22.327,0,0,1-1.43,4.07q.183.932.33,1.87a15.025,15.025,0,0,1,10.229-8.8,6.266,6.266,0,0,1-3.74-5.06q-4.363-.462-3.41-4.84a2.257,2.257,0,0,0,.33-.88,14.782,14.782,0,0,1,.11-7.479,6.746,6.746,0,0,1,3.08-2.64,6.3,6.3,0,0,1,2.97-3.19,70.6,70.6,0,0,1,7.7-.33L53,15.88a3.364,3.364,0,0,1,1.43,1.43q.22,5.17,0,10.339a3.944,3.944,0,0,0,0,2.64q.953,4.378-3.41,4.84a6.266,6.266,0,0,1-3.74,5.06q12.691,4.359,10.779,17.818H3.5v-1.76h8.8q.825-4.62,1.43-9.239a12.979,12.979,0,0,1-3.96-5.72A39.762,39.762,0,0,0,5.92,38.1a2.406,2.406,0,0,1-.66-.99,2.291,2.291,0,0,1-1.65-1.1q-.22-15.839,0-31.677A1.538,1.538,0,0,1,4.38,3.451Z" transform="translate(-3.5 -3.438)" fill="#010101" fill-rule="evenodd" opacity="0.98"/>
    </g>
    <g id="Grupo_1107413" data-name="Grupo 1107413" transform="translate(5.232 5.211)">
      <path id="Trazado_888340" data-name="Trazado 888340" d="M11.4,11.5H32.521q.055,12.429-.11,24.858-1.418-3.021-4.29-1.32a3.8,3.8,0,0,0-2.64-.66v-1.76h5.28v-1.76h-5.28V29.1h5.28v-1.76H18.442V29.1H20.2v1.76H13.162v1.76H20.2v1.76H13.162v1.76H20.2q.055,2.312-.11,4.62a1.321,1.321,0,0,1-1.65.55,5.113,5.113,0,0,0-5.719-1.1,8.56,8.56,0,0,0-1.1,1.21Q11.293,26.46,11.4,11.5Z" transform="translate(-11.375 -11.5)" fill="#e5e8ec" fill-rule="evenodd"/>
    </g>
    <g id="Grupo_1107414" data-name="Grupo 1107414" transform="translate(10.408 6.95)">
      <path id="Trazado_888341" data-name="Trazado 888341" d="M39.213,19.424q4.572-.321,4.51,4.18a9.38,9.38,0,0,1-.77,1.76,6.211,6.211,0,0,1,2.64,6.379H35.033a5.891,5.891,0,0,1,2.64-6.379Q35.328,21.541,39.213,19.424Z" transform="translate(-34.901 -19.403)" fill="#040303" fill-rule="evenodd"/>
    </g>
    <g id="Grupo_1107415" data-name="Grupo 1107415" transform="translate(14.062 8.713)">
      <path id="Trazado_888342" data-name="Trazado 888342" d="M52.611,27.438q2.692-.223,2.31,2.42a1.777,1.777,0,0,1-3.3-1.32A2.423,2.423,0,0,1,52.611,27.438Z" transform="translate(-51.515 -27.421)" fill="#e6c7ac" fill-rule="evenodd"/>
    </g>
    <g id="Grupo_1107416" data-name="Grupo 1107416" transform="translate(12.299 13.963)">
      <path id="Trazado_888343" data-name="Trazado 888343" d="M45.92,51.332q4.046-.459,4.62,3.52H43.5A3.924,3.924,0,0,1,45.92,51.332Z" transform="translate(-43.5 -51.284)" fill="#f97f6b" fill-rule="evenodd"/>
    </g>
    <g id="Grupo_1107417" data-name="Grupo 1107417" transform="translate(33.447 17.516)">
      <path id="Trazado_888344" data-name="Trazado 888344" d="M145.763,67.451q6.38-.055,12.759.11l.33.33a89.865,89.865,0,0,1-.11,10.339,11.345,11.345,0,0,1-1.54-.22,2.911,2.911,0,0,0-1.32-3.19q-4.377-.422-8.8-.44l-.33-.33a21.653,21.653,0,0,1-.11-3.08h-1.76v1.98a3.932,3.932,0,0,0-3.41,3.08,9,9,0,0,0-.11,1.98,2.637,2.637,0,0,0-1.32.22,10.038,10.038,0,0,1-.11-5.28,4,4,0,0,1,2.75-2.09A5.48,5.48,0,0,1,145.763,67.451Z" transform="translate(-139.633 -67.438)" fill="#646c77" fill-rule="evenodd"/>
    </g>
    <g id="Grupo_1107418" data-name="Grupo 1107418" transform="translate(7.02 21.05)">
      <path id="Trazado_888345" data-name="Trazado 888345" d="M19.5,83.5h3.52v1.76H19.5Z" transform="translate(-19.5 -83.5)" fill-rule="evenodd"/>
    </g>
    <g id="Grupo_1107419" data-name="Grupo 1107419" transform="translate(7.077 22.792)">
      <path id="Trazado_888346" data-name="Trazado 888346" d="M28.943,91.439a1.27,1.27,0,0,1,1.21.44q.165,6.819.11,13.639h1.76q-.055-3.3.11-6.6a.894.894,0,0,1,1.54,0q.165,3.3.11,6.6h1.76q-.055-3.3.11-6.6a.894.894,0,0,1,1.54,0q.165,3.3.11,6.6h1.76q-.055-2.422.11-4.84a.894.894,0,0,1,1.54,0q.22,5.059,0,10.119a11.354,11.354,0,0,1-1.1,3.3q-2.945.218-5.939.22a46.27,46.27,0,0,1-6.269-.33,13.071,13.071,0,0,1-3.41-5.17,48.637,48.637,0,0,0-4.07-3.52.958.958,0,0,1,.44-1.43,3.573,3.573,0,0,1,1.76,0l2.64,1.54a3.029,3.029,0,0,0,3.41-1.43q.427-6.028.44-12.1A.947.947,0,0,0,28.943,91.439Z" transform="translate(-19.762 -91.421)" fill="#eeceb2" fill-rule="evenodd"/>
    </g>
    <g id="Grupo_1107420" data-name="Grupo 1107420" transform="translate(36.937 24.778)">
      <path id="Trazado_888347" data-name="Trazado 888347" d="M156.82,100.459a1.085,1.085,0,0,1,.66.11,6.592,6.592,0,0,0,1.54,1.32l8.359.22.33.33a83.669,83.669,0,0,1,0,8.579,4.4,4.4,0,0,1-3.19,3.19,37.209,37.209,0,0,1-5.719,0,4.4,4.4,0,0,1-3.19-3.19q-.22-4.51,0-9.019A12.556,12.556,0,0,1,156.82,100.459Z" transform="translate(-155.5 -100.447)" fill="#eeceb2" fill-rule="evenodd"/>
    </g>
    <g id="Grupo_1107421" data-name="Grupo 1107421" transform="translate(38.729 28.089)">
      <path id="Trazado_888348" data-name="Trazado 888348" d="M164.055,115.5q1.976.054.88,1.65Q162.923,117.2,164.055,115.5Z" transform="translate(-163.648 -115.5)" fill="#100e0c" fill-rule="evenodd"/>
    </g>
    <g id="Grupo_1107422" data-name="Grupo 1107422" transform="translate(45.769 28.089)">
      <path id="Trazado_888349" data-name="Trazado 888349" d="M196.055,115.5q1.976.054.88,1.65Q194.923,117.2,196.055,115.5Z" transform="translate(-195.648 -115.5)" fill="#100e0c" fill-rule="evenodd"/>
    </g>
    <g id="Grupo_1107423" data-name="Grupo 1107423" transform="translate(33.439 29.849)">
      <path id="Trazado_888350" data-name="Trazado 888350" d="M140.678,123.5h.66v3.52a1.744,1.744,0,0,1-1.65-2.42A2.423,2.423,0,0,1,140.678,123.5Z" transform="translate(-139.6 -123.5)" fill="#e6c7ac" fill-rule="evenodd"/>
    </g>
    <g id="Grupo_1107424" data-name="Grupo 1107424" transform="translate(51.016 29.849)">
      <path id="Trazado_888351" data-name="Trazado 888351" d="M219.5,123.5q2.46.52,1.43,2.86a1.885,1.885,0,0,1-1.43.66Z" transform="translate(-219.5 -123.5)" fill="#e4c6ab" fill-rule="evenodd"/>
    </g>
    <g id="Grupo_1107425" data-name="Grupo 1107425" transform="translate(40.457 33.369)">
      <path id="Trazado_888352" data-name="Trazado 888352" d="M176.78,139.5h1.76a3.993,3.993,0,0,1-1.98,3.19,21.722,21.722,0,0,1-5.06.33v-1.76a39.794,39.794,0,0,0,4.18-.11A1.746,1.746,0,0,0,176.78,139.5Z" transform="translate(-171.5 -139.5)" fill="#050403" fill-rule="evenodd"/>
    </g>
    <g id="Grupo_1107426" data-name="Grupo 1107426" transform="translate(40.674 40.381)">
      <path id="Trazado_888353" data-name="Trazado 888353" d="M172.49,171.4a26.808,26.808,0,0,1,4.84.22,6.477,6.477,0,0,1-2.42,1.32,14.763,14.763,0,0,1-2.2-.99A.629.629,0,0,1,172.49,171.4Z" transform="translate(-172.487 -171.376)" fill="#e9caae" fill-rule="evenodd"/>
    </g>
    <g id="Grupo_1107427" data-name="Grupo 1107427" transform="translate(38.917 42.168)">
      <path id="Trazado_888354" data-name="Trazado 888354" d="M164.5,179.5a4.968,4.968,0,0,1,2.2.99l-1.54.99A5.007,5.007,0,0,1,164.5,179.5Z" transform="translate(-164.5 -179.5)" fill="#36a1c8" fill-rule="evenodd"/>
    </g>
    <g id="Grupo_1107428" data-name="Grupo 1107428" transform="translate(45.076 42.154)">
      <path id="Trazado_888355" data-name="Trazado 888355" d="M194.04,179.449a.681.681,0,0,1,.66.22,4.988,4.988,0,0,1-.66,1.76l-1.54-.99Q193.291,179.936,194.04,179.449Z" transform="translate(-192.5 -179.435)" fill="#37a3cb" fill-rule="evenodd"/>
    </g>
    <g id="Grupo_1107429" data-name="Grupo 1107429" transform="translate(29.807 42.828)">
      <path id="Trazado_888356" data-name="Trazado 888356" d="M130.219,182.5a.709.709,0,0,1,.44.66,15.217,15.217,0,0,0,.88,3.52q1.292-.729,2.53-1.54a3.151,3.151,0,0,1,.55,1.21q-1.34,4.756-2.42,9.569h-3.74v-5.28H126.7v5.28h-3.52Q122.286,186.814,130.219,182.5Z" transform="translate(-123.089 -182.5)" fill="#4ebfe6" fill-rule="evenodd"/>
    </g>
    <g id="Grupo_1107430" data-name="Grupo 1107430" transform="translate(44.856 42.828)">
      <path id="Trazado_888357" data-name="Trazado 888357" d="M195.46,182.5a11.4,11.4,0,0,1,7.369,9.019q.165,2.2.11,4.4h-3.52v-5.28h-1.76v5.28h-3.74q-1.08-4.813-2.42-9.569a1.924,1.924,0,0,1,.66-1.21,20.7,20.7,0,0,1,2.42,1.54A13.3,13.3,0,0,0,195.46,182.5Z" transform="translate(-191.5 -182.5)" fill="#4ebfe6" fill-rule="evenodd"/>
    </g>
    <g id="Grupo_1107431" data-name="Grupo 1107431" transform="translate(42.437 44.125)">
      <path id="Trazado_888358" data-name="Trazado 888358" d="M180.72,188.418a1.012,1.012,0,0,1,1.1.44q-.66,2.2-1.32,0Q180.62,188.632,180.72,188.418Z" transform="translate(-180.5 -188.395)" fill="#e3b124" fill-rule="evenodd"/>
    </g>
    <g id="Grupo_1107432" data-name="Grupo 1107432" transform="translate(14.279 47.447)">
      <path id="Trazado_888359" data-name="Trazado 888359" d="M53.82,203.5h11l1.32,8.8H52.5Z" transform="translate(-52.5 -203.5)" fill="#4ec0e8" fill-rule="evenodd"/>
    </g>
    <g id="Grupo_1107433" data-name="Grupo 1107433" transform="translate(40.677 47.447)">
      <path id="Trazado_888360" data-name="Trazado 888360" d="M174.7,203.5a.724.724,0,0,1,.55.66q.97,4.045,2.09,8.029a26.659,26.659,0,0,1-4.84,0Q173.649,207.857,174.7,203.5Z" transform="translate(-172.5 -203.5)" fill="#f6d26d" fill-rule="evenodd"/>
    </g>
  </g>
</svg>
