<svg xmlns="http://www.w3.org/2000/svg" width="43.904" height="43.551" viewBox="0 0 43.904 43.551">
  <g id="Grupo_1108007" data-name="Grupo 1108007" transform="translate(-1095.689 -1097.25)">
    <path id="Trazado_888338" data-name="Trazado 888338" d="M-6919.221-10457.168h27.689l.8,27.866-.8,8.758s-1.15,1.682-2.565,1.5-3.273-2.213-3.273-2.213v-3.98h-23.8v-31.936Z" transform="translate(8022.266 11559.106)" fill="#fff"/>
    <g id="Grupo_1107382" data-name="Grupo 1107382" transform="translate(1096.228 1097.25)">
      <path id="Trazado_888313" data-name="Trazado 888313" d="M44.489,40.882a.711.711,0,0,1-.635-.363q-.045-13.652-.272-27.213a.481.481,0,0,0-.544-.544q-8.48-.272-17.054-.181v4.354a2.387,2.387,0,0,1-3.084,2,26.3,26.3,0,0,1-.091,3.084,1.07,1.07,0,0,1-1,.091q-1.674-1.447-3.266-2.993a13.493,13.493,0,0,0-4.354,0,26.3,26.3,0,0,1-3.084-.091,2.8,2.8,0,0,1-1.361-1,56.414,56.414,0,0,1-.181-8.89,2.241,2.241,0,0,1,1.724-1.542q6.531-.181,13.062,0A1.953,1.953,0,0,1,25.893,8.77a7.409,7.409,0,0,1,.272,2.54q8.8-.045,17.6.091a2.463,2.463,0,0,1,1.361,1.724q.182,13.7,0,27.395A.711.711,0,0,1,44.489,40.882Z" transform="translate(-9.469 -7.5)" fill="#010000" fill-rule="evenodd" opacity="0.941"/>
    </g>
    <path id="Trazado_888321" data-name="Trazado 888321" d="M100.359,66.477q-5.081.045-10.16-.091a5.134,5.134,0,0,1,2.177-5.171.81.81,0,0,0,.726-.454,6.117,6.117,0,0,1-.726-2.086,3.152,3.152,0,0,1,3.81-2.812q3.4,1.642,1.451,4.9a6.251,6.251,0,0,1,3.266,4.717A.85.85,0,0,1,100.359,66.477Z" transform="translate(1020.729 1050.186)" fill="#070708" fill-rule="evenodd"/>
    <g id="Grupo_1107392" data-name="Grupo 1107392" transform="translate(1114.571 1107.382)">
      <path id="Trazado_888323" data-name="Trazado 888323" d="M111.469,63.372q2.314-.268,2.268,2a1.675,1.675,0,1,1-2.268-2Z" transform="translate(-110.576 -63.343)" fill="#78b0e2" fill-rule="evenodd"/>
    </g>
    <g id="Grupo_1107393" data-name="Grupo 1107393" transform="translate(1133.425 1108.487)">
      <path id="Trazado_888324" data-name="Trazado 888324" d="M215.951,69.449a32.829,32.829,0,0,1,3.447.091,1.483,1.483,0,0,1,1.179,1.179q.182,12.246,0,24.492-1.142,2.973-2.177,5.987a.843.843,0,0,1-1.451.181l-2.359-6.531q-.182-11.974,0-23.948A2.321,2.321,0,0,1,215.951,69.449Z" transform="translate(-214.5 -69.438)" fill="#030101" fill-rule="evenodd" opacity="0.925"/>
    </g>
    <g id="Grupo_1107394" data-name="Grupo 1107394" transform="translate(1095.689 1110.131)">
      <path id="Trazado_888325" data-name="Trazado 888325" d="M11.761,78.5a3.556,3.556,0,0,0,.635.363q.136,11.338.091,22.678,11.884-.045,23.766.091l.272.272q.091,2,.181,3.991,1.848,3.272,4.354.544a40.538,40.538,0,0,0,.363-5.08.737.737,0,0,1,1.27,0,30.69,30.69,0,0,1,0,4.717,3.725,3.725,0,0,1-3.175,2.993q-15.342.268-30.661-.181a3.323,3.323,0,0,1-2.268-2.449,28.393,28.393,0,0,1,0-4.536l.272-.272q2.175-.136,4.354-.091-.045-11.339.091-22.678A1.281,1.281,0,0,1,11.761,78.5Z" transform="translate(-6.5 -78.5)" fill="#040404" fill-rule="evenodd" opacity="0.951"/>
    </g>
    <g id="Grupo_1107396" data-name="Grupo 1107396" transform="translate(1112.017 1111.906)">
      <path id="Trazado_888327" data-name="Trazado 888327" d="M99.584,88.324q4.03-.408,5.08,3.447-4.086.091-8.164-.181A5.175,5.175,0,0,1,99.584,88.324Z" transform="translate(-96.5 -88.285)" fill="#79b1e3" fill-rule="evenodd"/>
    </g>
    <g id="Grupo_1107395" data-name="Grupo 1107395" transform="translate(1134.876 1109.947)">
      <path id="Trazado_888326" data-name="Trazado 888326" d="M226.764,80.565H223.5v-2.88a8.359,8.359,0,0,1,3.072-.1A12.059,12.059,0,0,1,226.764,80.565Z" transform="translate(-223.5 -77.491)" fill="#88b753" fill-rule="evenodd"/>
    </g>
    <g id="Grupo_1107398" data-name="Grupo 1107398" transform="translate(1134.876 1114.304)">
      <path id="Trazado_888329" data-name="Trazado 888329" d="M223.226,101.5q-.045,6.985.091,13.97a3.021,3.021,0,0,0,2.449,2.177v2.54H222.5V101.5Z" transform="translate(-222.5 -101.5)" fill="#e5474e" fill-rule="evenodd"/>
    </g>
    <g id="Grupo_1107399" data-name="Grupo 1107399" transform="translate(1135.505 1114.304)">
      <path id="Trazado_888330" data-name="Trazado 888330" d="M226.449,101.5h2.626v16.691a3.123,3.123,0,0,1-2.532-2.25Q226.4,108.721,226.449,101.5Z" transform="translate(-226.437 -101.5)" fill="#e5474e" fill-rule="evenodd"/>
    </g>
    <g id="Grupo_1107400" data-name="Grupo 1107400" transform="translate(1109.137 1119.19)">
      <path id="Trazado_888331" data-name="Trazado 888331" d="M94.211,128.449a.586.586,0,0,1,.363.635q.06.619-.544.635-6.532.045-13.062-.091a.747.747,0,0,1-.181-1.089Q87.5,128.4,94.211,128.449Z" transform="translate(-80.627 -128.437)" fill="#010101" fill-rule="evenodd"/>
    </g>
    <g id="Grupo_1107401" data-name="Grupo 1107401" transform="translate(1105.305 1122.638)">
      <path id="Trazado_888332" data-name="Trazado 888332" d="M80.727,147.449q1.089.635,0,1.27-10.523.045-21.045-.091a.907.907,0,0,1,0-1.089Q70.2,147.4,80.727,147.449Z" transform="translate(-59.5 -147.437)" fill="#010101" fill-rule="evenodd"/>
    </g>
    <g id="Grupo_1107402" data-name="Grupo 1107402" transform="translate(1105.311 1126.085)">
      <path id="Trazado_888333" data-name="Trazado 888333" d="M59.892,166.449q10.523-.045,21.045.091.733.716-.181,1.27-10.432.182-20.864,0A.827.827,0,0,1,59.892,166.449Z" transform="translate(-59.535 -166.437)" fill="#121212" fill-rule="evenodd"/>
    </g>
    <g id="Grupo_1107403" data-name="Grupo 1107403" transform="translate(1105.315 1129.532)">
      <path id="Trazado_888334" data-name="Trazado 888334" d="M59.912,185.449q10.523-.045,21.045.091.781.773-.181,1.27-10.432.182-20.864,0A.834.834,0,0,1,59.912,185.449Z" transform="translate(-59.561 -185.437)" fill="#121212" fill-rule="evenodd"/>
    </g>
    <g id="Grupo_1107404" data-name="Grupo 1107404" transform="translate(1135.239 1134.445)">
      <path id="Trazado_888335" data-name="Trazado 888335" d="M224.5,212.695a4.606,4.606,0,0,1,2.54,0l-1.179,3.084Q225.15,214.23,224.5,212.695Z" transform="translate(-224.5 -212.516)" fill="#f7a602" fill-rule="evenodd"/>
    </g>
    <g id="Grupo_1107405" data-name="Grupo 1107405" transform="translate(1097.118 1134.623)">
      <path id="Trazado_888336" data-name="Trazado 888336" d="M17.485,213.5a3.334,3.334,0,0,0,2,3.356q11.157.136,22.315.091a4.088,4.088,0,0,0,.726,1.179q-13.244.182-26.488,0a2.8,2.8,0,0,1-1.361-1A13.855,13.855,0,0,1,14.4,213.5Z" transform="translate(-14.378 -213.5)" fill="#fff" fill-rule="evenodd"/>
    </g>
    <g id="Grupo_1107406" data-name="Grupo 1107406" transform="translate(1097.426 1134.623)">
      <path id="Trazado_888337" data-name="Trazado 888337" d="M31.487,213.5h26.9a25.06,25.06,0,0,0,.2,3.843q-12.441.051-24.881-.1A3.717,3.717,0,0,1,31.487,213.5Z" transform="translate(-31.484 -213.5)" fill="#fff" fill-rule="evenodd"/>
    </g>
    <g id="Grupo_1108006" data-name="Grupo 1108006" transform="translate(-20)">
      <path id="Trazado_888314" data-name="Trazado 888314" d="M17.877,16.5h2.452a8.117,8.117,0,0,0,1.509,3.873.939.939,0,0,0-.283,1.162,3.129,3.129,0,0,0,2.547,1.84,5.988,5.988,0,0,1,.943-.871,63.386,63.386,0,0,0,6.791.194,9.293,9.293,0,0,1-.189,2.518.842.842,0,0,1-.377.29l-2.264.194-.283.29-.189,2.13L25.8,25.7l-7.923-.194-.283-.29q-.189-4.261,0-8.521A.425.425,0,0,1,17.877,16.5Z" transform="translate(1099.885 1081.844)" fill="#fca904" fill-rule="evenodd"/>
      <path id="Trazado_888929" data-name="Trazado 888929" d="M-7555.125-10508.922h11.75s.516-.085.938.8.328,5.778.094,7.095-12.781.086-12.781.086Z" transform="translate(8674.051 11607.268)" fill="#fca904"/>
    </g>
    <g id="Grupo_1107386" data-name="Grupo 1107386" transform="translate(1101.202 1099.977)">
      <path id="Trazado_888317" data-name="Trazado 888317" d="M41.979,30.687a5.7,5.7,0,0,0-.907.816,3.006,3.006,0,0,1-2.449-1.724.865.865,0,0,1,.272-1.089.9.9,0,0,1,.544.091,11.66,11.66,0,0,0,1.27,1.179q1.583-1.447,3.084-2.993,1.085-.092.816,1Q43.239,29.29,41.979,30.687Z" transform="translate(-38.539 -26.96)" fill="#0c0702" fill-rule="evenodd"/>
    </g>
  </g>
</svg>
