<svg xmlns="http://www.w3.org/2000/svg" width="66.445" height="66.438" viewBox="0 0 66.445 66.438">
  <g id="interview_8912869_-_copia" data-name="interview_8912869 - copia" transform="translate(-0.342 -0.306)">
    <g id="Grupo_1107627" data-name="Grupo 1107627" transform="translate(0.342 0.306)">
      <path id="Trazado_888554" data-name="Trazado 888554" d="M14.236.357q11.3-.785,10.977,10.585a5.853,5.853,0,0,1-1.045,4.182q-1.028.368-2.091.653a8.461,8.461,0,0,1-4.182,6.665,2.563,2.563,0,0,1,2.091,1.568A47.542,47.542,0,0,1,26.52,26.1,7.744,7.744,0,0,1,29,29.369q.2,5.1.131,10.193H.383A81.147,81.147,0,0,1,.775,28.584,6.593,6.593,0,0,1,3,26.1,47.542,47.542,0,0,1,9.531,24.01a2.563,2.563,0,0,1,2.091-1.568A7.507,7.507,0,0,1,7.7,15.516,2.556,2.556,0,0,1,4.7,14.209a80.105,80.105,0,0,1,0-9.148,5.148,5.148,0,0,1,5.881-3.006A11.611,11.611,0,0,1,14.236.357Z" transform="translate(-0.342 -0.306)" fill="#040303" fill-rule="evenodd" opacity="0.96"/>
    </g>
    <g id="Grupo_1107628" data-name="Grupo 1107628" transform="translate(26.504 0.34)">
      <path id="Trazado_888555" data-name="Trazado 888555" d="M106.99.454q8.887-.065,17.773.131a3.523,3.523,0,0,1,2.222,2.222q.262,8.364,0,16.728a3.523,3.523,0,0,1-2.222,2.222q-12.153.2-24.307.131a4.823,4.823,0,0,1,.131-1.568l3.921-3.921q.131-6.8.261-13.591A4.215,4.215,0,0,1,106.99.454Z" transform="translate(-100.44 -0.438)" fill="#010100" fill-rule="evenodd" opacity="0.968"/>
    </g>
    <g id="Grupo_1107629" data-name="Grupo 1107629" transform="translate(11.436 1.921)">
      <path id="Trazado_888556" data-name="Trazado 888556" d="M46.112,6.489q9.09-.189,8.625,8.887a3.428,3.428,0,0,1-1.83-.261,2.383,2.383,0,0,0-2.091-1.7l-4.966-.261a4.4,4.4,0,0,1-3.006-5.1A18.617,18.617,0,0,1,46.112,6.489Z" transform="translate(-42.79 -6.485)" fill="#d27a46" fill-rule="evenodd"/>
    </g>
    <g id="Grupo_1107631" data-name="Grupo 1107631" transform="translate(29.15 1.921)">
      <path id="Trazado_888558" data-name="Trazado 888558" d="M136.96,12.324q.069,7.852-.137,15.7a2.2,2.2,0,0,1-.959,1.57q-10.656.631-21.365.428,1.628-1.912,3.424-3.711.137-6.709.274-13.418a1.991,1.991,0,0,1,.685-1,124.544,124.544,0,0,1,16.708-.285A5.169,5.169,0,0,0,136.96,12.324Z" transform="translate(-114.5 -11.454)" fill="#fde863" fill-rule="evenodd"/>
    </g>
    <g id="Grupo_1107632" data-name="Grupo 1107632" transform="translate(38.142 4.456)">
      <path id="Trazado_888559" data-name="Trazado 888559" d="M147.72,12.5q6.212.148,4.313,6.011a3.4,3.4,0,0,1-2.483,1.568,18.916,18.916,0,0,1-.131,3.136,1.087,1.087,0,0,1-1.176.131,12.275,12.275,0,0,1-.131-4.313q4.524-.873,1.96-4.574-3.487-1.1-3.921,2.614a1.087,1.087,0,0,1-1.176-.131A4.232,4.232,0,0,1,147.72,12.5Z" transform="translate(-144.967 -12.5)" fill="#0c0a04" fill-rule="evenodd"/>
    </g>
    <g id="Grupo_1107633" data-name="Grupo 1107633" transform="translate(6.117 3.754)">
      <path id="Trazado_888560" data-name="Trazado 888560" d="M24.545,13.5h1.568q.228,1.717.392,3.4a6.92,6.92,0,0,0-2.483,3.4,2.578,2.578,0,0,1-1.568.261,47.3,47.3,0,0,1,.131-4.966A3.343,3.343,0,0,1,24.545,13.5Z" transform="translate(-22.438 -13.5)" fill="#da8853" fill-rule="evenodd"/>
    </g>
    <g id="Grupo_1107634" data-name="Grupo 1107634" transform="translate(9.27 8.459)">
      <path id="Trazado_888561" data-name="Trazado 888561" d="M36.33,31.5a26.762,26.762,0,0,0,3.136,1.7l5.227.261a1.164,1.164,0,0,1,.523.392,26,26,0,0,1,.131,6.273q-2.537,6.03-8.494,3.267a5.366,5.366,0,0,1-2.222-3.267,40.9,40.9,0,0,1,0-6.534A4.07,4.07,0,0,1,36.33,31.5Z" transform="translate(-34.5 -31.5)" fill="#f5c7b2" fill-rule="evenodd"/>
    </g>
    <g id="Grupo_1107635" data-name="Grupo 1107635" transform="translate(11.112 11.84)">
      <path id="Trazado_888562" data-name="Trazado 888562" d="M41.8,44.454a1.694,1.694,0,0,1,1.176.261,3.425,3.425,0,0,1-.131,2.222,1.087,1.087,0,0,1-1.176-.131A3.994,3.994,0,0,1,41.8,44.454Z" transform="translate(-41.55 -44.437)" fill="#13100f" fill-rule="evenodd"/>
    </g>
    <g id="Grupo_1107636" data-name="Grupo 1107636" transform="translate(16.865 11.84)">
      <path id="Trazado_888563" data-name="Trazado 888563" d="M63.806,44.454a1.694,1.694,0,0,1,1.176.261,3.267,3.267,0,0,1,0,1.83q-.653,1.045-1.307,0A3.223,3.223,0,0,1,63.806,44.454Z" transform="translate(-63.56 -44.437)" fill="#0d0a09" fill-rule="evenodd"/>
    </g>
    <g id="Grupo_1107637" data-name="Grupo 1107637" transform="translate(6.166 12.38)">
      <path id="Trazado_888564" data-name="Trazado 888564" d="M22.855,46.5h1.307v1.568Q22.034,48.427,22.855,46.5Z" transform="translate(-22.626 -46.5)" fill="#e9b69e" fill-rule="evenodd"/>
    </g>
    <g id="Grupo_1107638" data-name="Grupo 1107638" transform="translate(21.815 12.309)">
      <path id="Trazado_888565" data-name="Trazado 888565" d="M82.5,46.3q2.026-.4,1.307,1.438a3.381,3.381,0,0,1-1.307.131Z" transform="translate(-82.5 -46.232)" fill="#e7b59c" fill-rule="evenodd"/>
    </g>
    <g id="Grupo_1107639" data-name="Grupo 1107639" transform="translate(40.934 17.263)">
      <path id="Trazado_888566" data-name="Trazado 888566" d="M156.132,61.5q2.348.064,1.045,1.96Q154.787,63.518,156.132,61.5Z" transform="translate(-155.648 -61.5)" fill="#110f07" fill-rule="evenodd"/>
    </g>
    <g id="Grupo_1107640" data-name="Grupo 1107640" transform="translate(12.71 17.604)">
      <path id="Trazado_888567" data-name="Trazado 888567" d="M47.882,66.492a2.925,2.925,0,0,1,1.83.523l1.307-.523q1.507.7,0,1.7a2.416,2.416,0,0,1-3.267-.653A1.015,1.015,0,0,1,47.882,66.492Z" transform="translate(-47.663 -66.49)" fill="#0e0b0a" fill-rule="evenodd"/>
    </g>
    <g id="Grupo_1107641" data-name="Grupo 1107641" transform="translate(13.45 22.834)">
      <path id="Trazado_888568" data-name="Trazado 888568" d="M50.5,86.5H53.11A2.4,2.4,0,0,1,51.8,88.852,2.4,2.4,0,0,1,50.5,86.5Z" transform="translate(-50.495 -86.5)" fill="#eab79e" fill-rule="evenodd"/>
    </g>
    <g id="Grupo_1107642" data-name="Grupo 1107642" transform="translate(10.838 24.141)">
      <path id="Trazado_888569" data-name="Trazado 888569" d="M41.284,91.5a6.734,6.734,0,0,1,1.568,2.091q-1.915,1.778-2.352-.915A5.473,5.473,0,0,1,41.284,91.5Z" transform="translate(-40.5 -91.5)" fill="#e1e8ea" fill-rule="evenodd"/>
    </g>
    <g id="Grupo_1107643" data-name="Grupo 1107643" transform="translate(16.326 24.141)">
      <path id="Trazado_888570" data-name="Trazado 888570" d="M62.545,91.5q2.2.78.653,2.614a1.208,1.208,0,0,1-1.7-.523A5.9,5.9,0,0,0,62.545,91.5Z" transform="translate(-61.5 -91.5)" fill="#e3eaec" fill-rule="evenodd"/>
    </g>
    <g id="Grupo_1107644" data-name="Grupo 1107644" transform="translate(16.588 25.971)">
      <path id="Trazado_888571" data-name="Trazado 888571" d="M65.9,98.5a46.367,46.367,0,0,1,4.7,1.176,4.706,4.706,0,0,1,2.744,3.006q.2,3.918.131,7.841H70.864a47.3,47.3,0,0,0-.131-4.966.948.948,0,0,0-1.307,0,47.3,47.3,0,0,0-.131,4.966H63.807a52.19,52.19,0,0,0-1.307-8.364q.181-1.169,1.176-.523A5.88,5.88,0,0,0,65.9,98.5Z" transform="translate(-62.5 -98.5)" fill="#e4f3f8" fill-rule="evenodd"/>
    </g>
    <g id="Grupo_1107645" data-name="Grupo 1107645" transform="translate(1.935 25.945)">
      <path id="Trazado_888572" data-name="Trazado 888572" d="M12.727,98.427a1.859,1.859,0,0,1,1.307.261,26.84,26.84,0,0,0,1.568,2.744,3.827,3.827,0,0,1,1.7.131q-.712,4.407-1.176,8.887H10.636a47.3,47.3,0,0,0-.131-4.966.948.948,0,0,0-1.307,0,47.3,47.3,0,0,0-.131,4.966H6.454q-.065-4.053.131-8.1A6.306,6.306,0,0,1,9.068,99.6,30.075,30.075,0,0,0,12.727,98.427Z" transform="translate(-6.438 -98.401)" fill="#e6f4f8" fill-rule="evenodd"/>
    </g>
    <g id="Grupo_1107646" data-name="Grupo 1107646" transform="translate(14.056 27.278)">
      <path id="Trazado_888573" data-name="Trazado 888573" d="M53.255,103.5q1.28.089.784,1.176Q52.08,104.985,53.255,103.5Z" transform="translate(-52.815 -103.5)" fill="#e6513e" fill-rule="evenodd"/>
    </g>
    <g id="Grupo_1107647" data-name="Grupo 1107647" transform="translate(37.979 27.36)">
      <path id="Trazado_888574" data-name="Trazado 888574" d="M158.5,103.995q6.549-1.113,9.54,4.7a89.088,89.088,0,0,1,1.568,15.943,18.086,18.086,0,0,1-1.176,1.7,15.736,15.736,0,0,1-4.443,1.307,29.513,29.513,0,0,1,7.318,2.614,8.893,8.893,0,0,1,1.7,2.744q.2,5.1.131,10.193h-28.75a81.166,81.166,0,0,1,.392-10.977A6.593,6.593,0,0,1,147,129.74a47.551,47.551,0,0,1,6.534-2.091,15.736,15.736,0,0,1-4.443-1.307,18.086,18.086,0,0,1-1.176-1.7,111.329,111.329,0,0,1,1.045-13.853q1.273-5.189,6.665-5.1A12.169,12.169,0,0,1,158.5,103.995Z" transform="translate(-144.342 -103.816)" fill="#040404" fill-rule="evenodd" opacity="0.96"/>
    </g>
    <g id="Grupo_1107648" data-name="Grupo 1107648" transform="translate(43.117 29.129)">
      <path id="Trazado_888575" data-name="Trazado 888575" d="M179.029,111.868a7.271,7.271,0,0,0-6.534,1.96q-6.346.008-6.273,6.4-.065,2.747.131,5.489a7.869,7.869,0,0,0,3.267,4.835,10.759,10.759,0,0,1-4.443-.261A4.663,4.663,0,0,1,164,128.857q.322-6.278,1.045-12.546,1.08-4.368,5.619-3.79A6.3,6.3,0,0,1,179.029,111.868Z" transform="translate(-164 -110.582)" fill="#687c8e" fill-rule="evenodd"/>
    </g>
    <g id="Grupo_1107649" data-name="Grupo 1107649" transform="translate(13.19 30.153)">
      <path id="Trazado_888576" data-name="Trazado 888576" d="M50.545,114.5h1.045q.693,3.9,1.045,7.841H49.5Q49.852,118.4,50.545,114.5Z" transform="translate(-49.5 -114.5)" fill="#e9665b" fill-rule="evenodd"/>
    </g>
    <g id="Grupo_1107650" data-name="Grupo 1107650" transform="translate(44.855 30.152)">
      <path id="Trazado_888577" data-name="Trazado 888577" d="M185.683,115.119a7.143,7.143,0,0,1,2.556,4.473q.782,6.3,1.076,12.629a3.054,3.054,0,0,1-3.094,1.71,6.942,6.942,0,0,1-2.691,0,7.918,7.918,0,0,0,3.364-4.868,40.243,40.243,0,0,0,0-6.578,3.242,3.242,0,0,0-2.018-1.71,9.56,9.56,0,0,1-8.342-2.5,9.852,9.852,0,0,0-4.036,5.262q-.075-6.438,6.458-6.446A7.6,7.6,0,0,1,185.683,115.119Z" transform="translate(-172.497 -114.982)" fill="#687c8e" fill-rule="evenodd"/>
    </g>
    <g id="Grupo_1107651" data-name="Grupo 1107651" transform="translate(46.909 35.641)">
      <path id="Trazado_888578" data-name="Trazado 888578" d="M180.6,135.5a35.177,35.177,0,0,0,3.659,1.7l4.443.261a1.2,1.2,0,0,1,.653.653,34.608,34.608,0,0,1,0,6.011q-2.537,6.03-8.494,3.267a6.782,6.782,0,0,1-1.96-2.483,18.864,18.864,0,0,1-.261-6.011A8.287,8.287,0,0,1,180.6,135.5Z" transform="translate(-178.51 -135.5)" fill="#f5c7b1" fill-rule="evenodd"/>
    </g>
    <g id="Grupo_1107652" data-name="Grupo 1107652" transform="translate(48.749 39.023)">
      <path id="Trazado_888579" data-name="Trazado 888579" d="M185.8,148.454a1.693,1.693,0,0,1,1.176.261,3.426,3.426,0,0,1-.131,2.222,1.087,1.087,0,0,1-1.176-.131A3.994,3.994,0,0,1,185.8,148.454Z" transform="translate(-185.55 -148.437)" fill="#13100f" fill-rule="evenodd"/>
    </g>
    <g id="Grupo_1107653" data-name="Grupo 1107653" transform="translate(54.499 39.03)">
      <path id="Trazado_888580" data-name="Trazado 888580" d="M207.8,148.474a1.2,1.2,0,0,1,1.176.523,2.71,2.71,0,0,1-.131,1.96,1.087,1.087,0,0,1-1.176-.131A3.994,3.994,0,0,1,207.8,148.474Z" transform="translate(-207.55 -148.464)" fill="#110e0d" fill-rule="evenodd"/>
    </g>
    <g id="Grupo_1107654" data-name="Grupo 1107654" transform="translate(10.838 44.266)">
      <path id="Trazado_888581" data-name="Trazado 888581" d="M42.852,168.5H67.16a4.823,4.823,0,0,1-.131,1.568l-3.921,3.921q-.131,6.273-.261,12.546a3.523,3.523,0,0,1-2.222,2.222q-8.887.261-17.773,0a3.523,3.523,0,0,1-2.222-2.222q-.261-7.841,0-15.682A4.216,4.216,0,0,1,42.852,168.5Z" transform="translate(-40.5 -168.5)" fill="#010100" fill-rule="evenodd" opacity="0.967"/>
    </g>
    <g id="Grupo_1107655" data-name="Grupo 1107655" transform="translate(50.336 44.786)">
      <path id="Trazado_888582" data-name="Trazado 888582" d="M191.849,170.492a2.925,2.925,0,0,1,1.83.523l1.307-.523q1.507.7,0,1.7a2.776,2.776,0,0,1-3.267-.392A1.434,1.434,0,0,1,191.849,170.492Z" transform="translate(-191.619 -170.49)" fill="#110e0c" fill-rule="evenodd"/>
    </g>
    <g id="Grupo_1107657" data-name="Grupo 1107657" transform="translate(12.146 45.817)">
      <path id="Trazado_888584" data-name="Trazado 888584" d="M72.67,179.373a13.005,13.005,0,0,1-1.552,1.694q-.141,6.774-.282,13.549a2.167,2.167,0,0,1-.988,1.552,83.183,83.183,0,0,1-9.456.423q-4.377,0-8.609-.282a.685.685,0,0,0,.565-.141,1.989,1.989,0,0,1-.706-1.27q-.282-7.057,0-14.113a1.969,1.969,0,0,1,.706-.988Q62.47,179.17,72.67,179.373Z" transform="translate(-51.5 -179.324)" fill="#9fe475" fill-rule="evenodd"/>
    </g>
    <g id="Grupo_1107658" data-name="Grupo 1107658" transform="translate(15.035 49.477)">
      <path id="Trazado_888585" data-name="Trazado 888585" d="M56.806,188.454q6.8-.066,13.591.131a.948.948,0,0,1,0,1.307q-6.8.261-13.591,0A1.175,1.175,0,0,1,56.806,188.454Z" transform="translate(-56.561 -188.437)" fill="#020301" fill-rule="evenodd"/>
    </g>
    <g id="Grupo_1107659" data-name="Grupo 1107659" transform="translate(51.087 50.017)">
      <path id="Trazado_888586" data-name="Trazado 888586" d="M194.5,190.5h2.614a2.4,2.4,0,0,1-1.307,2.352A2.4,2.4,0,0,1,194.5,190.5Z" transform="translate(-194.495 -190.5)" fill="#eab79e" fill-rule="evenodd"/>
    </g>
    <g id="Grupo_1107660" data-name="Grupo 1107660" transform="translate(48.475 51.323)">
      <path id="Trazado_888587" data-name="Trazado 888587" d="M185.284,195.5a6.732,6.732,0,0,1,1.568,2.091q-1.915,1.778-2.352-.915A5.485,5.485,0,0,1,185.284,195.5Z" transform="translate(-184.5 -195.5)" fill="#aee5ea" fill-rule="evenodd"/>
    </g>
    <g id="Grupo_1107661" data-name="Grupo 1107661" transform="translate(53.964 51.323)">
      <path id="Trazado_888588" data-name="Trazado 888588" d="M206.546,195.5q2.531,1.271.131,2.875a5.215,5.215,0,0,1-1.176-.784A5.9,5.9,0,0,0,206.546,195.5Z" transform="translate(-205.5 -195.5)" fill="#ade3e8" fill-rule="evenodd"/>
    </g>
    <g id="Grupo_1107662" data-name="Grupo 1107662" transform="translate(39.572 53.251)">
      <path id="Trazado_888589" data-name="Trazado 888589" d="M158.3,203.822a13.332,13.332,0,0,0-6.142,2.875,44.036,44.036,0,0,0-.392,8.1h-1.307q-.065-4.053.131-8.1a6.408,6.408,0,0,1,5.1-3.528,3.213,3.213,0,0,1,2.352-.131A1.457,1.457,0,0,1,158.3,203.822Z" transform="translate(-150.438 -202.875)" fill="#a4f8fd" fill-rule="evenodd"/>
    </g>
    <g id="Grupo_1107663" data-name="Grupo 1107663" transform="translate(54.225 53.153)">
      <path id="Trazado_888590" data-name="Trazado 888590" d="M209.9,202.5a46.34,46.34,0,0,1,4.7,1.176,4.706,4.706,0,0,1,2.744,3.006q.2,3.918.131,7.841h-2.614a47.279,47.279,0,0,0-.131-4.966.948.948,0,0,0-1.307,0,47.275,47.275,0,0,0-.131,4.966h-5.489a52.2,52.2,0,0,0-1.307-8.364q.181-1.169,1.176-.523A5.88,5.88,0,0,0,209.9,202.5Z" transform="translate(-206.5 -202.5)" fill="#a3f8fd" fill-rule="evenodd"/>
    </g>
    <g id="Grupo_1107664" data-name="Grupo 1107664" transform="translate(15.035 53.659)">
      <path id="Trazado_888591" data-name="Trazado 888591" d="M56.806,204.454q6.8-.066,13.591.131a.948.948,0,0,1,0,1.307q-6.8.261-13.591,0A1.175,1.175,0,0,1,56.806,204.454Z" transform="translate(-56.561 -204.437)" fill="#020301" fill-rule="evenodd"/>
    </g>
    <g id="Grupo_1107665" data-name="Grupo 1107665" transform="translate(40.397 54.121)">
      <path id="Trazado_888592" data-name="Trazado 888592" d="M162.225,206.5a7.62,7.62,0,0,1,1.368,1.974h1.642a1.271,1.271,0,0,1,.274.658,50.714,50.714,0,0,0-1.368,8.423h-5.747a45.8,45.8,0,0,0-.137-5,1.021,1.021,0,0,0-1.368,0,45.8,45.8,0,0,0-.137,5h-1.368a42.667,42.667,0,0,1,.41-8.159A14.208,14.208,0,0,1,162.225,206.5Z" transform="translate(-155.34 -206.5)" fill="#a4f8fd" fill-rule="evenodd"/>
    </g>
    <g id="Grupo_1107666" data-name="Grupo 1107666" transform="translate(51.693 54.46)">
      <path id="Trazado_888593" data-name="Trazado 888593" d="M197.255,207.5q1.28.089.784,1.176Q196.08,208.985,197.255,207.5Z" transform="translate(-196.815 -207.5)" fill="#e6513e" fill-rule="evenodd"/>
    </g>
    <g id="Grupo_1107667" data-name="Grupo 1107667" transform="translate(50.827 57.335)">
      <path id="Trazado_888594" data-name="Trazado 888594" d="M194.545,218.5h1.045q.693,3.9,1.045,7.841H193.5Q193.852,222.4,194.545,218.5Z" transform="translate(-193.5 -218.5)" fill="#e9665b" fill-rule="evenodd"/>
    </g>
    <g id="Grupo_1107668" data-name="Grupo 1107668" transform="translate(15.035 57.841)">
      <path id="Trazado_888595" data-name="Trazado 888595" d="M56.806,220.454q6.8-.066,13.591.131a.948.948,0,0,1,0,1.307q-6.8.261-13.591,0A1.175,1.175,0,0,1,56.806,220.454Z" transform="translate(-56.561 -220.437)" fill="#020301" fill-rule="evenodd"/>
    </g>
  </g>
</svg>
