<svg xmlns="http://www.w3.org/2000/svg" width="66" height="66.792" viewBox="0 0 66 66.792">
  <g id="Grupo_1108008" data-name="Grupo 1108008" transform="translate(-1082.051 -2973)">
    <g id="Grupo_1107510" data-name="Grupo 1107510" transform="translate(1082.051 2973)">
      <path id="Trazado_888437" data-name="Trazado 888437" d="M18.32-.5h5.672a27.252,27.252,0,0,1,3.867,1.565A23.01,23.01,0,0,1,30.7-.5H34.3q7.243,3.34,3.738,10.7a13.22,13.22,0,0,1-2.32,2.087,47.757,47.757,0,0,1-.387,4.827,4.815,4.815,0,0,1,.645,6.653,6.045,6.045,0,0,1-3.223,1.565,11.836,11.836,0,0,1-5.543,8.349,7.237,7.237,0,0,0,.258,3.653,2.978,2.978,0,0,0,1.16.913l8.766.261a7.857,7.857,0,0,1,5.8,5.088,51.237,51.237,0,0,1,.516,6.523L46.551,44.9a8.144,8.144,0,0,1,6.059-7.436,107.852,107.852,0,0,1,12.891.13v2.87a8.882,8.882,0,0,1-8.25,6.262q-5.159,9.661-10.7,19.046a7.086,7.086,0,0,1-1.16-.522q-.248-.384-.516-.783l9.8-18a24.6,24.6,0,0,0-6.187-.13L43.07,55.986a1.455,1.455,0,0,1-1.676-.391q-.129-5.479-.258-10.958a6.36,6.36,0,0,0-2.965-3.392,10.388,10.388,0,0,0-5.414-.261q-5.188,7.76-10.184,15.654a1.219,1.219,0,0,1-1.8.522q-5.06-8.022-9.926-16.176a17.13,17.13,0,0,0-5.156-.13,5.521,5.521,0,0,0-3.738,3.522Q1.756,55.333,1.82,66.292H-.5V44.115a8.124,8.124,0,0,1,5.93-5.609l8.766-.261a1.668,1.668,0,0,0,1.418-1.174,7.349,7.349,0,0,0,.258-3.392,11.9,11.9,0,0,1-5.156-7.044q-6.926-1.748-3.738-8.219Q4.652,7.327,13.937,1.2A22.762,22.762,0,0,1,18.32-.5Z" transform="translate(0.5 0.5)" fill="#040402" fill-rule="evenodd" opacity="0.959"/>
    </g>
    <g id="Grupo_1107511" data-name="Grupo 1107511" transform="translate(1091.577 2975.228)">
      <path id="Trazado_888438" data-name="Trazado 888438" d="M46,8.233q11.134-1.039,14.566,9.539a41.921,41.921,0,0,1,.129,4.641h-.773a10.507,10.507,0,0,0-1.418-6.445,1.023,1.023,0,0,0-.9-.516q-2.753,2.088-5.672,4A40.279,40.279,0,0,1,36.72,23.7Q34.841,11.984,46,8.233Z" transform="translate(-36.449 -8.14)" fill="#784229" fill-rule="evenodd"/>
    </g>
    <g id="Grupo_1107512" data-name="Grupo 1107512" transform="translate(1112.73 2975.29)">
      <path id="Trazado_888439" data-name="Trazado 888439" d="M119.273,8.412q6.819-.466,5.543,6.188a4.841,4.841,0,0,1-1.16,1.418q-.322.266-.516-.129a15.571,15.571,0,0,0-4.512-6.445.322.322,0,0,1,0-.516A2.468,2.468,0,0,0,119.273,8.412Z" transform="translate(-118.5 -8.382)" fill="#632c12" fill-rule="evenodd"/>
    </g>
    <g id="Grupo_1107513" data-name="Grupo 1107513" transform="translate(1121.496 2981.766)">
      <path id="Trazado_888440" data-name="Trazado 888440" d="M179.054,43.812v5.93a11.924,11.924,0,0,1-2.707.773l-.387,1.16q.574.834,1.16,1.676a.644.644,0,0,1,0,.773,35.647,35.647,0,0,1-3.48,3.738,2.384,2.384,0,0,1-1.547,0A8.21,8.21,0,0,0,170.8,56.7a2.892,2.892,0,0,1-1.547.516q.637,4-3.352,2.836-3.988,1.164-3.352-2.836a3.823,3.823,0,0,1-1.676-.516l-1.16,1.16a2.384,2.384,0,0,1-1.547,0l-3.48-3.48a1.675,1.675,0,0,1,0-1.289q1.8-.96.645-2.578a6.886,6.886,0,0,0-1.8-.387,1.8,1.8,0,0,1-.9-.645,28.473,28.473,0,0,1,0-5.414,1.185,1.185,0,0,1,.645-.645,8.82,8.82,0,0,0,2.063-.387l.516-1.289a8.214,8.214,0,0,0-1.16-1.289,2.384,2.384,0,0,1,0-1.547l3.223-3.223a1.38,1.38,0,0,1,1.289-.258,6.587,6.587,0,0,1,1.676,1.418,9.186,9.186,0,0,1,1.547-.773,13.336,13.336,0,0,1,.387-2.449,34.159,34.159,0,0,1,5.93,0l.387.387.258,2.063a9.185,9.185,0,0,1,1.547.773l1.418-1.418a1.38,1.38,0,0,1,1.289.258l3.48,3.48a1.1,1.1,0,0,1,0,1.031q-.586.842-1.16,1.676l.387,1.16A9.17,9.17,0,0,1,179.054,43.812Zm-13.922-.258q5.056.446,3.223,5.156-3.089,2.615-5.414-.773A3.411,3.411,0,0,1,165.133,43.555Z" transform="translate(-152.5 -33.5)" fill="#030200" fill-rule="evenodd" opacity="0.935"/>
    </g>
    <g id="Grupo_1107514" data-name="Grupo 1107514" transform="translate(1123.816 2984.269)">
      <path id="Trazado_888441" data-name="Trazado 888441" d="M180.063,45.594q-1.535,2.182-3.094,4.383-5.718-4.771-9.668,1.547a6.3,6.3,0,0,0,1.676,6.188q-2.309,1.414-4.641,2.836a.236.236,0,0,1-.258-.129,2.455,2.455,0,0,0,1.031-1.8q-.7-1.966-1.547-3.867a8.363,8.363,0,0,0-2.062-.129V52.3a6.43,6.43,0,0,0,1.8-.129,16.846,16.846,0,0,0,1.8-4,20.781,20.781,0,0,0-.9-2.062L165.5,44.82a4.047,4.047,0,0,0,1.676,1.289,37.657,37.657,0,0,1,3.867-1.547A4.35,4.35,0,0,0,171.3,42.5h2.32a6.429,6.429,0,0,0,.129,1.8,1.8,1.8,0,0,0,.9.645,23.549,23.549,0,0,1,3.094,1.16,3.2,3.2,0,0,0,1.8-1.031A.775.775,0,0,1,180.063,45.594Z" transform="translate(-161.5 -42.5)" fill="#f8b02f" fill-rule="evenodd"/>
    </g>
    <g id="Grupo_1107515" data-name="Grupo 1107515" transform="translate(1100.355 2985.852)">
      <path id="Trazado_888442" data-name="Trazado 888442" d="M74.625,68.867q6.085-4.04,4.641-11.086,3.149.007,2.449-3.094A2.988,2.988,0,0,0,79.781,53.4a6.429,6.429,0,0,0-.129-1.8,26.222,26.222,0,0,1-8.637,3.867,4.767,4.767,0,0,0-.516-.9A35.27,35.27,0,0,0,82.359,48.5a1.149,1.149,0,0,1,.387.516q.258,6.445,0,12.891A8.572,8.572,0,0,1,74.625,68.867Z" transform="translate(-70.5 -48.5)" fill="#fbc7a1" fill-rule="evenodd"/>
    </g>
    <g id="Grupo_1107516" data-name="Grupo 1107516" transform="translate(1126.381 2987.206)">
      <path id="Trazado_888443" data-name="Trazado 888443" d="M188.451,54.5q.516.381,1.046.782a6.6,6.6,0,0,0-1.307,1.825,40.237,40.237,0,0,1,1.83,4.041,6.541,6.541,0,0,0,1.83.13v2.085a2.519,2.519,0,0,0-1.569.261,1.845,1.845,0,0,0-.654.521,32.724,32.724,0,0,1-1.438,3.65,4.1,4.1,0,0,0,1.307,1.694,12.174,12.174,0,0,1-1.569,1.434,3.481,3.481,0,0,0-1.7-1.043,21.039,21.039,0,0,1-3.53,1.173,2.573,2.573,0,0,0-.784,2.476H179.56a5.181,5.181,0,0,0-.261-2.216q-1.922-.666-3.792-1.434a3.481,3.481,0,0,0-1.7,1.043,4.663,4.663,0,0,1-1.307-1.3q2.364-1.438,4.707-2.868a6.66,6.66,0,0,0,7.322-.13,6.133,6.133,0,0,0,.784-7.69Q186.894,56.707,188.451,54.5Z" transform="translate(-172.5 -54.5)" fill="#f8b02f" fill-rule="evenodd"/>
    </g>
    <g id="Grupo_1107517" data-name="Grupo 1107517" transform="translate(1095.183 2988.708)">
      <path id="Trazado_888444" data-name="Trazado 888444" d="M65.229,62.333Q62.058,63,63.251,66a2.4,2.4,0,0,0,1.451.786q1.478,7.157-4.749,11.26-7.4-.236-9.367-7.332-.2-3.14-.132-6.285h1.055q.514,2.931,3.43,2.226a2.746,2.746,0,0,0,1.319-2.226A26.935,26.935,0,0,0,65.1,60.5,6.481,6.481,0,0,1,65.229,62.333Z" transform="translate(-50.438 -60.5)" fill="#fbc7a1" fill-rule="evenodd"/>
    </g>
    <g id="Grupo_1107518" data-name="Grupo 1107518" transform="translate(1129.406 2989.747)">
      <path id="Trazado_888445" data-name="Trazado 888445" d="M193.059,65.59a6.08,6.08,0,0,1-.773,7.605,6.55,6.55,0,0,1-7.219.129,6.3,6.3,0,0,1-1.676-6.187Q187.341,60.819,193.059,65.59Zm-5.156.258a3.411,3.411,0,0,0-2.191,4.383q2.325,3.388,5.414.773Q192.959,66.294,187.9,65.848Z" transform="translate(-183.18 -63.537)" fill="#040200" fill-rule="evenodd" opacity="0.947"/>
    </g>
    <g id="Grupo_1107519" data-name="Grupo 1107519" transform="translate(1107.385 2990.757)">
      <path id="Trazado_888446" data-name="Trazado 888446" d="M100.017,67.5a2.988,2.988,0,0,1,1.934,1.289q.7,3.1-2.449,3.094a2.336,2.336,0,0,1-1.418-.773Q96.918,68.154,100.017,67.5Z" transform="translate(-97.765 -67.5)" fill="#090504" fill-rule="evenodd"/>
    </g>
    <g id="Grupo_1107520" data-name="Grupo 1107520" transform="translate(1115.019 2992.062)">
      <path id="Trazado_888447" data-name="Trazado 888447" d="M127.409,72.5q3.1.64,1.676,3.609a11.272,11.272,0,0,1-1.418.773A18.856,18.856,0,0,1,127.409,72.5Z" transform="translate(-127.378 -72.5)" fill="#f7b180" fill-rule="evenodd"/>
    </g>
    <g id="Grupo_1107521" data-name="Grupo 1107521" transform="translate(1090.871 2993.107)">
      <path id="Trazado_888448" data-name="Trazado 888448" d="M34.946,76.5h1.031v4.383a2.337,2.337,0,0,1-2.191-3.094A8.464,8.464,0,0,1,34.946,76.5Z" transform="translate(-33.712 -76.5)" fill="#eaa97a" fill-rule="evenodd"/>
    </g>
    <g id="Grupo_1107522" data-name="Grupo 1107522" transform="translate(1144.184 2994.143)">
      <path id="Trazado_888449" data-name="Trazado 888449" d="M242.047,80.5a5.375,5.375,0,0,1,.258,2.32h-1.8a2.477,2.477,0,0,1,1.547-.258Z" transform="translate(-240.5 -80.5)" fill="#7d5308" fill-rule="evenodd"/>
    </g>
    <g id="Grupo_1107523" data-name="Grupo 1107523" transform="translate(1100.613 3008.241)">
      <path id="Trazado_888450" data-name="Trazado 888450" d="M78.2,136.8a10.223,10.223,0,0,1-6.7,0v-2.3a20.773,20.773,0,0,0,6.7,0Z" transform="translate(-71.5 -134.5)" fill="#f2af7e" fill-rule="evenodd"/>
    </g>
    <g id="Grupo_1107524" data-name="Grupo 1107524" transform="translate(1095.973 3010.373)">
      <path id="Trazado_888451" data-name="Trazado 888451" d="M58.141,142.5a11.348,11.348,0,0,0,6.7,0,5.034,5.034,0,0,0,5.414,4q-1.337,1.965-2.578,4a68.338,68.338,0,0,1-11.859,0,43.687,43.687,0,0,1-2.32-3.867A4.661,4.661,0,0,0,58.141,142.5Z" transform="translate(-53.5 -142.5)" fill="#fbc7a1" fill-rule="evenodd"/>
    </g>
    <g id="Grupo_1107525" data-name="Grupo 1107525" transform="translate(1131.809 3013.198)">
      <path id="Trazado_888452" data-name="Trazado 888452" d="M196.109,153.453q5.158-.065,10.313.129a5.929,5.929,0,0,1-4.383,4.125q-4.768.193-9.539.129A5.87,5.87,0,0,1,196.109,153.453Z" transform="translate(-192.5 -153.437)" fill="#f7c49f" fill-rule="evenodd"/>
    </g>
    <g id="Grupo_1107526" data-name="Grupo 1107526" transform="translate(1084.355 3014.521)">
      <path id="Trazado_888453" data-name="Trazado 888453" d="M44.805,158a8.442,8.442,0,0,1-1.418,3.094q-2.168,3.185-4.512,6.187a41.923,41.923,0,0,0-4.641.129,1.82,1.82,0,0,0-.516.645q-.265,2.346-.516,4.77a78.382,78.382,0,0,1-14.953,9.926H15.93a29.116,29.116,0,0,0-.129-3.867q-3.9-5.765.129-11.473a8.041,8.041,0,0,0-1.547-1.16,10.337,10.337,0,0,0-1.676,11.859,5.688,5.688,0,0,1,1.16,4.641H8.454q-.064-10.829.129-21.656a5.494,5.494,0,0,1,3.738-3.48,17.333,17.333,0,0,1,5.156.129q4.866,8.057,9.926,15.984a1.226,1.226,0,0,0,1.8-.516q5-7.8,10.184-15.469A10.507,10.507,0,0,1,44.805,158Z" transform="translate(-8.438 -157.481)" fill="#7cb256" fill-rule="evenodd"/>
    </g>
    <g id="Grupo_1107527" data-name="Grupo 1107527" transform="translate(1114.556 3014.784)">
      <path id="Trazado_888454" data-name="Trazado 888454" d="M132.575,159.5a6.4,6.4,0,0,1,3.038,3.386q.132,5.47.264,10.941a1.516,1.516,0,0,0,1.717.391l5.547-9.638a25.852,25.852,0,0,1,6.339.13l-10.037,17.974q.275.4.528.781l-.528,1.042H130.2a6.432,6.432,0,0,1,1.189-4.949,17.027,17.027,0,0,0,.924-3.386,8.189,8.189,0,0,1,1.189-1.3,25.742,25.742,0,0,0,0-5.21l-.66-.651-2.377-.26a2.016,2.016,0,0,0-.792-.912,4.113,4.113,0,0,1-3.17,1.042q2.4-3.034,4.622-6.252A8.476,8.476,0,0,0,132.575,159.5Z" transform="translate(-126.5 -159.5)" fill="#7cb256" fill-rule="evenodd"/>
    </g>
    <g id="Grupo_1107528" data-name="Grupo 1107528" transform="translate(1099.84 3020.812)">
      <path id="Trazado_888455" data-name="Trazado 888455" d="M68.5,182.763a35.467,35.467,0,0,1,8.508,0q-2.051,3.275-4.254,6.445Q70.618,185.96,68.5,182.763Z" transform="translate(-68.5 -182.507)" fill="#f1be9a" fill-rule="evenodd"/>
    </g>
    <g id="Grupo_1107529" data-name="Grupo 1107529" transform="translate(1087.481 3023.292)">
      <path id="Trazado_888456" data-name="Trazado 888456" d="M24.929,208H22.867a5.688,5.688,0,0,0-1.16-4.641A10.337,10.337,0,0,1,23.383,191.5a8.039,8.039,0,0,1,1.547,1.16q-4.034,5.708-.129,11.473A29.117,29.117,0,0,1,24.929,208Z" transform="translate(-20.563 -191.5)" fill="#040602" fill-rule="evenodd"/>
    </g>
    <g id="Grupo_1107530" data-name="Grupo 1107530" transform="translate(1109.621 3023.292)">
      <path id="Trazado_888457" data-name="Trazado 888457" d="M115.219,208H112.9a25.378,25.378,0,0,1,.129-3.609,8.311,8.311,0,0,0,1.934-5.156q-4,.064-7.992-.129l-.387-.387q-.193-2.7-.129-5.414a1.819,1.819,0,0,1,.516-.645,41.919,41.919,0,0,1,4.641-.129A3.98,3.98,0,0,0,114.7,191.5a1.987,1.987,0,0,1,.773.9l2.32.258.645.645a25.832,25.832,0,0,1,0,5.156,8.067,8.067,0,0,0-1.16,1.289,17.036,17.036,0,0,1-.9,3.352A6.434,6.434,0,0,0,115.219,208Z" transform="translate(-106.438 -191.5)" fill="#0a0a03" fill-rule="evenodd"/>
    </g>
    <g id="Grupo_1107531" data-name="Grupo 1107531" transform="translate(1111.699 3026.328)">
      <path id="Trazado_888458" data-name="Trazado 888458" d="M114.5,204.5h7.734v2.063H114.5Z" transform="translate(-114.5 -204.5)" fill="#fdb330" fill-rule="evenodd"/>
    </g>
    <g id="Grupo_1107532" data-name="Grupo 1107532" transform="translate(1093.601 3024.859)">
      <path id="Trazado_888459" data-name="Trazado 888459" d="M62.335,198.5q-.066,2.754.132,5.5l.4.393q4.089.2,8.181.131a8.409,8.409,0,0,1-1.979,5.239,25.6,25.6,0,0,0-.132,3.668H46.5a80.288,80.288,0,0,0,15.307-10.086Q62.064,200.884,62.335,198.5Z" transform="translate(-46.5 -198.5)" fill="#7cb256" fill-rule="evenodd"/>
    </g>
    <circle id="Elipse_11924" data-name="Elipse 11924" cx="2.5" cy="2.5" r="2.5" transform="translate(1107.051 2990.792)" fill="#060506"/>
    <circle id="Elipse_11925" data-name="Elipse 11925" cx="2.5" cy="2.5" r="2.5" transform="translate(1096.051 2990.792)" fill="#060506"/>
  </g>
</svg>
