<svg xmlns="http://www.w3.org/2000/svg" width="90" height="83" viewBox="0 0 90 83">
  <g id="Grupo_1108008" data-name="Grupo 1108008" transform="translate(11918 11761)">
    <g id="Grupo_1099433" data-name="Grupo 1099433" transform="translate(-12997.781 -13997)">
      <g id="Rectángulo_401341" data-name="Rectángulo 401341" transform="translate(1079.781 2236)" fill="#eadffe" stroke="#fff" stroke-width="3">
        <rect width="90" height="83" rx="12" stroke="none"/>
        <rect x="1.5" y="1.5" width="87" height="80" rx="10.5" fill="none"/>
      </g>
    </g>
    <g id="candidate_1475093" transform="translate(-11927.491 -11751.5)">
      <g id="Grupo_1107887" data-name="Grupo 1107887" transform="translate(26.5 -0.5)">
        <path id="Trazado_888812" data-name="Trazado 888812" d="M27.789-.5H45.32a1.412,1.412,0,0,1-.258,1.934q-8.214.067-16.371.387-.258,18.047,0,36.094a5.139,5.139,0,0,0,2.191.258q-.064-2.839.129-5.672a6.316,6.316,0,0,1,3.48-4.77q3.882-1.444,7.734-2.965a1.688,1.688,0,0,0,.129-1.547,6.974,6.974,0,0,1-2.32-3.867,3.522,3.522,0,0,1-2.578-2.32,41.9,41.9,0,0,0,.773-7.477Q40.548,2.6,47.9,2.98a8.51,8.51,0,0,1,7.09,5.543q.644,3.738,1.16,7.477a3.4,3.4,0,0,1-2.578,3.352,7.8,7.8,0,0,1-2.191,3.609,1.851,1.851,0,0,0,.516,2.063,3.656,3.656,0,0,1,5.285.258,30.116,30.116,0,0,1,4.383-3.738,3.523,3.523,0,0,1,3.48.9l.258-2.578a1.047,1.047,0,0,1,1.8,0q.065,8.253.387,16.5a4.077,4.077,0,0,1,3.738.516q2.169,4.983,4.125,10.055a29.644,29.644,0,0,1,.516,4.641,28.584,28.584,0,0,0,2.836,3.609,3.862,3.862,0,0,1-.258,2.578q-3.891,3.956-7.863,7.734h-2.32q-1.458-1.264-2.836-2.707a15.979,15.979,0,0,0-3.352-.516,5.82,5.82,0,0,1-2.062-1.031l-8.637-8.637q-1.549-3.345,1.8-4.9a3.426,3.426,0,0,1,2.191-2.836,4.405,4.405,0,0,1,1.8-2.965l-1.547-1.547-27.844-.258a3.739,3.739,0,0,1-1.16-1.16q-.258-19.078,0-38.156A8.465,8.465,0,0,1,27.789-.5ZM45.062,5.172A7.006,7.006,0,0,1,52.926,9.3a5.007,5.007,0,0,1,.258,2.578,7.653,7.653,0,0,0-2.965-2.32q-2.408,1.051-4.9,1.934A32.478,32.478,0,0,1,40.937,12a2.441,2.441,0,0,0-.645.387A6.877,6.877,0,0,1,45.062,5.172Zm4.9,6.7a8.468,8.468,0,0,1,1.418,1.547,23.32,23.32,0,0,1,0,4.9q-1.045,5.064-6.059,4a4.292,4.292,0,0,1-2.965-2.965q-.193-2.7-.129-5.414A12.013,12.013,0,0,0,49.961,11.875Zm3.609,3.352a.92.92,0,0,1,.129,1.547A4.757,4.757,0,0,1,53.57,15.227Zm9.023,8.25a.935.935,0,0,1,.645,1.289Q60.268,27.8,57.18,30.7a19.178,19.178,0,0,1-3.609-3.867.911.911,0,0,1,.773-.773,8.321,8.321,0,0,0,2.836,2.063,7.459,7.459,0,0,1,1.031-.387Q60.362,25.515,62.594,23.477ZM44.8,24.508a7.688,7.688,0,0,0,3.867,0l.258.387a28.319,28.319,0,0,1-2.062,2.449,16.093,16.093,0,0,1-1.934-2.062A1.272,1.272,0,0,1,44.8,24.508Zm20.109,1.547a91.363,91.363,0,0,1,.129,11.859,5.139,5.139,0,0,1-2.191.258q.064-2.71-.129-5.414a6.393,6.393,0,0,0-1.16-2.965A22.739,22.739,0,0,0,64.914,26.055Zm-22.172.773a1.272,1.272,0,0,1,.773.129,19.511,19.511,0,0,1,1.547,2.191L43.773,30.18a22.546,22.546,0,0,1-1.547-2.836Q42.514,27.08,42.742,26.828Zm7.477,0q.947-.16,1.031.773a9.071,9.071,0,0,1-1.289,2.578,3.052,3.052,0,0,1-1.289-1.16A19.163,19.163,0,0,0,50.219,26.828ZM39.391,28.117a.8.8,0,0,1,.773.258,24.186,24.186,0,0,0,2.32,4.125,1.542,1.542,0,0,0,1.676,0,1.148,1.148,0,0,1,.387.516q-.5,2.528-1.031,5.027-2.575.193-5.156.129a33.111,33.111,0,0,0-.129-4.125,1.306,1.306,0,0,0-1.8.258,29.116,29.116,0,0,0-.129,3.867H33.2q-.064-2.968.129-5.93a5.245,5.245,0,0,1,1.676-2.191Q37.234,29.065,39.391,28.117Zm13.148,1.8q1.514.358,0,.773A.706.706,0,0,1,52.539,29.922Zm-6.187,1.031a1.521,1.521,0,0,1,1.289.387,2.384,2.384,0,0,1-1.547,0A.582.582,0,0,0,46.352,30.953Zm13.406.516a1.1,1.1,0,0,1,.645.773,18.682,18.682,0,0,1,0,4.383l-3.738-3.738A3.8,3.8,0,0,0,59.758,31.469Zm-10.57,1.289q1.31-.257.773.773a7.528,7.528,0,0,0,.645,1.8l2.707,2.707a7.06,7.06,0,0,1-3.223-.129Q49.613,35.335,49.187,32.758Zm3.352,0a2.174,2.174,0,0,1,1.031.129Q60.155,39.6,66.977,46.035a1.664,1.664,0,0,0,1.676-.645,30.076,30.076,0,0,0-.387-5.543l.258-1.418a.7.7,0,0,1,1.16.258l3.609,9.281a29.644,29.644,0,0,1,.516,4.641,30.913,30.913,0,0,0,2.965,3.738l-6.961,6.961a5.656,5.656,0,0,1-2.32-1.8,10.211,10.211,0,0,0-5.156-1.547,102.025,102.025,0,0,1-8.895-8.379q-.932-1.128.387-1.547A18.1,18.1,0,0,1,57.18,53q2.487.348,1.418-1.934L55.375,47.84a1.386,1.386,0,0,1,.9-.9,30.631,30.631,0,0,1,3.48,3.223q1.472.75,2.063-.9a28.2,28.2,0,0,0-3.738-4.125q-.451-1.611,1.16-1.16l3.609,3.609q1.932.257,1.418-1.676l-11.6-11.6A1.218,1.218,0,0,1,52.539,32.758Zm-5.93,1.031a.848.848,0,0,1,.645.773q.24,1.7.645,3.352a4.35,4.35,0,0,1-2.062.258Q46.181,35.97,46.609,33.789Zm19.078,6.188a2.579,2.579,0,0,1,.387,2.32l-1.934-1.934A4.722,4.722,0,0,0,65.687,39.977Z" transform="translate(-26.5 0.5)" fill="#464bc7" fill-rule="evenodd"/>
      </g>
      <g id="Grupo_1107888" data-name="Grupo 1107888" transform="translate(47.989 -0.5)">
        <path id="Trazado_888813" data-name="Trazado 888813" d="M110.277-.5h17.531a8.473,8.473,0,0,1,1.16,1.289q.258,7.992,0,15.984a1.349,1.349,0,0,1-1.8-.258q-.067-7.44-.387-14.824l-16.242-.258Q109.314.562,110.277-.5Z" transform="translate(-109.852 0.5)" fill="#464bc7" fill-rule="evenodd"/>
      </g>
    </g>
  </g>
</svg>
