<svg xmlns="http://www.w3.org/2000/svg" width="90" height="83" viewBox="0 0 90 83">
  <g id="Grupo_1108009" data-name="Grupo 1108009" transform="translate(11756 11761)">
    <g id="Grupo_1099432" data-name="Grupo 1099432" transform="translate(-12835.781 -13997)">
      <g id="Rectángulo_401341" data-name="Rectángulo 401341" transform="translate(1079.781 2236)" fill="#eadffe" stroke="#fff" stroke-width="3">
        <rect width="90" height="83" rx="12" stroke="none"/>
        <rect x="1.5" y="1.5" width="87" height="80" rx="10.5" fill="none"/>
      </g>
    </g>
    <g id="Grupo_1107915" data-name="Grupo 1107915" transform="translate(-413.969 197.333)">
      <path id="Trazado_888814" data-name="Trazado 888814" d="M16.344-.5H47.99V5.625H64.834V47.99H58.709v8.422H56.157V45.693h6.38V8.177H47.99V9.964q11.646.162,12.761,11.74Q59.58,32.381,48.883,33.443a1.606,1.606,0,0,1-.766-.255q-.191,4.337-.128,8.677H43.907v3.828h6.38v6.635H47.735V47.99H43.907a7.112,7.112,0,0,1-.383,2.807,20.9,20.9,0,0,1-2.552,3.573,32.8,32.8,0,0,0-.128,4.083h2.042v6.38H21.448v-6.38H23.49a32.777,32.777,0,0,0-.128-4.083A20.894,20.894,0,0,1,20.81,50.8a7.114,7.114,0,0,1-.383-2.807H16.6v4.339H14.047V45.693h6.38V41.865H16.344q.064-4.34-.128-8.677-8.281.451-11.74-7.146Q1.638,17.46,8.688,11.878a12.991,12.991,0,0,1,7.656-1.914V8.177H1.8V45.693h6.38V56.412H5.625V47.99H-.5V5.625H16.344Zm2.3,2.3H45.693V39.313H43.907a46.16,46.16,0,0,0-.128-4.849,3.928,3.928,0,0,0-.766-1.531,35.392,35.392,0,0,1-3.956-3.19,3.77,3.77,0,0,0-5.232.383,4.007,4.007,0,0,0,0,4.339l2.3,2.3a12.879,12.879,0,0,1,.128,2.552H18.641Zm21.565,18.12a9.657,9.657,0,0,0-4.466-5.232Q37.951,10.346,33.7,8.05q-5.155-1.064-5.87,4.083a5.173,5.173,0,0,0,.766,2.552C26.465,15.879,40.969,18.523,40.206,19.917Zm-8.8-9.7q3.762.191,2.042,3.445-2.582,1.2-3.318-1.531A3.348,3.348,0,0,1,31.4,10.219ZM14.3,12.261h2.042a4.305,4.305,0,0,1-.255,2.042,3.93,3.93,0,0,0-4.466,1.786,4.554,4.554,0,0,0,.128,4.849,11.806,11.806,0,0,0-4.466,5.1Q3.883,19,9.964,13.919A12.8,12.8,0,0,1,14.3,12.261Zm33.688,0q9.315.318,10.464,9.57a7.789,7.789,0,0,1-1.4,4.211,11.806,11.806,0,0,0-4.466-5.1q2.369-5.6-3.573-6.891a2.632,2.632,0,0,0-.766.255A4.306,4.306,0,0,1,47.99,12.261ZM14.557,16.6q2.391-.479,1.786,1.914.421,2.31-1.786,1.786Q12.055,18.435,14.557,16.6Zm33.688,0a2.137,2.137,0,0,1,2.68,1.531q-.118,2.642-2.68,2.042A6.661,6.661,0,0,1,48.245,16.6ZM15.068,22.724a5.277,5.277,0,0,0,1.276.255v7.912a10.215,10.215,0,0,1-6.125-1.4A2.59,2.59,0,0,1,9.2,28.211,6.461,6.461,0,0,1,15.068,22.724Zm33.688,0a6.382,6.382,0,0,1,6.38,5.487A6.367,6.367,0,0,1,50.8,30.763a15.55,15.55,0,0,1-2.807.128V22.979A.731.731,0,0,0,48.756,22.724Zm-12.25,8.422a19.785,19.785,0,0,1,4.977,4.083q.255,7.146,0,14.292L38.675,53.6a18.911,18.911,0,0,0-.383,4.849H26.042a18.911,18.911,0,0,0-.383-4.849l-2.807-4.083q-.191-3.826-.128-7.656h2.042v5.1h2.3v-5.1h1.786v5.1h2.3v-5.1a25.121,25.121,0,0,1,3.573.128,6.874,6.874,0,0,0-1.531,4.977h2.3a7.134,7.134,0,0,1,2.935-5.615,30.929,30.929,0,0,0,0-5.615,14.1,14.1,0,0,1-2.935-3.445A1.612,1.612,0,0,1,36.506,31.146Zm-12.761,29.6H40.589v1.786H23.745Z" transform="translate(-11328.5 -11949.5)" fill="#464bc7" fill-rule="evenodd"/>
      <g id="Grupo_1107890" data-name="Grupo 1107890" transform="translate(-11307.944 -11945.922)">
        <path id="Trazado_888815" data-name="Trazado 888815" d="M92.338,15.483a12.331,12.331,0,0,1,12.123,7.146q3.143,10.49-6.508,15.44Q88.227,41,83.023,32.327,79.53,22.617,88,16.887A25.709,25.709,0,0,1,92.338,15.483Zm.766,2.3a19.558,19.558,0,0,0-3.318.893q-7.95,4.708-4.211,13.143a9.657,9.657,0,0,1,4.466-5.232,5.174,5.174,0,0,1-.766-2.552q.715-5.148,5.87-4.083,4.253,2.3,2.042,6.635a9.657,9.657,0,0,1,4.466,5.232,11.885,11.885,0,0,0,1.4-4.466Q102.022,18.468,93.1,17.78Zm-.255,4.339a3.348,3.348,0,0,0-1.276,1.914q.735,2.728,3.318,1.531Q96.61,22.31,92.849,22.119Zm-.766,6.38a6.654,6.654,0,0,0-4.594,5.232,2.589,2.589,0,0,0,1.021,1.276,9.828,9.828,0,0,0,8.167,1.021,5.326,5.326,0,0,0,3.063-2.3Q98.17,27.9,92.083,28.5Z" transform="translate(-82.003 -15.477)" fill="#464bc7" fill-rule="evenodd"/>
      </g>
      <g id="Grupo_1107891" data-name="Grupo 1107891" transform="translate(-11308.072 -11918.609)">
        <path id="Trazado_888816" data-name="Trazado 888816" d="M81.5,122.5h2.3v2.552H81.5Z" transform="translate(-81.5 -122.5)" fill="#464bc7" fill-rule="evenodd"/>
      </g>
      <g id="Grupo_1107892" data-name="Grupo 1107892" transform="translate(-11303.734 -11918.609)">
        <path id="Trazado_888817" data-name="Trazado 888817" d="M98.5,122.5h6.38v2.552H98.5Z" transform="translate(-98.5 -122.5)" fill="#464bc7" fill-rule="evenodd"/>
      </g>
      <g id="Grupo_1107893" data-name="Grupo 1107893" transform="translate(-11308.072 -11914.271)">
        <path id="Trazado_888818" data-name="Trazado 888818" d="M81.5,139.5H92.219v2.3H81.5Z" transform="translate(-81.5 -139.5)" fill="#464bc7" fill-rule="evenodd"/>
      </g>
      <g id="Grupo_1107894" data-name="Grupo 1107894" transform="translate(-11324.917 -11912.229)">
        <path id="Trazado_888819" data-name="Trazado 888819" d="M15.5,147.5H26.219v2.3H15.5Z" transform="translate(-15.5 -147.5)" fill="#464bc7" fill-rule="evenodd"/>
      </g>
      <g id="Grupo_1107895" data-name="Grupo 1107895" transform="translate(-11278.468 -11912.229)">
        <path id="Trazado_888820" data-name="Trazado 888820" d="M197.5,147.5h10.719v2.3H197.5Z" transform="translate(-197.5 -147.5)" fill="#464bc7" fill-rule="evenodd"/>
      </g>
      <g id="Grupo_1107896" data-name="Grupo 1107896" transform="translate(-11324.917 -11907.891)">
        <path id="Trazado_888821" data-name="Trazado 888821" d="M15.5,164.5H26.219v2.3H15.5Z" transform="translate(-15.5 -164.5)" fill="#464bc7" fill-rule="evenodd"/>
      </g>
      <g id="Grupo_1107897" data-name="Grupo 1107897" transform="translate(-11278.468 -11907.891)">
        <path id="Trazado_888822" data-name="Trazado 888822" d="M197.5,164.5h10.719v2.3H197.5Z" transform="translate(-197.5 -164.5)" fill="#464bc7" fill-rule="evenodd"/>
      </g>
      <g id="Grupo_1107898" data-name="Grupo 1107898" transform="translate(-11318.536 -11903.807)">
        <path id="Trazado_888823" data-name="Trazado 888823" d="M42.8,199.641H40.5V180.5h2.3Z" transform="translate(-40.5 -180.5)" fill="#464bc7" fill-rule="evenodd"/>
      </g>
      <g id="Grupo_1107899" data-name="Grupo 1107899" transform="translate(-11276.427 -11903.807)">
        <path id="Trazado_888824" data-name="Trazado 888824" d="M207.8,199.641h-2.3V180.5h2.3Z" transform="translate(-205.5 -180.5)" fill="#464bc7" fill-rule="evenodd"/>
      </g>
      <g id="Grupo_1107900" data-name="Grupo 1107900" transform="translate(-11314.453 -11895.385)">
        <path id="Trazado_888825" data-name="Trazado 888825" d="M56.5,213.5h2.552v2.3H56.5Z" transform="translate(-56.5 -213.5)" fill="#464bc7" fill-rule="evenodd"/>
      </g>
      <g id="Grupo_1107901" data-name="Grupo 1107901" transform="translate(-11280.766 -11895.385)">
        <path id="Trazado_888826" data-name="Trazado 888826" d="M188.5,213.5h2.552v2.3H188.5Z" transform="translate(-188.5 -213.5)" fill="#464bc7" fill-rule="evenodd"/>
      </g>
      <g id="Grupo_1107902" data-name="Grupo 1107902" transform="translate(-11322.875 -11891.046)">
        <path id="Trazado_888827" data-name="Trazado 888827" d="M23.5,230.5h2.552v2.3H23.5Z" transform="translate(-23.5 -230.5)" fill="#464bc7" fill-rule="evenodd"/>
      </g>
      <g id="Grupo_1107903" data-name="Grupo 1107903" transform="translate(-11314.453 -11891.046)">
        <path id="Trazado_888828" data-name="Trazado 888828" d="M59.052,236.88H56.5V230.5h2.552Z" transform="translate(-56.5 -230.5)" fill="#464bc7" fill-rule="evenodd"/>
      </g>
      <g id="Grupo_1107904" data-name="Grupo 1107904" transform="translate(-11280.766 -11891.046)">
        <path id="Trazado_888829" data-name="Trazado 888829" d="M191.052,236.88H188.5V230.5h2.552Z" transform="translate(-188.5 -230.5)" fill="#464bc7" fill-rule="evenodd"/>
      </g>
      <g id="Grupo_1107905" data-name="Grupo 1107905" transform="translate(-11272.343 -11891.046)">
        <path id="Trazado_888830" data-name="Trazado 888830" d="M221.5,230.5h2.552v2.3H221.5Z" transform="translate(-221.5 -230.5)" fill="#464bc7" fill-rule="evenodd"/>
      </g>
      <g id="Grupo_1107906" data-name="Grupo 1107906" transform="translate(-11322.875 -11886.963)">
        <path id="Trazado_888831" data-name="Trazado 888831" d="M26.052,248.8H23.5v-2.3h2.552Z" transform="translate(-23.5 -246.5)" fill="#464bc7" fill-rule="evenodd"/>
      </g>
      <g id="Grupo_1107907" data-name="Grupo 1107907" transform="translate(-11272.343 -11886.963)">
        <path id="Trazado_888832" data-name="Trazado 888832" d="M224.052,248.8H221.5v-2.3h2.552Z" transform="translate(-221.5 -246.5)" fill="#464bc7" fill-rule="evenodd"/>
      </g>
    </g>
  </g>
</svg>
