<svg xmlns="http://www.w3.org/2000/svg" width="90" height="83" viewBox="0 0 90 83">
  <g id="Grupo_1108010" data-name="Grupo 1108010" transform="translate(11596 11761)">
    <g id="Grupo_1099434" data-name="Grupo 1099434" transform="translate(-12675.781 -13997)">
      <g id="Rectángulo_401341" data-name="Rectángulo 401341" transform="translate(1079.781 2236)" fill="#eadffe" stroke="#fff" stroke-width="3">
        <rect width="90" height="83" rx="12" stroke="none"/>
        <rect x="1.5" y="1.5" width="87" height="80" rx="10.5" fill="none"/>
      </g>
    </g>
    <g id="recruit_2910356" transform="translate(-11583.438 -11754.009)">
      <g id="Grupo_1107909" data-name="Grupo 1107909" transform="translate(3.5 3.438)">
        <path id="Trazado_888833" data-name="Trazado 888833" d="M4.47,3.453q12.608-.061,25.215.121a2.3,2.3,0,0,1,.606.364q.481,14.274.485,28.609a4.287,4.287,0,0,1,1.7,1.7q.243,6.425,0,12.85A24.607,24.607,0,0,1,30.9,51.579q.2,1.027.364,2.061a16.56,16.56,0,0,1,11.274-9.7,6.906,6.906,0,0,1-4.122-5.576q-4.809-.509-3.758-5.334a2.487,2.487,0,0,0,.364-.97,16.292,16.292,0,0,1,.121-8.243,7.435,7.435,0,0,1,3.394-2.909,6.94,6.94,0,0,1,3.273-3.516,77.811,77.811,0,0,1,8.486-.364l7.758.121a3.708,3.708,0,0,1,1.576,1.576q.243,5.7,0,11.4a4.347,4.347,0,0,0,0,2.909q1.051,4.825-3.758,5.334a6.906,6.906,0,0,1-4.122,5.576q13.988,4.8,11.88,19.638H3.5v-1.94h9.7q.91-5.092,1.576-10.183a14.305,14.305,0,0,1-4.364-6.3,43.822,43.822,0,0,0-4.243-3.516,2.652,2.652,0,0,1-.727-1.091,2.525,2.525,0,0,1-1.818-1.212q-.242-17.456,0-34.913A1.7,1.7,0,0,1,4.47,3.453Zm.97,1.94H28.715q.061,13.456-.121,26.912a3.1,3.1,0,0,0-4-1.576l-.727.364a5.493,5.493,0,0,0-2.909-.485v-1.94h5.819v-1.94H20.956v-1.94h5.819v-1.94H13.2v1.94h1.94v1.94H7.379v1.94h7.758v1.94H7.379v1.94h7.758a39.381,39.381,0,0,1-.121,4.364Q14.744,38.516,13.2,38a5.883,5.883,0,0,0-6.546-.97,4.554,4.554,0,0,0-1.091,1.333Q5.379,21.879,5.44,5.392ZM44.474,18.969a116.616,116.616,0,0,1,12.85.364,2.293,2.293,0,0,1,.364.606,61.055,61.055,0,0,1-.364,10.668H55.869a3.1,3.1,0,0,0-1.7-3.758q-4.762-.013-9.456-.485a2.293,2.293,0,0,1-.364-.606,17.546,17.546,0,0,1-.121-2.909h-1.94v1.94q-4.372,1.23-3.879,5.819H36.958a20.18,20.18,0,0,1-.121-5.091,4.067,4.067,0,0,1,3.516-2.667A4.4,4.4,0,0,1,44.474,18.969ZM17.562,25.031a1.052,1.052,0,0,1,1.333.727q.182,7.272.121,14.547h1.94q-.061-3.4.121-6.789.849-1.455,1.7,0,.182,3.392.121,6.789h1.94q-.061-3.4.121-6.789.849-1.455,1.7,0,.182,3.392.121,6.789h1.94q-.06-2.428.121-4.849.848-1.455,1.7,0a73.166,73.166,0,0,1-.242,11.153,8.31,8.31,0,0,1-1.333,3.273q-6.182.243-12.365,0A12.386,12.386,0,0,1,12.107,43.7Q9.993,41.674,7.743,39.82q-.128-1.386,1.333-1.212a6.589,6.589,0,0,1,3.394,1.576,3.712,3.712,0,0,0,4.243-1.333q.475-6.513.485-13.092Zm24.73,1.94a5.307,5.307,0,0,0,1.7,1.576l8.971.242a2.292,2.292,0,0,1,.606.364,36.337,36.337,0,0,1,.242,8.243,4.76,4.76,0,0,1-4.728,4.728,18.218,18.218,0,0,1-5.334-.242A4.7,4.7,0,0,1,40.474,37.4a62.1,62.1,0,0,1,0-7.758A3.543,3.543,0,0,1,42.292,26.97Zm-4.607,5.819h.727v3.394q-2.143-.278-1.576-2.424A1.7,1.7,0,0,1,37.685,32.789Zm18.184,0q2.5.534,1.333,2.909a1.943,1.943,0,0,1-1.333.485Zm-11.153,11.4a24.452,24.452,0,0,1,4.849.242,9.1,9.1,0,0,1-2.424,1.455L44.959,44.79A.693.693,0,0,1,44.716,44.184Zm-1.94,2.182q3.287.45.485,1.7A2.721,2.721,0,0,1,42.777,46.366Zm8,0H51.5a2.721,2.721,0,0,1-.485,1.7,8.22,8.22,0,0,1-1.455-.849Q50.2,46.782,50.778,46.366Zm-10.425.727q.687,2.275,1.333,4.607,1.364-.894,2.788-1.7a1.388,1.388,0,0,1,.485,1.091q-1.244,5.159-2.546,10.3a17.191,17.191,0,0,1-4,.242V55.822h-1.94v5.819H32.594Q31.731,51.723,40.352,47.094Zm13.335,0q8.906,4.469,8,14.547H57.809V55.822h-1.94v5.819a17.191,17.191,0,0,1-4-.242q-1.3-5.145-2.546-10.3A1.388,1.388,0,0,1,49.808,50q1.425.8,2.788,1.7A26.046,26.046,0,0,0,53.687,47.094Zm-7.031,1.455h.97Q47.141,51.458,46.656,48.548ZM17.077,51.943H28.715q.752,4.816,1.7,9.577-7.516.243-15.032,0Q16.325,56.759,17.077,51.943Zm29.821.242a.535.535,0,0,1,.485.485q1.15,4.477,2.182,8.971H44.716Q45.865,56.925,46.9,52.185Z" transform="translate(-3.5 -3.438)" fill="#464bc7" fill-rule="evenodd"/>
      </g>
      <g id="Grupo_1107910" data-name="Grupo 1107910" transform="translate(11.092 7.322)">
        <path id="Trazado_888834" data-name="Trazado 888834" d="M39.346,19.47q7.174-.256,4.607,6.425a6.806,6.806,0,0,1,2.667,7.152H34.982A6.806,6.806,0,0,1,37.649,25.9Q35.52,21.832,39.346,19.47Zm.727,2.182a1.7,1.7,0,0,0-.849.97q-.319,3.269,2.788,2.061Q43.474,21.6,40.073,21.653Zm-.485,5.819a3.777,3.777,0,0,0-2.424,3.637h7.273Q43.918,26.841,39.588,27.471Z" transform="translate(-34.816 -19.461)" fill="#464bc7" fill-rule="evenodd"/>
      </g>
      <g id="Grupo_1107911" data-name="Grupo 1107911" transform="translate(7.379 22.849)">
        <path id="Trazado_888835" data-name="Trazado 888835" d="M19.5,83.5h3.879v1.94H19.5Z" transform="translate(-19.5 -83.5)" fill="#464bc7" fill-rule="evenodd"/>
      </g>
      <g id="Grupo_1107912" data-name="Grupo 1107912" transform="translate(42.245 30.541)">
        <path id="Trazado_888836" data-name="Trazado 888836" d="M163.6,115.292q2.421-.42,1.455,1.818Q162.6,117.645,163.6,115.292Z" transform="translate(-163.306 -115.226)" fill="#464bc7" fill-rule="evenodd"/>
      </g>
      <g id="Grupo_1107913" data-name="Grupo 1107913" transform="translate(50.003 30.541)">
        <path id="Trazado_888837" data-name="Trazado 888837" d="M195.6,115.292q2.421-.42,1.455,1.818Q194.6,117.645,195.6,115.292Z" transform="translate(-195.306 -115.226)" fill="#464bc7" fill-rule="evenodd"/>
      </g>
      <g id="Grupo_1107914" data-name="Grupo 1107914" transform="translate(44.232 36.426)">
        <path id="Trazado_888838" data-name="Trazado 888838" d="M177.076,139.5h2.182a3.558,3.558,0,0,1-2.425,3.758q-2.664.182-5.334.121v-1.94a16.864,16.864,0,0,0,4.607-.364A1.575,1.575,0,0,0,177.076,139.5Z" transform="translate(-171.5 -139.5)" fill="#464bc7" fill-rule="evenodd"/>
      </g>
    </g>
  </g>
</svg>
