<svg id="online-recruitment_2910480_-_copia" data-name="online-recruitment_2910480 - copia" xmlns="http://www.w3.org/2000/svg" width="149.105" height="149" viewBox="0 0 149.105 149">
  <g id="Grupo_1107669" data-name="Grupo 1107669" transform="translate(0 0)">
    <path id="Trazado_888596" data-name="Trazado 888596" d="M113.392,3.475q9.913-.15,19.817.3Q152.2,11.451,146.42,31.4q3.336,7.785-2.4,13.812a9.06,9.06,0,0,1-6.005,1.5,11.669,11.669,0,0,1-5.1,7.807,2.963,2.963,0,0,0-.3,1.8q21.9,6.008,19.817,28.824-6.912-.15-13.812.3a10.618,10.618,0,0,1,4.2,4.2q6.3-.978,9.308,4.5a216.812,216.812,0,0,1,0,22.819,26.54,26.54,0,0,1-8.407,14.412q.676,10.52,2.1,21.018-66.056.15-132.111-.3A15.3,15.3,0,0,1,3.8,142.191q-.6-61.852,0-123.7a15.3,15.3,0,0,1,9.908-9.908l91.877-.6A38.424,38.424,0,0,1,113.392,3.475Z" transform="translate(-3.5 -3.438)" fill="#010101" fill-rule="evenodd" opacity="0.988"/>
  </g>
  <g id="Grupo_1107670" data-name="Grupo 1107670" transform="translate(106.289 4.804)">
    <path id="Trazado_888597" data-name="Trazado 888597" d="M185.3,11.475q8.412-.15,16.814.3,13.732,5.092,10.809,19.516a17.457,17.457,0,0,1-4.8-1.2,13.055,13.055,0,0,0-4.2-3.9q-9.922-.151-19.817-.9l-3.6-10.209A17,17,0,0,1,185.3,11.475Z" transform="translate(-180.5 -11.438)" fill="#b07745" fill-rule="evenodd"/>
  </g>
  <g id="Grupo_1107671" data-name="Grupo 1107671" transform="translate(4.804 9.608)">
    <path id="Trazado_888598" data-name="Trazado 888598" d="M18.106,19.475q41.736-.15,83.47.3a13.007,13.007,0,0,0-2.4,3.9q-39.93.751-79.867.9a4.189,4.189,0,0,0-2.1,1.5q-1.494,50.068-.6,100.284a3.875,3.875,0,0,0,2.7,3.3l79.867.6a18.579,18.579,0,0,0,7.206,7.506q.3,1.8.6,3.6-.676,6.3-1.2,12.611-43.838.15-87.674-.3a10.81,10.81,0,0,1-6.305-6.906q-.6-60.351,0-120.7A14.42,14.42,0,0,1,18.106,19.475Z" transform="translate(-11.5 -19.437)" fill="#959ea9" fill-rule="evenodd"/>
  </g>
  <g id="Grupo_1107672" data-name="Grupo 1107672" transform="translate(95.936 10.246)">
    <path id="Trazado_888599" data-name="Trazado 888599" d="M168.808,20.5a22.924,22.924,0,0,1,2.7,10.209,19.136,19.136,0,0,0-2.7,3,17.457,17.457,0,0,1-4.8,1.2Q161.226,25.831,168.808,20.5Z" transform="translate(-163.259 -20.5)" fill="#ac7543" fill-rule="evenodd"/>
  </g>
  <g id="Grupo_1107673" data-name="Grupo 1107673" transform="translate(14.412 19.254)">
    <path id="Trazado_888600" data-name="Trazado 888600" d="M27.5,35.5h76.864q.4,4.223,1.2,8.407-3.946,9.187,4.2,14.712a8.809,8.809,0,0,0,4.8.9,12.688,12.688,0,0,0,5.4,8.107,2.636,2.636,0,0,0-.6,2.1q-15.388,3.224-19.516,18.616a77.167,77.167,0,0,0-.3,9.608h19.216a151.736,151.736,0,0,1-.6,18.916,1.65,1.65,0,0,1-2.1-.3,19.858,19.858,0,0,0-3.9-11.71q-7.78-5.24-12.31,2.7a212.245,212.245,0,0,0,3.3,24.02H27.5Z" transform="translate(-27.5 -35.5)" fill="#68d5f3" fill-rule="evenodd"/>
  </g>
  <g id="Grupo_1107674" data-name="Grupo 1107674" transform="translate(19.178 24.036)">
    <path id="Trazado_888601" data-name="Trazado 888601" d="M49.286,43.486Q65.059,42.894,64,58.5A15.933,15.933,0,0,1,60.1,64.5q9.631,6.035,9.008,17.415H35.475q-.624-11.38,9.008-17.415Q34.28,50.993,49.286,43.486Z" transform="translate(-35.437 -43.464)" fill="#040505" fill-rule="evenodd"/>
  </g>
  <g id="Grupo_1107675" data-name="Grupo 1107675" transform="translate(105.678 24.02)">
    <path id="Trazado_888602" data-name="Trazado 888602" d="M180.694,43.475q10.814-.15,21.618.3l.9.9a135.2,135.2,0,0,1,0,18.015,15.347,15.347,0,0,1-3.3,3.9,53.373,53.373,0,0,1-15.613.6,15.342,15.342,0,0,1-3.9-3.3,46.562,46.562,0,0,1-.9-10.209q.15-4.5.3-9.008A2.587,2.587,0,0,0,180.694,43.475Z" transform="translate(-179.482 -43.438)" fill="#edcdb2" fill-rule="evenodd"/>
  </g>
  <g id="Grupo_1107676" data-name="Grupo 1107676" transform="translate(28.873 28.862)">
    <path id="Trazado_888603" data-name="Trazado 888603" d="M56.337,51.5q11.276,0,8.707,10.809-6.336,7.127-12.611,0Q49.569,55.132,56.337,51.5Z" transform="translate(-51.582 -51.5)" fill="#ebccb0" fill-rule="evenodd"/>
  </g>
  <g id="Grupo_1107677" data-name="Grupo 1107677" transform="translate(96.141 28.862)">
    <path id="Trazado_888604" data-name="Trazado 888604" d="M166.542,51.5h1.8v9.608q-5.812-.8-4.5-6.606A6.616,6.616,0,0,1,166.542,51.5Z" transform="translate(-163.6 -51.5)" fill="#e6c7ac" fill-rule="evenodd"/>
  </g>
  <g id="Grupo_1107678" data-name="Grupo 1107678" transform="translate(134.513 28.862)">
    <path id="Trazado_888605" data-name="Trazado 888605" d="M227.5,51.5q6.715,1.42,3.9,7.807a5.147,5.147,0,0,1-3.9,1.8Z" transform="translate(-227.5 -51.5)" fill="#e4c6ab" fill-rule="evenodd"/>
  </g>
  <g id="Grupo_1107679" data-name="Grupo 1107679" transform="translate(110.493 35.467)">
    <path id="Trazado_888606" data-name="Trazado 888606" d="M199.51,62.5a5.409,5.409,0,0,1,4.2,2.1,9.983,9.983,0,0,1-7.206,5.4,67.819,67.819,0,0,1-9.008.3V65.5a67.819,67.819,0,0,0,9.008-.3A6.584,6.584,0,0,0,199.51,62.5Z" transform="translate(-187.5 -62.5)" fill="#040403" fill-rule="evenodd"/>
  </g>
  <g id="Grupo_1107680" data-name="Grupo 1107680" transform="translate(57.648 38.47)">
    <path id="Trazado_888607" data-name="Trazado 888607" d="M99.5,67.5h9.608v4.8H99.5Z" transform="translate(-99.5 -67.5)" fill-rule="evenodd"/>
  </g>
  <g id="Grupo_1107681" data-name="Grupo 1107681" transform="translate(72.06 38.47)">
    <path id="Trazado_888608" data-name="Trazado 888608" d="M123.5,67.5h9.608v4.8H123.5Z" transform="translate(-123.5 -67.5)" fill-rule="evenodd"/>
  </g>
  <g id="Grupo_1107682" data-name="Grupo 1107682" transform="translate(57.648 48.078)">
    <path id="Trazado_888609" data-name="Trazado 888609" d="M99.5,83.5h24.02v4.8H99.5Z" transform="translate(-99.5 -83.5)" fill-rule="evenodd"/>
  </g>
  <g id="Grupo_1107683" data-name="Grupo 1107683" transform="translate(24.02 47.984)">
    <path id="Trazado_888610" data-name="Trazado 888610" d="M52.508,83.438Q63.618,82.4,67.52,92.745q-12.01.6-24.02,0A13.973,13.973,0,0,1,52.508,83.438Z" transform="translate(-43.5 -83.344)" fill="#f6d26d" fill-rule="evenodd"/>
  </g>
  <g id="Grupo_1107684" data-name="Grupo 1107684" transform="translate(111.072 52.882)">
    <path id="Trazado_888611" data-name="Trazado 888611" d="M188.486,91.5H201.7a2.963,2.963,0,0,1-.3,1.8,73.152,73.152,0,0,1-6.305,4.8l-5.4-3.9A2.76,2.76,0,0,1,188.486,91.5Z" transform="translate(-188.464 -91.5)" fill="#e9caae" fill-rule="evenodd"/>
  </g>
  <g id="Grupo_1107685" data-name="Grupo 1107685" transform="translate(57.648 57.686)">
    <path id="Trazado_888612" data-name="Trazado 888612" d="M99.5,99.5h14.412v4.8H99.5Z" transform="translate(-99.5 -99.5)" fill-rule="evenodd"/>
  </g>
  <g id="Grupo_1107686" data-name="Grupo 1107686" transform="translate(104.488 58.186)">
    <path id="Trazado_888613" data-name="Trazado 888613" d="M177.5,100.434a7.734,7.734,0,0,1,7.807,3.3,20.8,20.8,0,0,1-5.1,2.7A40.1,40.1,0,0,1,177.5,100.434Z" transform="translate(-177.5 -100.334)" fill="#ec674c" fill-rule="evenodd"/>
  </g>
  <g id="Grupo_1107687" data-name="Grupo 1107687" transform="translate(123.103 57.686)">
    <path id="Trazado_888614" data-name="Trazado 888614" d="M212.7,99.5a6.472,6.472,0,0,1,3.6,1.2l-2.7,5.4a20.8,20.8,0,0,1-5.1-2.7A14.468,14.468,0,0,0,212.7,99.5Z" transform="translate(-208.5 -99.5)" fill="#e9654a" fill-rule="evenodd"/>
  </g>
  <g id="Grupo_1107688" data-name="Grupo 1107688" transform="translate(91.277 60.688)">
    <path id="Trazado_888615" data-name="Trazado 888615" d="M163.907,104.5a47.349,47.349,0,0,1,4.5,9.008q.6,1.2,1.2,0a43.454,43.454,0,0,1,.3,7.206H155.5A21.7,21.7,0,0,1,163.907,104.5Z" transform="translate(-155.5 -104.5)" fill="#f66b4f" fill-rule="evenodd"/>
  </g>
  <g id="Grupo_1107689" data-name="Grupo 1107689" transform="translate(119.155 60.688)">
    <path id="Trazado_888616" data-name="Trazado 888616" d="M217.883,104.5a19.938,19.938,0,0,1,9.008,16.214h-24.02a67.841,67.841,0,0,0-.3-9.008,1.767,1.767,0,0,1-.3-2.4q5.33,2.577,10.809,4.8A53.876,53.876,0,0,0,217.883,104.5Z" transform="translate(-201.925 -104.5)" fill="#f76b4f" fill-rule="evenodd"/>
  </g>
  <g id="Grupo_1107690" data-name="Grupo 1107690" transform="translate(91.277 67.247)">
    <path id="Trazado_888617" data-name="Trazado 888617" d="M175.917,115.469a3.467,3.467,0,0,1,3.3,1.2q.45,18.613.3,37.231h4.8q-.15-11.413.3-22.819,2.1-2.4,4.2,0,.45,11.405.3,22.819h4.8q-.15-9.013.3-18.015,2.1-2.4,4.2,0,.45,9,.3,18.015h4.8q-.149-6.612.3-13.211,2.1-2.4,4.2,0a163.559,163.559,0,0,1,0,19.817,23.232,23.232,0,0,1-7.506,12.31q-16.514.6-33.028,0a17.614,17.614,0,0,1-8.707-12.31q-1.506-9.489-3.3-18.916a2.659,2.659,0,0,1,2.4-2.1,6.513,6.513,0,0,1,3.3,2.4,44.894,44.894,0,0,0,1.8,9.008q5.373,5.913,10.809,0,1.167-17.056,1.2-34.229A2.586,2.586,0,0,0,175.917,115.469Z" transform="translate(-155.5 -115.421)" fill="#eeceb3" fill-rule="evenodd"/>
  </g>
  <g id="Grupo_1107691" data-name="Grupo 1107691" transform="translate(19.178 72.076)">
    <path id="Trazado_888618" data-name="Trazado 888618" d="M49.286,123.486Q65.059,122.894,64,138.5a15.936,15.936,0,0,1-3.9,6.005q9.631,6.035,9.008,17.415H35.475q-.624-11.38,9.008-17.415Q34.28,130.993,49.286,123.486Z" transform="translate(-35.437 -123.464)" fill="#040505" fill-rule="evenodd"/>
  </g>
  <g id="Grupo_1107692" data-name="Grupo 1107692" transform="translate(28.873 76.902)">
    <path id="Trazado_888619" data-name="Trazado 888619" d="M56.337,131.5q11.276,0,8.707,10.809-6.336,7.128-12.611,0Q49.569,135.132,56.337,131.5Z" transform="translate(-51.582 -131.5)" fill="#ebccb0" fill-rule="evenodd"/>
  </g>
  <g id="Grupo_1107693" data-name="Grupo 1107693" transform="translate(57.648 86.51)">
    <path id="Trazado_888620" data-name="Trazado 888620" d="M99.5,147.5h9.608v4.8H99.5Z" transform="translate(-99.5 -147.5)" fill-rule="evenodd"/>
  </g>
  <g id="Grupo_1107694" data-name="Grupo 1107694" transform="translate(72.06 86.51)">
    <path id="Trazado_888621" data-name="Trazado 888621" d="M123.5,147.5h9.608v4.8H123.5Z" transform="translate(-123.5 -147.5)" fill-rule="evenodd"/>
  </g>
  <g id="Grupo_1107695" data-name="Grupo 1107695" transform="translate(57.648 96.118)">
    <path id="Trazado_888622" data-name="Trazado 888622" d="M99.5,163.5h24.02v4.8H99.5Z" transform="translate(-99.5 -163.5)" fill-rule="evenodd"/>
  </g>
  <g id="Grupo_1107696" data-name="Grupo 1107696" transform="translate(24.02 96.024)">
    <path id="Trazado_888623" data-name="Trazado 888623" d="M52.508,163.437q11.11-1.034,15.013,9.308-12.01.6-24.02,0A13.973,13.973,0,0,1,52.508,163.437Z" transform="translate(-43.5 -163.343)" fill="#e1e4e8" fill-rule="evenodd"/>
  </g>
  <g id="Grupo_1107697" data-name="Grupo 1107697" transform="translate(57.648 105.726)">
    <path id="Trazado_888624" data-name="Trazado 888624" d="M99.5,179.5h14.412v4.8H99.5Z" transform="translate(-99.5 -179.5)" fill-rule="evenodd"/>
  </g>
  <g id="Grupo_1107698" data-name="Grupo 1107698" transform="translate(43.236 124.848)">
    <path id="Trazado_888625" data-name="Trazado 888625" d="M78.5,211.437a169.71,169.71,0,0,1,24.02.9,4.19,4.19,0,0,1,1.5,2.1,22.143,22.143,0,0,1-.6,9.608,4.231,4.231,0,0,1-2.7,1.5,117.78,117.78,0,0,1-23.42-.6,4.232,4.232,0,0,1-1.5-2.7,25.521,25.521,0,0,1,0-7.807A6.615,6.615,0,0,1,78.5,211.437Z" transform="translate(-75.5 -211.343)" fill="#010202" fill-rule="evenodd"/>
  </g>
  <g id="Grupo_1107699" data-name="Grupo 1107699" transform="translate(48.04 129.746)">
    <path id="Trazado_888626" data-name="Trazado 888626" d="M83.5,219.5h19.216v4.8H83.5Z" transform="translate(-83.5 -219.5)" fill="#e5e9ec" fill-rule="evenodd"/>
  </g>
  <g id="Grupo_1107700" data-name="Grupo 1107700" transform="translate(103.887 129.746)">
    <path id="Trazado_888627" data-name="Trazado 888627" d="M177.7,219.5h30.025q.452,7.22,1.2,14.412H176.5Q176.952,226.692,177.7,219.5Z" transform="translate(-176.5 -219.5)" fill="#b3db7e" fill-rule="evenodd"/>
  </g>
</svg>
