<svg xmlns="http://www.w3.org/2000/svg" width="120" height="111" viewBox="0 0 120 111">
  <g id="Grupo_1108013" data-name="Grupo 1108013" transform="translate(-370.051 -4393)">
    <g id="Rectángulo_401341" data-name="Rectángulo 401341" transform="translate(370.051 4393)" fill="#d6c0fd" stroke="#fff" stroke-width="3">
      <rect width="120" height="111" rx="12" stroke="none"/>
      <rect x="1.5" y="1.5" width="117" height="108" rx="10.5" fill="none"/>
    </g>
    <g id="answer_1739485" transform="translate(389.551 4410.986)">
      <g id="Grupo_1107434" data-name="Grupo 1107434" transform="translate(-0.5 -0.5)">
        <path id="Trazado_888361" data-name="Trazado 888361" d="M10.935-.5H63.4V4.881q9.083-.084,18.162.168A6.991,6.991,0,0,1,85.6,8.581v4.036a6.991,6.991,0,0,1-4.036,3.532q-9.08.252-18.162.168V31.788a10.843,10.843,0,0,1,3.363,1.345,21.1,21.1,0,0,1,2.018-3.027A22.1,22.1,0,0,1,74.166,40.2l4.709-1.009a54.52,54.52,0,0,1-1.85,15.135,6.305,6.305,0,0,1-4.2,3.7,13.408,13.408,0,0,1-4.877,5.718,2.926,2.926,0,0,0,.5,2.859q7.168,1.876,14.126,4.372A9.041,9.041,0,0,1,85.6,74.839V85.6H38.178V80.22H-.5V10.935Q5.386,5.386,10.935-.5Z" transform="translate(0.5 0.5)" fill="#040302" fill-rule="evenodd" opacity="0.98"/>
      </g>
      <g id="Grupo_1107435" data-name="Grupo 1107435" transform="translate(13.29 2.191)">
        <path id="Trazado_888362" data-name="Trazado 888362" d="M69.425,10.527q8.993-.5,18.162-.336V7.836H40.836A86.3,86.3,0,0,1,40.5,18.6V7.5H87.923v3.027Z" transform="translate(-40.5 -7.5)" fill="#9ea0a2" fill-rule="evenodd"/>
      </g>
      <g id="Grupo_1107436" data-name="Grupo 1107436" transform="translate(2.527 2.527)">
        <path id="Trazado_888363" data-name="Trazado 888363" d="M48.187,11.191q-5.511,2.419-10.763,5.381,5.147,2.826,10.426,5.381,9.161.5,18.5.336V36.752a48.363,48.363,0,0,0-9.754-.673,27.512,27.512,0,0,1,.673,3.363q-1.865-.256-3.7-.673a.963.963,0,0,0-1.009-.336,10.374,10.374,0,0,0,.336,3.7q.263,2.008.336,4.036a8.053,8.053,0,0,1-3.027-1.009A23.715,23.715,0,0,0,51.719,56.6Q52.9,59.3,54.073,61.977A8.607,8.607,0,0,0,57.437,64a9.779,9.779,0,0,0,4.541,5.381,4.093,4.093,0,0,1,0,3.2q-3.233.85-6.39,1.85V66.686h-44.4v13.79q16.818-.084,33.633.168a5.321,5.321,0,0,0-.336,2.523H8.5V19.6a86.3,86.3,0,0,0,10.763-.336A86.3,86.3,0,0,0,19.6,8.5h46.75v2.354Q57.181,10.688,48.187,11.191Z" transform="translate(-8.5 -8.5)" fill="#e2e5e9" fill-rule="evenodd"/>
      </g>
      <g id="Grupo_1107437" data-name="Grupo 1107437" transform="translate(4.545 4.545)">
        <path id="Trazado_888364" data-name="Trazado 888364" d="M20.218,14.5a27.443,27.443,0,0,1,.336,6.054,54.629,54.629,0,0,1-6.054-.168Q17.461,17.509,20.218,14.5Z" transform="translate(-14.5 -14.5)" fill="#fe816d" fill-rule="evenodd"/>
      </g>
      <g id="Grupo_1107438" data-name="Grupo 1107438" transform="translate(16.317 4.84)">
        <path id="Trazado_888365" data-name="Trazado 888365" d="M49.5,15.755a91.769,91.769,0,0,1,11.1-.336,7.013,7.013,0,0,1-.336,3.027V15.755Z" transform="translate(-49.5 -15.378)" fill="#747577" fill-rule="evenodd"/>
      </g>
      <g id="Grupo_1107439" data-name="Grupo 1107439" transform="translate(16.317 5.218)">
        <path id="Trazado_888366" data-name="Trazado 888366" d="M49.5,16.5H60.263v2.354H49.5Z" transform="translate(-49.5 -16.5)" fill-rule="evenodd"/>
      </g>
      <g id="Grupo_1107440" data-name="Grupo 1107440" transform="translate(15.943 5.218)">
        <path id="Trazado_888367" data-name="Trazado 888367" d="M48.763,16.5v2.354H59.526v.336h-11.1A5.584,5.584,0,0,1,48.763,16.5Z" transform="translate(-48.39 -16.5)" fill="#3e4041" fill-rule="evenodd"/>
      </g>
      <g id="Grupo_1107441" data-name="Grupo 1107441" transform="translate(43.896 7.908)">
        <path id="Trazado_888368" data-name="Trazado 888368" d="M131.5,24.5h22.2v5.381H131.5Z" transform="translate(-131.5 -24.5)" fill="#ce9d75" fill-rule="evenodd"/>
      </g>
      <g id="Grupo_1107442" data-name="Grupo 1107442" transform="translate(68.785 7.908)">
        <path id="Trazado_888369" data-name="Trazado 888369" d="M205.5,24.5h3.027v5.381H205.5Z" transform="translate(-205.5 -24.5)" fill="#a6cb75" fill-rule="evenodd"/>
      </g>
      <g id="Grupo_1107443" data-name="Grupo 1107443" transform="translate(74.503 7.887)">
        <path id="Trazado_888370" data-name="Trazado 888370" d="M222.5,24.459q3.368-.084,6.727.168,3.309,2.48,0,5.045-3.359.252-6.727.168Z" transform="translate(-222.5 -24.438)" fill="#fbe6a4" fill-rule="evenodd"/>
      </g>
      <g id="Grupo_1107444" data-name="Grupo 1107444" transform="translate(37.506 8.917)">
        <path id="Trazado_888371" data-name="Trazado 888371" d="M115.191,27.5H116.2a20.493,20.493,0,0,1-.168,3.7q-1.807-.945-3.532-2.018Q113.878,28.328,115.191,27.5Z" transform="translate(-112.5 -27.5)" fill="#ebd79a" fill-rule="evenodd"/>
      </g>
      <g id="Grupo_1107445" data-name="Grupo 1107445" transform="translate(16.317 10.599)">
        <path id="Trazado_888372" data-name="Trazado 888372" d="M60.263,32.5v2.691H49.5V32.5Z" transform="translate(-49.5 -32.5)" fill-rule="evenodd"/>
      </g>
      <g id="Grupo_1107446" data-name="Grupo 1107446" transform="translate(16.317 10.599)">
        <path id="Trazado_888373" data-name="Trazado 888373" d="M60.263,32.5a7.013,7.013,0,0,1,.336,3.027,91.769,91.769,0,0,1-11.1-.336H60.263Z" transform="translate(-49.5 -32.5)" fill="#989a9d" fill-rule="evenodd"/>
      </g>
      <g id="Grupo_1107447" data-name="Grupo 1107447" transform="translate(2.149 13.29)">
        <path id="Trazado_888374" data-name="Trazado 888374" d="M18.516,40.5a86.3,86.3,0,0,1-10.763.336V104.4q-.5-31.866-.336-63.9Z" transform="translate(-7.375 -40.5)" fill="#a9acaf" fill-rule="evenodd"/>
      </g>
      <g id="Grupo_1107448" data-name="Grupo 1107448" transform="translate(5.099 16.309)">
        <path id="Trazado_888375" data-name="Trazado 888375" d="M18.621,49.485q7.529-.233,4.877,6.727a5.109,5.109,0,0,1-4.877,1.177,4.3,4.3,0,0,1-2.186-5.55A7.363,7.363,0,0,1,18.621,49.485Z" transform="translate(-16.148 -49.477)" fill="#080807" fill-rule="evenodd"/>
      </g>
      <g id="Grupo_1107449" data-name="Grupo 1107449" transform="translate(16.316 16.309)">
        <path id="Trazado_888376" data-name="Trazado 888376" d="M51.854,49.485q7.529-.233,4.877,6.727-3.231,2.66-6.39,0Q48.091,52.091,51.854,49.485Z" transform="translate(-49.499 -49.477)" fill="#070706" fill-rule="evenodd"/>
      </g>
      <g id="Grupo_1107450" data-name="Grupo 1107450" transform="translate(27.415 16.308)">
        <path id="Trazado_888377" data-name="Trazado 888377" d="M84.854,49.482q7.519-.256,4.877,6.727-3.231,2.66-6.39,0Q81.091,52.088,84.854,49.482Z" transform="translate(-82.499 -49.473)" fill="#080706" fill-rule="evenodd"/>
      </g>
      <g id="Grupo_1107451" data-name="Grupo 1107451" transform="translate(41.878 15.98)">
        <path id="Trazado_888378" data-name="Trazado 888378" d="M125.5,48.5h18.835q.166,7.488-.336,14.8V48.836Q134.661,49,125.5,48.5Z" transform="translate(-125.5 -48.5)" fill="#898b8e" fill-rule="evenodd"/>
      </g>
      <g id="Grupo_1107452" data-name="Grupo 1107452" transform="translate(7.958 19.007)">
        <path id="Trazado_888379" data-name="Trazado 888379" d="M25.271,57.5q3.021.083,1.345,2.523Q23.54,60.1,25.271,57.5Z" transform="translate(-24.648 -57.5)" fill="#f4d06c" fill-rule="evenodd"/>
      </g>
      <g id="Grupo_1107453" data-name="Grupo 1107453" transform="translate(19.057 19.007)">
        <path id="Trazado_888380" data-name="Trazado 888380" d="M58.271,57.5q3.021.083,1.345,2.523Q56.54,60.1,58.271,57.5Z" transform="translate(-57.648 -57.5)" fill="#f4d06c" fill-rule="evenodd"/>
      </g>
      <g id="Grupo_1107454" data-name="Grupo 1107454" transform="translate(30.156 19.007)">
        <path id="Trazado_888381" data-name="Trazado 888381" d="M91.271,57.5q3.021.083,1.345,2.523Q89.54,60.1,91.271,57.5Z" transform="translate(-90.648 -57.5)" fill="#f4d06c" fill-rule="evenodd"/>
      </g>
      <g id="Grupo_1107455" data-name="Grupo 1107455" transform="translate(5.099 27.408)">
        <path id="Trazado_888382" data-name="Trazado 888382" d="M18.621,82.485q7.529-.233,4.877,6.727a5.11,5.11,0,0,1-4.877,1.177,4.3,4.3,0,0,1-2.186-5.55A7.363,7.363,0,0,1,18.621,82.485Z" transform="translate(-16.148 -82.477)" fill="#080807" fill-rule="evenodd"/>
      </g>
      <g id="Grupo_1107456" data-name="Grupo 1107456" transform="translate(16.27 27.408)">
        <path id="Trazado_888383" data-name="Trazado 888383" d="M51.762,82.485q7.529-.233,4.877,6.727-3.542,2.838-6.727-.336Q48.211,84.829,51.762,82.485Z" transform="translate(-49.362 -82.477)" fill="#080706" fill-rule="evenodd"/>
      </g>
      <g id="Grupo_1107457" data-name="Grupo 1107457" transform="translate(27.415 27.408)">
        <path id="Trazado_888384" data-name="Trazado 888384" d="M84.854,82.485q7.529-.233,4.877,6.727-3.231,2.66-6.39,0Q81.091,85.091,84.854,82.485Z" transform="translate(-82.499 -82.477)" fill="#070706" fill-rule="evenodd"/>
      </g>
      <g id="Grupo_1107458" data-name="Grupo 1107458" transform="translate(7.958 30.106)">
        <path id="Trazado_888385" data-name="Trazado 888385" d="M25.271,90.5q3.021.083,1.345,2.523Q23.54,93.1,25.271,90.5Z" transform="translate(-24.648 -90.5)" fill="#f4d06c" fill-rule="evenodd"/>
      </g>
      <g id="Grupo_1107459" data-name="Grupo 1107459" transform="translate(19.057 30.106)">
        <path id="Trazado_888386" data-name="Trazado 888386" d="M58.271,90.5q3.021.083,1.345,2.523Q56.54,93.1,58.271,90.5Z" transform="translate(-57.648 -90.5)" fill="#f4d06c" fill-rule="evenodd"/>
      </g>
      <g id="Grupo_1107460" data-name="Grupo 1107460" transform="translate(30.156 30.106)">
        <path id="Trazado_888387" data-name="Trazado 888387" d="M91.271,90.5q3.021.083,1.345,2.523Q89.54,93.1,91.271,90.5Z" transform="translate(-90.648 -90.5)" fill="#f4d06c" fill-rule="evenodd"/>
      </g>
      <g id="Grupo_1107461" data-name="Grupo 1107461" transform="translate(46.548 32.436)">
        <path id="Trazado_888388" data-name="Trazado 888388" d="M140.433,97.787a4.614,4.614,0,0,0-.673,3.363,10.374,10.374,0,0,1-.336-3.7A.963.963,0,0,1,140.433,97.787Z" transform="translate(-139.385 -97.426)" fill="#5e5f61" fill-rule="evenodd"/>
      </g>
      <g id="Grupo_1107462" data-name="Grupo 1107462" transform="translate(47.183 32.797)">
        <path id="Trazado_888389" data-name="Trazado 888389" d="M148.413,98.5a29.079,29.079,0,0,1,10.426,2.523,18.217,18.217,0,0,1,3.2,2.523,9.031,9.031,0,0,1,1.177-2.018,13.456,13.456,0,0,1,2.691,8.408l4.036-1.009a11.82,11.82,0,0,1-.673,4.709,10.564,10.564,0,0,0-2.354-1.177,5,5,0,0,0-5.718-2.691l-5.045,2.523a26.5,26.5,0,0,0-6.39-2.691,4.886,4.886,0,0,0-4.372,2.859,6.58,6.58,0,0,0-3.2,1.85,9.912,9.912,0,0,1-.841-5.381,9.259,9.259,0,0,0,4.372,1.009,23.337,23.337,0,0,1-2.018-8.072l6.054,1.345Q149.188,100.825,148.413,98.5Z" transform="translate(-141.274 -98.5)" fill="#ae7644" fill-rule="evenodd"/>
      </g>
      <g id="Grupo_1107463" data-name="Grupo 1107463" transform="translate(5.099 38.507)">
        <path id="Trazado_888390" data-name="Trazado 888390" d="M18.621,115.485q7.529-.234,4.877,6.727a5.11,5.11,0,0,1-4.877,1.177,4.3,4.3,0,0,1-2.186-5.55A7.362,7.362,0,0,1,18.621,115.485Z" transform="translate(-16.148 -115.477)" fill="#080807" fill-rule="evenodd"/>
      </g>
      <g id="Grupo_1107464" data-name="Grupo 1107464" transform="translate(16.27 38.507)">
        <path id="Trazado_888391" data-name="Trazado 888391" d="M51.762,115.485q7.529-.234,4.877,6.727-3.542,2.838-6.727-.336Q48.211,117.829,51.762,115.485Z" transform="translate(-49.362 -115.477)" fill="#080707" fill-rule="evenodd"/>
      </g>
      <g id="Grupo_1107465" data-name="Grupo 1107465" transform="translate(27.415 38.507)">
        <path id="Trazado_888392" data-name="Trazado 888392" d="M84.854,115.485q7.529-.234,4.877,6.727-3.231,2.66-6.39,0Q81.091,118.091,84.854,115.485Z" transform="translate(-82.499 -115.477)" fill="#070706" fill-rule="evenodd"/>
      </g>
      <g id="Grupo_1107466" data-name="Grupo 1107466" transform="translate(7.958 41.205)">
        <path id="Trazado_888393" data-name="Trazado 888393" d="M25.271,123.5q3.021.083,1.345,2.523Q23.54,126.1,25.271,123.5Z" transform="translate(-24.648 -123.5)" fill="#f4d06c" fill-rule="evenodd"/>
      </g>
      <g id="Grupo_1107467" data-name="Grupo 1107467" transform="translate(19.057 41.205)">
        <path id="Trazado_888394" data-name="Trazado 888394" d="M58.271,123.5q3.021.083,1.345,2.523Q56.54,126.1,58.271,123.5Z" transform="translate(-57.648 -123.5)" fill="#f4d06c" fill-rule="evenodd"/>
      </g>
      <g id="Grupo_1107468" data-name="Grupo 1107468" transform="translate(30.156 41.205)">
        <path id="Trazado_888395" data-name="Trazado 888395" d="M91.271,123.5q3.021.083,1.345,2.523Q89.54,126.1,91.271,123.5Z" transform="translate(-90.648 -123.5)" fill="#f4d06c" fill-rule="evenodd"/>
      </g>
      <g id="Grupo_1107469" data-name="Grupo 1107469" transform="translate(53.149 46.587)">
        <path id="Trazado_888396" data-name="Trazado 888396" d="M160.858,139.5a32.512,32.512,0,0,1,7.063,3.027l5.718-2.859a2.118,2.118,0,0,1,2.523,1.177,48.492,48.492,0,0,1,0,8.072,25.742,25.742,0,0,1-1.345,3.027,19.375,19.375,0,0,1-7.063,4.372q-11.158-3.811-8.072-15.471A2.351,2.351,0,0,1,160.858,139.5Z" transform="translate(-159.012 -139.5)" fill="#ebccb0" fill-rule="evenodd"/>
      </g>
      <g id="Grupo_1107470" data-name="Grupo 1107470" transform="translate(5.099 49.606)">
        <path id="Trazado_888397" data-name="Trazado 888397" d="M18.621,148.485q7.529-.234,4.877,6.727a5.11,5.11,0,0,1-4.877,1.177,4.3,4.3,0,0,1-2.186-5.55A7.362,7.362,0,0,1,18.621,148.485Z" transform="translate(-16.148 -148.477)" fill="#080807" fill-rule="evenodd"/>
      </g>
      <g id="Grupo_1107471" data-name="Grupo 1107471" transform="translate(16.198 49.606)">
        <path id="Trazado_888398" data-name="Trazado 888398" d="M51.621,148.485q7.529-.234,4.877,6.727a5.11,5.11,0,0,1-4.877,1.177,4.3,4.3,0,0,1-2.186-5.55A7.362,7.362,0,0,1,51.621,148.485Z" transform="translate(-49.148 -148.477)" fill="#080807" fill-rule="evenodd"/>
      </g>
      <g id="Grupo_1107472" data-name="Grupo 1107472" transform="translate(27.369 49.606)">
        <path id="Trazado_888399" data-name="Trazado 888399" d="M84.762,148.485q7.529-.234,4.877,6.727-3.541,2.838-6.727-.336Q81.211,150.829,84.762,148.485Z" transform="translate(-82.362 -148.477)" fill="#080706" fill-rule="evenodd"/>
      </g>
      <g id="Grupo_1107473" data-name="Grupo 1107473" transform="translate(73.117 49.95)">
        <path id="Trazado_888400" data-name="Trazado 888400" d="M218.42,149.5a2.619,2.619,0,0,1,1.345,2.354,2.265,2.265,0,0,1-1.009,2.018A14.5,14.5,0,0,1,218.42,149.5Z" transform="translate(-218.379 -149.5)" fill="#e3d0be" fill-rule="evenodd"/>
      </g>
      <g id="Grupo_1107474" data-name="Grupo 1107474" transform="translate(49.637 49.95)">
        <path id="Trazado_888401" data-name="Trazado 888401" d="M149.555,149.5a11.262,11.262,0,0,1,.168,4.709A3.132,3.132,0,0,1,149.555,149.5Z" transform="translate(-148.569 -149.5)" fill="#e0cdbb" fill-rule="evenodd"/>
      </g>
      <g id="Grupo_1107475" data-name="Grupo 1107475" transform="translate(7.958 52.304)">
        <path id="Trazado_888402" data-name="Trazado 888402" d="M25.271,156.5q3.021.083,1.345,2.523Q23.54,159.1,25.271,156.5Z" transform="translate(-24.648 -156.5)" fill="#f4d06c" fill-rule="evenodd"/>
      </g>
      <g id="Grupo_1107476" data-name="Grupo 1107476" transform="translate(19.057 52.304)">
        <path id="Trazado_888403" data-name="Trazado 888403" d="M58.271,156.5q3.021.083,1.345,2.523Q56.54,159.1,58.271,156.5Z" transform="translate(-57.648 -156.5)" fill="#f4d06c" fill-rule="evenodd"/>
      </g>
      <g id="Grupo_1107477" data-name="Grupo 1107477" transform="translate(30.156 52.304)">
        <path id="Trazado_888404" data-name="Trazado 888404" d="M91.271,156.5q3.021.083,1.345,2.523Q89.54,159.1,91.271,156.5Z" transform="translate(-90.648 -156.5)" fill="#f4d06c" fill-rule="evenodd"/>
      </g>
      <g id="Grupo_1107478" data-name="Grupo 1107478" transform="translate(7.908 63.404)">
        <path id="Trazado_888405" data-name="Trazado 888405" d="M24.5,189.5H63.178v6.054a11.926,11.926,0,0,0-5.718,2.186q-16.48.252-32.961.168Z" transform="translate(-24.5 -189.5)" fill="#f5e1a0" fill-rule="evenodd"/>
      </g>
      <g id="Grupo_1107479" data-name="Grupo 1107479" transform="translate(59.367 65.422)">
        <path id="Trazado_888406" data-name="Trazado 888406" d="M182.545,195.5a2.216,2.216,0,0,1,.168,2.018,37.326,37.326,0,0,1-2.523,4.036,9.734,9.734,0,0,1-2.691-5.718A6.651,6.651,0,0,0,182.545,195.5Z" transform="translate(-177.5 -195.5)" fill="#ecd8c5" fill-rule="evenodd"/>
      </g>
      <g id="Grupo_1107480" data-name="Grupo 1107480" transform="translate(10.599 66.094)">
        <path id="Trazado_888407" data-name="Trazado 888407" d="M32.5,197.5h2.691v2.691H32.5Z" transform="translate(-32.5 -197.5)" fill="#090805" fill-rule="evenodd"/>
      </g>
      <g id="Grupo_1107481" data-name="Grupo 1107481" transform="translate(16.317 66.094)">
        <path id="Trazado_888408" data-name="Trazado 888408" d="M49.5,197.5H77.079v2.691H49.5Z" transform="translate(-49.5 -197.5)" fill="#080705" fill-rule="evenodd"/>
      </g>
      <g id="Grupo_1107482" data-name="Grupo 1107482" transform="translate(41.185 69.121)">
        <path id="Trazado_888409" data-name="Trazado 888409" d="M164.828,213.227v6.727h-7.063l-1.009-5.381a4.272,4.272,0,0,0-2.691.673,13.459,13.459,0,0,1,.673,3.7v1.009H133.549l.673-5.045a13.97,13.97,0,0,0-2.691-.336,22.042,22.042,0,0,1-1.009,5.55q-3.527.252-7.063.168-.084-3.7.168-7.4a5.38,5.38,0,0,1,3.532-2.859l12.108-3.532q2.4,3.972,5.045,7.736l4.877-7.736q6.98,2.037,13.958,4.2A3.9,3.9,0,0,1,164.828,213.227Z" transform="translate(-123.438 -206.5)" fill="#b1da7d" fill-rule="evenodd"/>
      </g>
      <g id="Grupo_1107483" data-name="Grupo 1107483" transform="translate(51.295 81.566)">
        <path id="Trazado_888410" data-name="Trazado 888410" d="M174.689,243.5a1.551,1.551,0,0,1,.336,1.345q-10.85.167-21.525-.336h21.189Z" transform="translate(-153.5 -243.5)" fill="#829f5b" fill-rule="evenodd"/>
      </g>
      <g id="Grupo_1107484" data-name="Grupo 1107484" transform="translate(75.512 75.848)">
        <path id="Trazado_888411" data-name="Trazado 888411" d="M232.563,226.5a37.272,37.272,0,0,1,.336,7.063,40.888,40.888,0,0,1-7.4-.336h7.063Z" transform="translate(-225.5 -226.5)" fill="#809e5a" fill-rule="evenodd"/>
      </g>
    </g>
  </g>
</svg>
