<svg xmlns="http://www.w3.org/2000/svg" width="120" height="111" viewBox="0 0 120 111">
  <g id="Grupo_1108014" data-name="Grupo 1108014" transform="translate(-680.051 -4393)">
    <g id="Rectángulo_401341" data-name="Rectángulo 401341" transform="translate(680.051 4393)" fill="#d6c0fd" stroke="#fff" stroke-width="3">
      <rect width="120" height="111" rx="12" stroke="none"/>
      <rect x="1.5" y="1.5" width="117" height="108" rx="10.5" fill="none"/>
    </g>
    <g id="test-tube_2759465" transform="translate(696.962 4405.838)">
      <g id="Grupo_1107831" data-name="Grupo 1107831" transform="translate(3.142 3.364)">
        <path id="Trazado_888758" data-name="Trazado 888758" d="M14.659,3.458a16.428,16.428,0,0,1,3.257.163,2.272,2.272,0,0,1,1.14.814L27.2,19.419q5.563,10.45-3.094,18.4a15.49,15.49,0,0,1-15.634,0q-7.555-6.382-4.4-15.8Q8.595,13.8,12.868,5.413A5.206,5.206,0,0,1,14.659,3.458Z" transform="translate(-3.142 -3.438)" fill="#030101" fill-rule="evenodd" opacity="0.924"/>
      </g>
      <g id="Grupo_1107832" data-name="Grupo 1107832" transform="translate(44.829 3.329)">
        <path id="Trazado_888759" data-name="Trazado 888759" d="M137.763,3.385a139.687,139.687,0,0,1,16.286.489,3.081,3.081,0,0,1,.489.814,20.918,20.918,0,0,1,0,5.211,2.258,2.258,0,0,1-2.443,1.3v7.817a17.5,17.5,0,0,1,6.84.814q2.186,1.453,4.234,3.094a8.494,8.494,0,0,1,1.629-1.14,47.211,47.211,0,0,1,5.537-.163V45.076a47.246,47.246,0,0,1-5.537-.163,8.5,8.5,0,0,1-1.629-1.14,22.042,22.042,0,0,1-6.189,3.746,36.8,36.8,0,0,1-4.886.163,58.907,58.907,0,0,1-.163,6.189q-3.265,6.451-9.934,3.42a7.3,7.3,0,0,1-2.769-3.42,58.911,58.911,0,0,1-.163-6.189q-7.043.119-4.56-6.514a5.536,5.536,0,0,1,0-5.211,10.519,10.519,0,0,1-.814-3.909,4.237,4.237,0,0,1-2.28-5.537,5.2,5.2,0,0,1,5.374-2.606,5.5,5.5,0,0,1,.326-4.4,3.289,3.289,0,0,1,1.954-.489V11.2a2.257,2.257,0,0,1-2.443-1.3,20.918,20.918,0,0,1,0-5.211A2.277,2.277,0,0,1,137.763,3.385Z" transform="translate(-131.127 -3.329)" fill="#010100" fill-rule="evenodd" opacity="0.977"/>
      </g>
      <g id="Grupo_1107833" data-name="Grupo 1107833" transform="translate(52.768 5.99)">
        <path id="Trazado_888760" data-name="Trazado 888760" d="M155.5,11.5h13.029v2.606H155.5Z" transform="translate(-155.5 -11.5)" fill="#fbd76f" fill-rule="evenodd"/>
      </g>
      <g id="Grupo_1107834" data-name="Grupo 1107834" transform="translate(5.865 5.984)">
        <path id="Trazado_888761" data-name="Trazado 888761" d="M21.271,11.487a1.751,1.751,0,0,1,1.791.977q4.11,8.057,8.469,15.96,2.963,9.788-6.351,13.843-12.242,2.25-13.68-10.1a8.96,8.96,0,0,1,.814-3.746Q16.93,20.006,21.271,11.487Z" transform="translate(-11.5 -11.48)" fill="#fb806c" fill-rule="evenodd"/>
      </g>
      <g id="Grupo_1107835" data-name="Grupo 1107835" transform="translate(55.373 11.202)">
        <path id="Trazado_888762" data-name="Trazado 888762" d="M163.5,27.5h7.817v7.817H163.5Z" transform="translate(-163.5 -27.5)" fill="#feeaa6" fill-rule="evenodd"/>
      </g>
      <g id="Grupo_1107836" data-name="Grupo 1107836" transform="translate(52.768 21.604)">
        <path id="Trazado_888763" data-name="Trazado 888763" d="M155.5,59.458q8.47-.081,16.937.163a16.879,16.879,0,0,1,6.189,4.071,86.34,86.34,0,0,1,0,14.983,29.507,29.507,0,0,1-5.211,3.746,14.951,14.951,0,0,1-4.886.489q-.082-8.145.163-16.286a10.037,10.037,0,0,0,7.654,1.954V65.972a8.429,8.429,0,0,1-8.469-3.746L157.129,61.9A2.5,2.5,0,0,1,155.5,59.458Z" transform="translate(-155.5 -59.438)" fill="#eeceb2" fill-rule="evenodd"/>
      </g>
      <g id="Grupo_1107837" data-name="Grupo 1107837" transform="translate(8.47 22.602)">
        <path id="Trazado_888764" data-name="Trazado 888764" d="M20.8,62.5a2.934,2.934,0,0,1,2.28,1.14q-2.435,4.324,1.3,7.491a4.389,4.389,0,0,0,2.931.814v2.606Q20,74.07,19.5,66.734A8.1,8.1,0,0,1,20.8,62.5Z" transform="translate(-19.5 -62.5)" fill="#0b0504" fill-rule="evenodd"/>
      </g>
      <g id="Grupo_1107838" data-name="Grupo 1107838" transform="translate(78.825 24.23)">
        <path id="Trazado_888765" data-name="Trazado 888765" d="M236.151,67.5h1.954V85.74a2.943,2.943,0,0,1-2.443-.651q-.326-8.468,0-16.937A1.4,1.4,0,0,0,236.151,67.5Z" transform="translate(-235.5 -67.5)" fill="#b3dc7e" fill-rule="evenodd"/>
      </g>
      <g id="Grupo_1107839" data-name="Grupo 1107839" transform="translate(47.576 26.836)">
        <path id="Trazado_888766" data-name="Trazado 888766" d="M140.192,75.5h4.56v2.606a32.062,32.062,0,0,1-4.56-.163A1.5,1.5,0,0,1,140.192,75.5Z" transform="translate(-139.561 -75.5)" fill="#edcdb1" fill-rule="evenodd"/>
      </g>
      <g id="Grupo_1107840" data-name="Grupo 1107840" transform="translate(55.336 26.836)">
        <path id="Trazado_888767" data-name="Trazado 888767" d="M163.422,75.5h7.817q.082,13.03-.163,26.057-1.924,3.572-5.7,2.117a8.322,8.322,0,0,1-1.791-2.117,15.872,15.872,0,0,1,.163-5.537q3.52-2.514,1.3-6.189a4.022,4.022,0,0,0,0-5.211q2.418-3.761-1.3-6.189A6.882,6.882,0,0,1,163.422,75.5Z" transform="translate(-163.384 -75.5)" fill="#fde8a5" fill-rule="evenodd"/>
      </g>
      <g id="Grupo_1107841" data-name="Grupo 1107841" transform="translate(50.182 32.027)">
        <path id="Trazado_888768" data-name="Trazado 888768" d="M148.192,91.458a23.6,23.6,0,0,1,3.909.163,1.323,1.323,0,0,1,0,2.28,11.806,11.806,0,0,1-3.909,0A1.5,1.5,0,0,1,148.192,91.458Z" transform="translate(-147.56 -91.438)" fill="#e9caaf" fill-rule="evenodd"/>
      </g>
      <g id="Grupo_1107842" data-name="Grupo 1107842" transform="translate(50.182 37.239)">
        <path id="Trazado_888769" data-name="Trazado 888769" d="M148.192,107.458a23.57,23.57,0,0,1,3.909.163,1.323,1.323,0,0,1,0,2.28,11.8,11.8,0,0,1-3.909,0A1.5,1.5,0,0,1,148.192,107.458Z" transform="translate(-147.56 -107.438)" fill="#e9caaf" fill-rule="evenodd"/>
      </g>
      <g id="Grupo_1107843" data-name="Grupo 1107843" transform="translate(3.239 42.415)">
        <path id="Trazado_888770" data-name="Trazado 888770" d="M7.366,123.384a139.663,139.663,0,0,1,16.286.489,3.083,3.083,0,0,1,.489.814,20.926,20.926,0,0,1,0,5.211,2.257,2.257,0,0,1-2.443,1.3v10.423h7.817V131.2a2.257,2.257,0,0,1-2.443-1.3,14.3,14.3,0,0,1,.326-5.863,3.081,3.081,0,0,1,.814-.489q7.817-.326,15.634,0a3.08,3.08,0,0,1,.814.489,14.3,14.3,0,0,1,.326,5.863,2.257,2.257,0,0,1-2.443,1.3v10.423q14.863-.236,29.64.489A5.811,5.811,0,0,1,73.65,143.9q.244,10.584.163,21.172H3.458q-.081-10.587.163-21.172a4.161,4.161,0,0,1,5.049-2.28V131.2a2.257,2.257,0,0,1-2.443-1.3,20.926,20.926,0,0,1,0-5.211A2.277,2.277,0,0,1,7.366,123.384Z" transform="translate(-3.438 -123.329)" fill-rule="evenodd" opacity="0.993"/>
      </g>
      <g id="Grupo_1107844" data-name="Grupo 1107844" transform="translate(50.182 42.45)">
        <path id="Trazado_888771" data-name="Trazado 888771" d="M148.192,123.458a23.571,23.571,0,0,1,3.909.163,1.323,1.323,0,0,1,0,2.28,11.8,11.8,0,0,1-3.909,0A1.5,1.5,0,0,1,148.192,123.458Z" transform="translate(-147.56 -123.438)" fill="#e9caaf" fill-rule="evenodd"/>
      </g>
      <g id="Grupo_1107845" data-name="Grupo 1107845" transform="translate(8.47 45.076)">
        <path id="Trazado_888772" data-name="Trazado 888772" d="M19.5,131.5H32.529v2.606H19.5Z" transform="translate(-19.5 -131.5)" fill="#fbd76f" fill-rule="evenodd"/>
      </g>
      <g id="Grupo_1107846" data-name="Grupo 1107846" transform="translate(29.316 45.076)">
        <path id="Trazado_888773" data-name="Trazado 888773" d="M83.5,131.5H96.529v2.606H83.5Z" transform="translate(-83.5 -131.5)" fill="#fbd76f" fill-rule="evenodd"/>
      </g>
      <g id="Grupo_1107847" data-name="Grupo 1107847" transform="translate(11.076 50.288)">
        <path id="Trazado_888774" data-name="Trazado 888774" d="M27.5,147.5h7.817v10.423H27.5Z" transform="translate(-27.5 -147.5)" fill="#feeaa6" fill-rule="evenodd"/>
      </g>
      <g id="Grupo_1107848" data-name="Grupo 1107848" transform="translate(31.922 50.288)">
        <path id="Trazado_888775" data-name="Trazado 888775" d="M91.5,147.5h7.817v10.423H91.5Z" transform="translate(-91.5 -147.5)" fill="#feeaa6" fill-rule="evenodd"/>
      </g>
      <g id="Grupo_1107849" data-name="Grupo 1107849" transform="translate(5.844 63.296)">
        <path id="Trazado_888776" data-name="Trazado 888776" d="M12.109,187.458h1.954q-.081,5.377.163,10.749,2.74,6.779,9.609,4.071a7.006,7.006,0,0,0,3.094-4.071q.244-5.372.163-10.749h7.817q-.081,5.377.163,10.749,2.74,6.779,9.609,4.071a7.007,7.007,0,0,0,3.094-4.071q.244-5.372.163-10.749,14.007-.082,28.012.163l.489.489q.244,8.793.163,17.589H11.458q-.081-8.8.163-17.589A1.4,1.4,0,0,0,12.109,187.458Z" transform="translate(-11.438 -187.437)" fill="#cbd0d8" fill-rule="evenodd"/>
      </g>
      <g id="Grupo_1107850" data-name="Grupo 1107850" transform="translate(11.056 63.316)">
        <path id="Trazado_888777" data-name="Trazado 888777" d="M27.458,187.5h7.817q.081,5.214-.163,10.423-1.924,3.572-5.7,2.117a8.321,8.321,0,0,1-1.791-2.117Q27.377,192.714,27.458,187.5Z" transform="translate(-27.438 -187.5)" fill="#fde8a5" fill-rule="evenodd"/>
      </g>
      <g id="Grupo_1107851" data-name="Grupo 1107851" transform="translate(31.902 63.316)">
        <path id="Trazado_888778" data-name="Trazado 888778" d="M91.458,187.5h7.817q.082,5.214-.163,10.423-1.924,3.572-5.7,2.117a8.321,8.321,0,0,1-1.791-2.117Q91.377,192.714,91.458,187.5Z" transform="translate(-91.438 -187.5)" fill="#fde8a5" fill-rule="evenodd"/>
      </g>
      <g id="Grupo_1107852" data-name="Grupo 1107852" transform="translate(55.373 76.345)">
        <path id="Trazado_888779" data-name="Trazado 888779" d="M163.5,227.5h2.606v2.606H163.5Z" transform="translate(-163.5 -227.5)" fill-rule="evenodd"/>
      </g>
      <g id="Grupo_1107853" data-name="Grupo 1107853" transform="translate(60.585 76.345)">
        <path id="Trazado_888780" data-name="Trazado 888780" d="M179.5,227.5h2.606v2.606H179.5Z" transform="translate(-179.5 -227.5)" fill-rule="evenodd"/>
      </g>
      <g id="Grupo_1107854" data-name="Grupo 1107854" transform="translate(65.796 76.345)">
        <path id="Trazado_888781" data-name="Trazado 888781" d="M195.5,227.5h2.606v2.606H195.5Z" transform="translate(-195.5 -227.5)" fill-rule="evenodd"/>
      </g>
    </g>
  </g>
</svg>
