<svg xmlns="http://www.w3.org/2000/svg" xmlns:xlink="http://www.w3.org/1999/xlink" width="401.635" height="317.076" viewBox="0 0 401.635 317.076">
  <defs>
    <linearGradient id="linear-gradient" x1="0.571" y1="1.795" x2="0.493" y2="0.379" gradientUnits="objectBoundingBox">
      <stop offset="0" stop-color="#d1d7e0"/>
      <stop offset="1" stop-color="#ebebff"/>
    </linearGradient>
    <linearGradient id="linear-gradient-2" x1="0.5" y1="1.147" x2="0.5" y2="0.24" xlink:href="#linear-gradient"/>
    <linearGradient id="linear-gradient-3" x1="0.5" y1="2.165" x2="0.5" y2="0.322" xlink:href="#linear-gradient"/>
    <linearGradient id="linear-gradient-4" x1="-34.651" y1="0.5" x2="-33.651" y2="0.5" gradientUnits="objectBoundingBox">
      <stop offset="0" stop-color="#3076a1"/>
      <stop offset="1" stop-color="#48c9b6"/>
    </linearGradient>
    <linearGradient id="linear-gradient-5" x1="-17.756" y1="0.5" x2="-16.756" y2="0.5" xlink:href="#linear-gradient-4"/>
    <linearGradient id="linear-gradient-6" x1="-23.761" y1="0.5" x2="-22.761" y2="0.5" xlink:href="#linear-gradient-4"/>
    <linearGradient id="linear-gradient-7" x1="-17.099" y1="0.5" x2="-16.099" y2="0.5" xlink:href="#linear-gradient-4"/>
    <linearGradient id="linear-gradient-8" x1="0.983" y1="0.962" x2="0.233" y2="0.108" xlink:href="#linear-gradient-4"/>
    <linearGradient id="linear-gradient-9" x1="0.079" y1="2.027" x2="0.485" y2="0.07" gradientUnits="objectBoundingBox">
      <stop offset="0" stop-color="#c9c4c1"/>
      <stop offset="1" stop-color="#fff6de"/>
    </linearGradient>
    <linearGradient id="linear-gradient-10" x1="-0.105" y1="0.5" x2="0.895" y2="0.5" xlink:href="#linear-gradient-9"/>
    <linearGradient id="linear-gradient-12" x1="0" y1="0.5" x2="1" y2="0.5" xlink:href="#linear-gradient"/>
    <linearGradient id="linear-gradient-14" x1="0" y1="0.5" x2="1" y2="0.5" xlink:href="#linear-gradient"/>
    <linearGradient id="linear-gradient-15" x1="0" y1="0.5" x2="1" y2="0.5" xlink:href="#linear-gradient"/>
    <linearGradient id="linear-gradient-17" x1="0" y1="0.5" x2="1" y2="0.5" xlink:href="#linear-gradient"/>
    <linearGradient id="linear-gradient-18" x1="0" y1="0.5" x2="1" y2="0.5" xlink:href="#linear-gradient"/>
    <linearGradient id="linear-gradient-20" x1="0" y1="0.5" x2="1" y2="0.5" xlink:href="#linear-gradient"/>
    <linearGradient id="linear-gradient-21" x1="0" y1="0.5" x2="1" y2="0.5" xlink:href="#linear-gradient"/>
  </defs>
  <g id="Grupo_1103859" data-name="Grupo 1103859" transform="translate(11527.769 6916.127)">
    <path id="Trazado_886312" data-name="Trazado 886312" d="M1349.757,597.477h-78.542a11.236,11.236,0,0,1-11.236-11.235V507.7a11.236,11.236,0,0,1,11.236-11.235h78.541a11.235,11.235,0,0,1,11.235,11.235v78.541A11.235,11.235,0,0,1,1349.757,597.477Z" transform="translate(-12641.988 -7368.05)" opacity="0.95" fill="url(#linear-gradient)"/>
    <rect id="Rectángulo_403354" data-name="Rectángulo 403354" width="46.766" height="2.31" transform="translate(-11354.886 -6793.57)" fill="#96bfe6"/>
    <rect id="Rectángulo_403355" data-name="Rectángulo 403355" width="33.519" height="2.31" transform="translate(-11348.262 -6786.291)" fill="#96bfe6"/>
    <path id="Trazado_886313" data-name="Trazado 886313" d="M1999.231,841.671H1887.457a13.236,13.236,0,0,1-13.236-13.236v-135.8a13.236,13.236,0,0,1,13.236-13.236h111.774a13.236,13.236,0,0,1,13.236,13.236v135.8A13.236,13.236,0,0,1,1999.231,841.671Z" transform="translate(-13138.601 -7515.955)" opacity="0.95" fill="url(#linear-gradient-2)"/>
    <g id="Grupo_1103717" data-name="Grupo 1103717" transform="translate(-11201.698 -6740.823)">
      <rect id="Rectángulo_403356" data-name="Rectángulo 403356" width="10.965" height="2.031" transform="translate(0 0)" fill="#4598e6"/>
    </g>
    <g id="Grupo_1103718" data-name="Grupo 1103718" transform="translate(-11243.325 -6722.214)">
      <rect id="Rectángulo_403357" data-name="Rectángulo 403357" width="63.802" height="3.931" transform="translate(0 0)" fill="#96bfe6"/>
      <rect id="Rectángulo_403358" data-name="Rectángulo 403358" width="51.594" height="3.932" transform="translate(0 18.875)" fill="#96bfe6"/>
      <rect id="Rectángulo_403359" data-name="Rectángulo 403359" width="30.246" height="3.932" transform="translate(0 9.437)" fill="#96bfe6"/>
    </g>
    <g id="Grupo_1103719" data-name="Grupo 1103719" transform="translate(-11242.228 -6820.37)">
      <path id="Trazado_886314" data-name="Trazado 886314" d="M2069.286,763.9v1.986h11.692V776.86h1.985V763.9Zm-79.394,12.958h1.986V765.888h11.692V763.9h-13.677Zm91.085,56.62v10.977h-11.692v1.986h13.677V833.48h-1.985Zm-89.1,0h-1.986v12.963h13.677v-1.986h-11.692Z" transform="translate(-1989.891 -763.902)" fill="#4598e6"/>
    </g>
    <g id="Grupo_1103722" data-name="Grupo 1103722" transform="translate(-11167.037 -6722.504)">
      <g id="Grupo_1103720" data-name="Grupo 1103720" transform="translate(0 0)">
        <path id="Trazado_886315" data-name="Trazado 886315" d="M2394.216,1298.321a11.693,11.693,0,1,1,11.693-11.693A11.706,11.706,0,0,1,2394.216,1298.321Zm0-21.121a9.429,9.429,0,1,0,9.429,9.43A9.44,9.44,0,0,0,2394.216,1277.2Z" transform="translate(-2382.523 -1274.936)" fill="#4598e6"/>
      </g>
      <g id="Grupo_1103721" data-name="Grupo 1103721" transform="translate(5.635 7.891)">
        <path id="Trazado_886316" data-name="Trazado 886316" d="M2417.262,1324.545l-5.312-5.312,1.6-1.6,3.713,3.711,5.2-5.2,1.6,1.6Z" transform="translate(-2411.95 -1316.14)" fill="#4598e6"/>
      </g>
    </g>
    <path id="Trazado_886317" data-name="Trazado 886317" d="M878.3,1835.732c0,4.9-84.944,8.88-189.728,8.88s-189.728-3.976-189.728-8.88,84.944-8.88,189.728-8.88S878.3,1830.829,878.3,1835.732Z" transform="translate(-12026.611 -8443.662)" fill="#eadffe"/>
    <rect id="Rectángulo_403360" data-name="Rectángulo 403360" width="68.085" height="58.417" transform="translate(-11365.545 -6867.808)" opacity="0.95" fill="url(#linear-gradient-3)"/>
    <g id="Grupo_1103727" data-name="Grupo 1103727" transform="translate(-11365.786 -6876.259)">
      <path id="Trazado_886318" data-name="Trazado 886318" d="M1404.98,647.189c-2.242-5.932-7.629-8.655-10.172-9.5-.906-.3-2.523-.829-4.227-1.38-3.071-.992-6.426-2.072-6.426-2.072h-10.6s-3.669,1.23-7.569,2.6a0,0,0,0,1,0,0c-3.592,1.26-7.375,2.633-8.652,3.275-2.663,1.33-7.145,10.837-8.05,11.927a83.906,83.906,0,0,0-4.592,8.4h11.416c1.207-2.072,2.135-3.679,2.135-3.679s.722,1.584,1.6,3.679h36.573c.578-2.433.939-5.5.939-5.5s1.958,2.663,4.1,5.5h10.54C1409.425,656.135,1406.244,650.537,1404.98,647.189Z" transform="translate(-1344.691 -603.176)" fill="#385369"/>
      <g id="Grupo_1103723" data-name="Grupo 1103723" transform="translate(25.513 1.86)">
        <path id="Trazado_886319" data-name="Trazado 886319" d="M1487.831,481.849s8.286,1.305,7.024,14.269-8.574,11.9-9.063,11.888-7.341.236-7.875-15.591C1477.917,492.414,1477.683,480.71,1487.831,481.849Z" transform="translate(-1477.916 -481.771)" fill="#eea886"/>
      </g>
      <g id="Grupo_1103724" data-name="Grupo 1103724" transform="translate(42.099 12.118)">
        <path id="Trazado_886320" data-name="Trazado 886320" d="M1565,535.763s.907-.969,1.24.012-1.238,5.357-1.294,5.561c0,0-.166.38-.383.171S1565,535.763,1565,535.763Z" transform="translate(-1564.522 -535.336)" fill="#eea886"/>
      </g>
      <g id="Grupo_1103725" data-name="Grupo 1103725" transform="translate(24.441 11.939)">
        <path id="Trazado_886321" data-name="Trazado 886321" d="M1473.615,534.844s-.889-.986-1.24-.012,1.12,5.379,1.186,5.586c0,0,.158.384.38.179S1473.615,534.844,1473.615,534.844Z" transform="translate(-1472.32 -534.402)" fill="#eea886"/>
      </g>
      <g id="Grupo_1103726" data-name="Grupo 1103726" transform="translate(24.557)">
        <path id="Trazado_886322" data-name="Trazado 886322" d="M1490.943,486.592l-1.186,1.586a31.683,31.683,0,0,0-.157-4.022c-.19-.545-.482-2.211-.641-2.6s-7.115-2.342-13.26.569c0,0,.27,2.5-.319,2.723s-.3,4.072-.3,4.072l-.976-1.1s-1.493-9.974-1.124-11.013,1.543-7.29,14.149-3.579c0,0,3.93-.832,4.718,1.881S1490.943,486.592,1490.943,486.592Z" transform="translate(-1472.923 -472.058)" fill="#434343"/>
      </g>
      <path id="Trazado_886323" data-name="Trazado 886323" d="M1481.107,599.438c0-.012-1.063-.522-1.063-.522-.516-1.154-.133-6.024-.133-6.024s-10.553-2.686-10.252-.632-.909,6.825-.909,6.825l-5.414,2.688s5.768,15.488,12.4,13.49,9.132-14.048,9.132-14.048Z" transform="translate(-1440.616 -568.615)" fill="#eea886"/>
      <path id="Trazado_886324" data-name="Trazado 886324" d="M1497.15,606.447a6.257,6.257,0,0,0,4.651,2.195c1.941,0,3.335-.544,5.268-2.43a5.554,5.554,0,0,1-5.256,3.914S1498.611,610.533,1497.15,606.447Z" transform="translate(-1467.953 -580.521)" fill="#a77860"/>
    </g>
    <g id="Grupo_1103784" data-name="Grupo 1103784" transform="translate(-11399.938 -6799.665)">
      <g id="Grupo_1103732" data-name="Grupo 1103732" transform="translate(17.225)">
        <g id="Grupo_1103731" data-name="Grupo 1103731">
          <g id="Grupo_1103730" data-name="Grupo 1103730">
            <g id="Grupo_1103729" data-name="Grupo 1103729">
              <g id="Grupo_1103728" data-name="Grupo 1103728">
                <path id="Trazado_886325" data-name="Trazado 886325" d="M1271.959,873.355s6.089,2.978,4.583,11.08-2.172,9.194-.488,12.36,3.671,16.671,2.156,19.23-18.759-11.248-21.15-22.834,1.516-16.738,2.9-18.658S1266.584,870.627,1271.959,873.355Z" transform="translate(-1256.303 -872.018)" fill="#0e2d3d"/>
              </g>
            </g>
          </g>
        </g>
      </g>
      <g id="Grupo_1103733" data-name="Grupo 1103733" transform="translate(29.156 172.527)">
        <path id="Trazado_886326" data-name="Trazado 886326" d="M1320.033,1789.766h1.38v-6.508a18.483,18.483,0,0,1,4.405,4.3c1.7,2.494,4.033,2.282,7.589,2.123s3.4-1.592,3.078-3.609-3.927-2.653-5.095-2.972-3.818-4.885-4.67-6a15.236,15.236,0,0,1-1.778-2.972s-.663-2.707-3.954,0-2.335,7.908-1.964,8.385S1320.033,1789.766,1320.033,1789.766Z" transform="translate(-1318.606 -1772.927)" fill="#163342"/>
      </g>
      <g id="Grupo_1103734" data-name="Grupo 1103734" transform="translate(30.792 173.017)">
        <path id="Trazado_886327" data-name="Trazado 886327" d="M1333.892,1785.165c1.221.8,4.4,0,4.4,0-.9-1.167-6.448-8.969-6.448-8.969-3.37-1.964-4.7.739-4.7.739C1328.522,1777.355,1332.672,1784.368,1333.892,1785.165Z" transform="translate(-1327.147 -1775.481)" fill="#eea886"/>
      </g>
      <g id="Grupo_1103738" data-name="Grupo 1103738" transform="translate(72.847 58.979)">
        <g id="Grupo_1103737" data-name="Grupo 1103737">
          <g id="Grupo_1103736" data-name="Grupo 1103736">
            <g id="Grupo_1103735" data-name="Grupo 1103735">
              <path id="Trazado_886328" data-name="Trazado 886328" d="M1546.928,1183.661s2.209.424,2.964-.615a7.213,7.213,0,0,1,2.56-1.77c.6-.28,2.136-1.83,2.5-1.073s-2.4,2.677-2.9,3.2,2.711.748,3.265,1.252-.127,5.8-2.312,5.387-4.247-2.295-4.646-2.291a13.6,13.6,0,0,1-1.6-.237Z" transform="translate(-1546.752 -1179.997)" fill="#eea886"/>
            </g>
          </g>
        </g>
      </g>
      <g id="Grupo_1103742" data-name="Grupo 1103742" transform="translate(79.198 63.417)">
        <g id="Grupo_1103741" data-name="Grupo 1103741">
          <g id="Grupo_1103740" data-name="Grupo 1103740">
            <g id="Grupo_1103739" data-name="Grupo 1103739">
              <path id="Trazado_886329" data-name="Trazado 886329" d="M1581.637,1203.17s6.6,1.706,6.95,2.188.231.835-.393.7-6.429-1.464-6.429-1.464,7.478,3.333,7.847,3.667c.216.2.036.891-.3.85s-7.942-2.921-7.942-2.921,6.977,3.125,7.2,3.5a.526.526,0,0,1-.661.725c-.533-.2-7.173-2.731-7.173-2.731s4.935,2.594,4.941,3.02c0,.261-.124.869-1.376.16s-4.383-2.072-4.383-2.072Z" transform="translate(-1579.917 -1203.17)" fill="#eea886"/>
            </g>
          </g>
        </g>
      </g>
      <g id="Grupo_1103743" data-name="Grupo 1103743" transform="translate(12.316 177.823)">
        <path id="Trazado_886330" data-name="Trazado 886330" d="M1231.06,1812.571h.849v-4.776a10.391,10.391,0,0,1,2.2,3.836c.69,2.282,3.16,2.959,6.928,2.853s3.821-1.594,3.5-3.823-3.5-3.4-3.5-3.4c-1.433-1.274-4.989-6.554-4.989-6.554a4.969,4.969,0,0,0-4.073.836c-1.791,1.446-1.234,4.711-1.181,5.56S1231.06,1812.571,1231.06,1812.571Z" transform="translate(-1230.671 -1800.582)" fill="#163342"/>
      </g>
      <g id="Grupo_1103744" data-name="Grupo 1103744" transform="translate(7.579 74.14)">
        <path id="Trazado_886331" data-name="Trazado 886331" d="M1213.66,1261.052a33.318,33.318,0,0,0-5.708,12.764c-1.218,6.926.719,30.172.666,33.595s-3.237,11.941-2.6,18.39,3.15,38.542,3.15,38.542l6.881-1.365s-.4-32.719,0-35.426,1.2-12.573,1.356-13.687,10.107-30.38,10.107-35.373S1224.486,1252.905,1213.66,1261.052Z" transform="translate(-1205.934 -1259.167)" fill="#1d3b54"/>
      </g>
      <g id="Grupo_1103745" data-name="Grupo 1103745" transform="translate(22.422 76.846)">
        <path id="Trazado_886332" data-name="Trazado 886332" d="M1298.881,1274.758s7.377,28.155,8.253,32.056,2.144,7.118,2.144,8.774a57.989,57.989,0,0,1-1.428,10.013l-9.368,44.8h-8.922s4.971-26.879,5.1-32.135,4.189-12.748,3.393-14.977-12.817-27.943-12.817-27.943S1276.14,1266.585,1298.881,1274.758Z" transform="translate(-1283.443 -1273.296)" fill="#1d3b54"/>
      </g>
      <g id="Grupo_1103746" data-name="Grupo 1103746" transform="translate(13.62 177.95)">
        <path id="Trazado_886333" data-name="Trazado 886333" d="M1246.542,1807.8l-4.989-6.554-4.073.836a18.473,18.473,0,0,0,3.076,5.141C1242.9,1809.834,1246.542,1807.8,1246.542,1807.8Z" transform="translate(-1237.48 -1801.244)" fill="#eea886"/>
      </g>
      <g id="Grupo_1103748" data-name="Grupo 1103748" transform="translate(32.135 30.461)">
        <g id="Grupo_1103747" data-name="Grupo 1103747">
          <path id="Trazado_886334" data-name="Trazado 886334" d="M1336.841,1031.08a9.206,9.206,0,0,1,5.34,2.749,35.243,35.243,0,0,1,5.057,7.7c.6,1.313,9.039,13.483,9.477,13.757s4.679,1.691,7.489,2.636c4.337,1.459,13.029,4.618,13.029,4.618l-1.726,5.466s-16.346-5.349-20.439-6.357c-5.006-1.233-16.529-16.017-16.529-16.017S1329.947,1035.567,1336.841,1031.08Z" transform="translate(-1334.162 -1031.08)" fill="#285173"/>
        </g>
      </g>
      <g id="Grupo_1103750" data-name="Grupo 1103750" transform="translate(8.39 28.122)">
        <g id="Grupo_1103749" data-name="Grupo 1103749">
          <path id="Trazado_886335" data-name="Trazado 886335" d="M1231.289,1019.071a41.2,41.2,0,0,0,5.308,2.134c1.368.274,6.676,7.168,7.606,9.685s0,6.292-1.915,10.725-.109,5.91-.985,10.342-.594,21.013-.43,23.475-25.612,6.195-30.7,1.708c0,0,3.445-14.943,7.524-19.208.882-.922.789-7.069.187-8.6s-7.387-12.968-7.387-12.968-.5-11.6,2.462-13.9c2.572-2,9.581-2.709,10.839-3.147A21.525,21.525,0,0,1,1231.289,1019.071Z" transform="translate(-1210.172 -1018.865)" fill="#ffbf55"/>
        </g>
      </g>
      <g id="Grupo_1103752" data-name="Grupo 1103752" transform="translate(22.016 18.39)">
        <g id="Grupo_1103751" data-name="Grupo 1103751">
          <path id="Trazado_886336" data-name="Trazado 886336" d="M1290.695,973.438s-.118,1.085-.254,2.551c-.052.58-.11,1.22-.162,1.876a44.317,44.317,0,0,0-.207,5.154s-4.1,4.1-8.75-4.788a12.218,12.218,0,0,0,.483-8.658C1280.333,964.579,1290.695,973.438,1290.695,973.438Z" transform="translate(-1281.323 -968.047)" fill="#eea886"/>
        </g>
      </g>
      <g id="Grupo_1103753" data-name="Grupo 1103753" transform="translate(40.904 41.964)">
        <path id="Trazado_886337" data-name="Trazado 886337" d="M1381.893,1101.689s.986-6.554-.062-10.541a25.454,25.454,0,0,1-1.879,8.295Z" transform="translate(-1379.951 -1091.149)" fill="#183c59"/>
      </g>
      <g id="Grupo_1103754" data-name="Grupo 1103754" transform="translate(18.869 28.472)">
        <path id="Trazado_886338" data-name="Trazado 886338" d="M1264.89,1021.428s2.816,8.318,10.548,7.706,3.665-7.023,3.665-7.023a17.085,17.085,0,0,0-2.469-1.209c-.542-.1-8.548-.206-8.548-.206Z" transform="translate(-1264.89 -1020.695)" fill="#eea886"/>
      </g>
      <g id="Grupo_1103755" data-name="Grupo 1103755" transform="translate(33.083 29.886)">
        <path id="Trazado_886339" data-name="Trazado 886339" d="M1339.11,1028.08s4.049,11.2,4.049,22.619.326,30.014,1.74,35.887,5.438,24.036,5.438,24.036l3.154-1.632s-7.584-28.987-8.157-31.077.435-24.172.979-26.021,2.857-10.079,2.5-12.363c-.453-2.878-3.147-7.137-7.5-10.8Z" transform="translate(-1339.11 -1028.08)" fill="#285173"/>
      </g>
      <g id="Grupo_1103756" data-name="Grupo 1103756" transform="translate(3.308 28.854)">
        <path id="Trazado_886340" data-name="Trazado 886340" d="M1200.723,1022.69a116.44,116.44,0,0,1,3.793,18.381c1.275,10.322-3.915,58.233-7.4,69.109L1183.634,1108s2.9-33.866,6.844-40.029,5.195-11.616.941-24.479,1.865-19.234,1.865-19.234S1199.541,1022.824,1200.723,1022.69Z" transform="translate(-1183.634 -1022.69)" fill="#285173"/>
      </g>
      <g id="Grupo_1103757" data-name="Grupo 1103757" transform="translate(0.418 52.126)">
        <path id="Trazado_886341" data-name="Trazado 886341" d="M1203.07,1155.116l-16.353,28.322-18.177-10.494,15.64-28.733Z" transform="translate(-1168.54 -1144.21)" fill="#616161"/>
      </g>
      <g id="Grupo_1103758" data-name="Grupo 1103758" transform="translate(2.31 54.32)">
        <path id="Trazado_886342" data-name="Trazado 886342" d="M1209.086,1165.356l-14.522,25.154-16.144-9.322,13.892-25.518Z" transform="translate(-1178.42 -1155.67)" fill="#e0cec7"/>
      </g>
      <g id="Grupo_1103759" data-name="Grupo 1103759" transform="translate(20.836 56.212)">
        <path id="Trazado_886343" data-name="Trazado 886343" d="M1281.943,1171.084l1.019-1.766-6.526-3.769-1.275,1.618Z" transform="translate(-1275.16 -1165.55)" fill="#616161"/>
      </g>
      <g id="Grupo_1103765" data-name="Grupo 1103765" transform="translate(19.341 73.037)">
        <g id="Grupo_1103764" data-name="Grupo 1103764">
          <g id="Grupo_1103763" data-name="Grupo 1103763">
            <g id="Grupo_1103762" data-name="Grupo 1103762">
              <g id="Grupo_1103761" data-name="Grupo 1103761">
                <g id="Grupo_1103760" data-name="Grupo 1103760">
                  <path id="Trazado_886344" data-name="Trazado 886344" d="M1274.854,1262.211a3.376,3.376,0,0,1-1.07-.154s-.571-.332-.991-.542a3.114,3.114,0,0,0-.331-.149,6.2,6.2,0,0,1-1.823-.771,41.466,41.466,0,0,1-3.283-3.465l1.209-1.839.887-1.883s5.376.347,6.1.737a2.04,2.04,0,0,1,.2.122,7.891,7.891,0,0,1,1.138,1.164c.1.089,1.073,1.037,1.039,1.441a1.325,1.325,0,0,1-.644,1.115,3.168,3.168,0,0,1-.678,1.6,1.968,1.968,0,0,1-.947,1.457S1275.452,1262.064,1274.854,1262.211Z" transform="translate(-1267.356 -1253.407)" fill="#eea886"/>
                </g>
              </g>
            </g>
          </g>
        </g>
      </g>
      <g id="Grupo_1103767" data-name="Grupo 1103767" transform="translate(0 30.294)">
        <g id="Grupo_1103766" data-name="Grupo 1103766">
          <path id="Trazado_886345" data-name="Trazado 886345" d="M1182.117,1030.377s-4.966-1.423-7.811,4.049a24.969,24.969,0,0,0-3.211,10.479c-.359,2.523-1.98,9.411-2.144,10.122s-3.835,9.194-2.152,12.158c1.692,2.98,18.879,11.752,18.77,12.408s2.977-6.632,2.977-6.632-6.954-3.876-8.094-5.07c-1.85-1.939-5.753-4.028-4.951-6.433.942-2.825,3.771-12.356,4.428-13.752S1186.3,1032.156,1182.117,1030.377Z" transform="translate(-1166.358 -1030.21)" fill="#285173"/>
        </g>
      </g>
      <g id="Grupo_1103772" data-name="Grupo 1103772" transform="translate(20.338 1.977)">
        <g id="Grupo_1103771" data-name="Grupo 1103771">
          <g id="Grupo_1103770" data-name="Grupo 1103770">
            <g id="Grupo_1103769" data-name="Grupo 1103769">
              <g id="Grupo_1103768" data-name="Grupo 1103768">
                <path id="Trazado_886346" data-name="Trazado 886346" d="M1284.222,882.6s8.841,2.778,4.041,18.035-16.873-1.768-15.61-11.063S1284.222,882.6,1284.222,882.6Z" transform="translate(-1272.562 -882.342)" fill="#eea987"/>
              </g>
            </g>
          </g>
        </g>
      </g>
      <g id="Grupo_1103777" data-name="Grupo 1103777" transform="translate(19.641 0.752)">
        <g id="Grupo_1103776" data-name="Grupo 1103776">
          <g id="Grupo_1103775" data-name="Grupo 1103775">
            <g id="Grupo_1103774" data-name="Grupo 1103774">
              <g id="Grupo_1103773" data-name="Grupo 1103773">
                <path id="Trazado_886347" data-name="Trazado 886347" d="M1286.223,886.329a19.943,19.943,0,0,1-11.744,4.85s-2.825,3.313-3.042,4.613c0,0-6.559-11.18,1.5-17.882S1289.187,883.567,1286.223,886.329Z" transform="translate(-1268.92 -875.943)" fill="#0e2d3d"/>
              </g>
            </g>
          </g>
        </g>
      </g>
      <g id="Grupo_1103782" data-name="Grupo 1103782" transform="translate(22.221 13.237)">
        <g id="Grupo_1103781" data-name="Grupo 1103781">
          <g id="Grupo_1103780" data-name="Grupo 1103780">
            <g id="Grupo_1103779" data-name="Grupo 1103779">
              <g id="Grupo_1103778" data-name="Grupo 1103778">
                <path id="Trazado_886348" data-name="Trazado 886348" d="M1285.459,944.194c-.057-1.111-.741-3.637-2.391-2.93s.1,5.853,1.2,5.536C1284.264,946.8,1285.593,946.821,1285.459,944.194Z" transform="translate(-1282.391 -941.141)" fill="#eea987"/>
              </g>
            </g>
          </g>
        </g>
      </g>
      <g id="Grupo_1103783" data-name="Grupo 1103783" transform="translate(24.463 22.172)">
        <path id="Trazado_886349" data-name="Trazado 886349" d="M1300.772,991.955c-.052.58-.11,1.22-.162,1.876,0,0-3.9-.232-6.51-6.037C1294.269,988.049,1297.128,992.248,1300.772,991.955Z" transform="translate(-1294.1 -987.795)" fill="#a77860"/>
      </g>
    </g>
    <g id="Grupo_1103790" data-name="Grupo 1103790" transform="translate(-11505.057 -6752.43)">
      <g id="Grupo_1103785" data-name="Grupo 1103785" transform="translate(38.909 26.809)">
        <path id="Trazado_886350" data-name="Trazado 886350" d="M821.162,1350.469c5.668-3.986,12.3-31.768,12.7-48.315.2-8.476,2.708-12.007,4.919-15.123,2.113-2.978,3.938-5.55,2.875-11.456-2.031-11.286,3.31-16.158,3.364-16.206l-.618-.7c-.238.208-5.8,5.233-3.668,17.077.993,5.518-.644,7.826-2.717,10.747-2.175,3.066-4.882,6.881-5.092,15.643-.425,17.758-7.207,43.989-12.3,47.57Z" transform="translate(-820.623 -1258.665)" fill="url(#linear-gradient-4)"/>
      </g>
      <g id="Grupo_1103786" data-name="Grupo 1103786" transform="translate(0 65.025)">
        <path id="Trazado_886351" data-name="Trazado 886351" d="M645.013,1503.705c-.535-1.213-1.089-2.467-1.716-3.79-3.238-6.836-6.107-7.961-10.859-9.826-1.161-.456-2.477-.972-3.922-1.622-6.808-3.059-5.49-7.568-4.327-11.546.163-.557.325-1.111.466-1.66.6-2.34-.552-3.513-2.293-5.29a19.864,19.864,0,0,1-4.146-5.559c-1.359-2.841-.666-4.364.154-5.141,1.727-1.637,5.709-1.335,9.469.717a13.692,13.692,0,0,1,3.147,2.711c2.4,2.51,5.38,5.633,12.924,5.669,4.3.02,6.658.614,7.878,1.985,1.385,1.556,1.124,3.886.762,7.11-.125,1.115-.267,2.379-.353,3.745a21.847,21.847,0,0,0,4.344,14.083c2.874,3.422,6.414,10.521,4.886,14.891a5.23,5.23,0,0,1-4.258,3.426,12.111,12.111,0,0,1-2.4.26C649.5,1513.867,647.566,1509.491,645.013,1503.705Zm-17.624-42.895c-3.357-1.833-6.958-2.2-8.375-.859-1.077,1.02-.569,2.769.047,4.056a18.8,18.8,0,0,0,3.97,5.308c1.822,1.859,3.261,3.327,2.531,6.179-.143.559-.308,1.124-.474,1.691-1.158,3.961-2.252,7.7,3.811,10.427,1.424.64,2.729,1.152,3.88,1.6,4.8,1.883,7.967,3.126,11.364,10.3.632,1.335,1.188,2.595,1.726,3.813,2.933,6.646,4.7,10.659,11.114,9.362a4.351,4.351,0,0,0,3.559-2.817c1.346-3.851-1.875-10.593-4.72-13.98a22.39,22.39,0,0,1-4.561-14.744c.088-1.388.231-2.665.357-3.79.334-2.983.576-5.139-.531-6.383-1.012-1.137-3.227-1.652-7.182-1.671-7.943-.037-11.078-3.32-13.6-5.958a12.769,12.769,0,0,0-2.919-2.535Z" transform="translate(-617.446 -1458.219)" fill="url(#linear-gradient-5)"/>
      </g>
      <g id="Grupo_1103787" data-name="Grupo 1103787" transform="translate(7.271 72.51)">
        <path id="Trazado_886352" data-name="Trazado 886352" d="M687.766,1550.88l.936-.049c-.046-.879-1.227-21.612-9.552-27.68-9.133-6.657-12.012-13.811-13.383-18.613-1.616-5.658-9.84-7.17-10.19-7.232l-.163.923c.08.014,8,1.473,9.451,6.566,1.409,4.935,4.366,12.285,13.733,19.113C686.566,1529.717,687.755,1550.669,687.766,1550.88Z" transform="translate(-655.415 -1497.306)" fill="url(#linear-gradient-6)"/>
      </g>
      <g id="Grupo_1103788" data-name="Grupo 1103788" transform="translate(30.809 0)">
        <path id="Trazado_886353" data-name="Trazado 886353" d="M785.556,1249.418c-1.959-.975-1.888-4.9-1.78-10.834.136-7.5.322-17.775-3.6-27.225-4.172-10.038-.451-12.972,3.147-15.81,4.03-3.178,7.836-6.18.531-19.728-3.355-6.222-4.42-10.431-3.352-13.246,1.056-2.781,4.017-3.865,7.153-5.013,5.412-1.981,11.547-4.226,10.755-15.682-.243-3.512.17-5.671,1.3-6.8,1.227-1.222,3.035-1.089,5.129-.937,3.163.232,6.746.494,9.867-3.579.324-1.017,3.309-10.1,6.878-11.656a2.527,2.527,0,0,1,2.184.012h0c2.464,1.178,3.894,2.576,4.372,4.274.831,2.952-1.331,6.281-3.835,10.136-3.934,6.058-8.394,12.924-3.769,21.1,6.115,10.8,2.885,14.584-1.585,19.817-2.561,3-5.464,6.4-7.4,11.938-1.561,4.457,1.1,8.707,3.676,12.817,3.23,5.156,6.569,10.487-.462,15.113-11.625,7.649-23.107,32.615-23.221,32.867l-.047.1-.09.07c-2.142,1.679-3.7,2.48-4.875,2.48A2.1,2.1,0,0,1,785.556,1249.418Zm28.683-36.085c6.266-4.122,3.447-8.622.183-13.832-2.567-4.1-5.477-8.742-3.767-13.625,2-5.708,4.962-9.177,7.576-12.237,4.38-5.127,7.274-8.514,1.482-18.747-4.905-8.666-.079-16.1,3.8-22.068,2.379-3.664,4.434-6.828,3.719-9.371-.4-1.422-1.667-2.626-3.874-3.682h0a1.606,1.606,0,0,0-1.4,0c-3.312,1.442-6.353,11.058-6.383,11.155l-.024.078-.049.065c-3.44,4.546-7.483,4.25-10.732,4.012-1.941-.142-3.474-.254-4.4.666s-1.246,2.891-1.026,6.068c.841,12.159-5.928,14.636-11.368,16.627-3.056,1.119-5.7,2.085-6.6,4.465-.964,2.541.085,6.5,3.3,12.468,7.679,14.241,3.381,17.631-.776,20.909-3.477,2.742-6.761,5.332-2.862,14.714,4,9.631,3.814,20.018,3.677,27.6-.094,5.177-.168,9.267,1.261,9.978.836.417,2.435-.287,4.754-2.091C791.658,1244.468,802.654,1220.955,814.239,1213.333Z" transform="translate(-778.327 -1118.671)" fill="url(#linear-gradient-7)"/>
      </g>
      <path id="Trazado_886354" data-name="Trazado 886354" d="M691.643,1232.168c5.917-2.029,4.687,9.375,7.188,17.813s27.813,3.681,17.188,24.809,13.438,7.066,6.25,25.5-.625,38.157-8.438,33.141-4.389-28.234-12.514-30.993-9.451-5.977-1.406-13.476-21.08-14.946-13.892-30.09S684.807,1234.512,691.643,1232.168Z" transform="translate(-671.955 -1210.241)" fill="url(#linear-gradient-8)"/>
      <g id="Grupo_1103789" data-name="Grupo 1103789" transform="translate(23.565 48.05)">
        <path id="Trazado_886355" data-name="Trazado 886355" d="M756.086,1443.512c.744-3.156,7.1-30.933,1.169-34.291-5.226-2.959-5.1-14.469-4.282-25.338.722-9.621-11.635-14.119-12.162-14.305l-.314.883c.122.043,12.208,4.446,11.54,13.351-.837,11.162-.927,23.007,4.755,26.224,4.5,2.549.357,24.873-1.62,33.26Z" transform="translate(-740.498 -1369.578)" fill="#fff"/>
      </g>
      <path id="Trazado_886356" data-name="Trazado 886356" d="M787.433,1704l-8.448,32.048H760.107L751.66,1704Z" transform="translate(-725.958 -1591.907)" fill="url(#linear-gradient-9)"/>
      <path id="Trazado_886357" data-name="Trazado 886357" d="M787.434,1704s-18.6,3.492-18.6,32.049h-8.729L751.661,1704Z" transform="translate(-725.958 -1591.907)" fill="url(#linear-gradient-10)"/>
    </g>
    <path id="Trazado_886358" data-name="Trazado 886358" d="M1904.231,367.974h-55.74a9.237,9.237,0,0,1-9.237-9.237V310.373a9.237,9.237,0,0,1,9.237-9.237h55.74a9.237,9.237,0,0,1,9.237,9.237v48.365A9.237,9.237,0,0,1,1904.231,367.974Z" transform="translate(-13110.33 -7210.127)" opacity="0.95" fill="url(#linear-gradient-2)"/>
    <g id="Grupo_1103791" data-name="Grupo 1103791" transform="translate(-11237.193 -6854.794)">
      <rect id="Rectángulo_403361" data-name="Rectángulo 403361" width="5.886" height="1.09" transform="translate(0 0)" fill="#4598e6"/>
    </g>
    <g id="Grupo_1103807" data-name="Grupo 1103807" transform="translate(-11248.381 -6916.127)">
      <g id="Grupo_1103794" data-name="Grupo 1103794" transform="translate(6.456 0)">
        <g id="Grupo_1103793" data-name="Grupo 1103793">
          <g id="Grupo_1103792" data-name="Grupo 1103792">
            <path id="Trazado_886359" data-name="Trazado 886359" d="M2004.47,265.155s4.742,2.6,3.237,9.007-2.078,7.249-.855,9.836,2.3,13.43.994,15.414-14.533-9.676-16-19,1.839-13.289,3.012-14.767S2000.288,262.778,2004.47,265.155Z" transform="translate(-1991.474 -263.873)" fill="#344052"/>
          </g>
        </g>
      </g>
      <g id="Grupo_1103795" data-name="Grupo 1103795" transform="translate(14.704 23.869)">
        <path id="Trazado_886360" data-name="Trazado 886360" d="M2048.2,418.849h-5.077c-.246-2.5-.472-4.248-.426-4.506.075-.426-5.053-13.874-5.531-14.987s-2.362-4.092-2.607-6.9,3.415-3.943,3.415-3.943c4.944.886,6.618,7.725,6.618,7.725s2.076,13.868,3.126,17.771A24.773,24.773,0,0,1,2048.2,418.849Z" transform="translate(-2034.544 -388.512)" fill="#eea886"/>
      </g>
      <path id="Trazado_886361" data-name="Trazado 886361" d="M2046.01,394.435l-7.561,3.188s-6.95-17.246-1.125-15.32C2043.131,384.222,2045.744,387.831,2046.01,394.435Z" transform="translate(-2020.207 -359.502)" fill="#eb4747"/>
      <g id="Grupo_1103796" data-name="Grupo 1103796" transform="translate(2.382 21.659)">
        <path id="Trazado_886362" data-name="Trazado 886362" d="M1991.936,398.367c-.221,1.712-1.125,7.778-.923,9.415.034.27.146.892.314,1.737H1973.1c.485-1.731.926-3.263,1.193-4.154.886-2.937.037-3.723-.41-6.072-.174-.92-.786-2.666-1.454-4.64-.224-.659-.454-1.345-.674-2.035a42.022,42.022,0,0,1-1.4-6.507c-1.1-7.013,4.294-7.688,4.294-7.688,2-.37,5.506-1.451,5.506-1.451l5.485,1.141a5.946,5.946,0,0,1,1.283.758,0,0,0,0,1,0,0,10.017,10.017,0,0,1,1.234,1.081,33.149,33.149,0,0,1,2.983,4.313c.364.594.73,1.2,1.075,1.8,1.115,1.93,1.908,3.486,1.883,5.242C1994.07,393.042,1992.156,396.655,1991.936,398.367Z" transform="translate(-1970.198 -376.973)" fill="#eb4747"/>
      </g>
      <path id="Trazado_886363" data-name="Trazado 886363" d="M2014.969,378.31s3.436,5.872,2.158,6.311-8.012-1.044-10.643-6.593C2006.483,378.029,2010.9,376.02,2014.969,378.31Z" transform="translate(-1997.154 -355.509)" fill="#eea886"/>
      <path id="Trazado_886364" data-name="Trazado 886364" d="M2019.351,349.2s-3.052,1.292-5.816-2.96c0,0,.743-4.828-.827-7.621s6.863,3.348,6.863,3.348-.136.576-.278,1.426c-.072.435-.147.941-.2,1.478-.048.447-.084.917-.1,1.385A7.548,7.548,0,0,0,2019.351,349.2Z" transform="translate(-2002.028 -323.717)" fill="#eea886"/>
      <path id="Trazado_886365" data-name="Trazado 886365" d="M1984.113,431.289c-.629,3.232-5.136,7.28-5.136,7.28-.223-.661-.453-1.346-.673-2.035A29.452,29.452,0,0,0,1984.113,431.289Z" transform="translate(-1974.369 -399.228)" fill="#393d63"/>
      <g id="Grupo_1103797" data-name="Grupo 1103797" transform="translate(0.675 24.08)">
        <path id="Trazado_886366" data-name="Trazado 886366" d="M1969.226,400.168c-.286,1.178-1.6,13.107-1.457,13.514.084.233.721,2.993,1.358,6.06h-5.885a14.464,14.464,0,0,1-.873-4.546c.376-4.024-.988-16.851-.988-16.851s-1.221-7.759,5.217-8.729c0,0,3.8.5,4.033,3.309S1969.511,398.994,1969.226,400.168Z" transform="translate(-1961.287 -389.616)" fill="#eea886"/>
      </g>
      <path id="Trazado_886367" data-name="Trazado 886367" d="M1958.054,398.024l7.99,1.866s6.339-12.307.63-14.554C1960.656,382.968,1956.612,391.311,1958.054,398.024Z" transform="translate(-1957.761 -361.743)" fill="#eb4747"/>
      <g id="Grupo_1103800" data-name="Grupo 1103800" transform="translate(9.091 1.644)">
        <g id="Grupo_1103799" data-name="Grupo 1103799">
          <g id="Grupo_1103798" data-name="Grupo 1103798">
            <path id="Trazado_886368" data-name="Trazado 886368" d="M2014.856,272.78s6.944,2.549,2.543,14.532-13.386-2.046-12.029-9.41S2014.856,272.78,2014.856,272.78Z" transform="translate(-2005.231 -272.459)" fill="#eea987"/>
          </g>
        </g>
      </g>
      <g id="Grupo_1103803" data-name="Grupo 1103803" transform="translate(8.837 0.649)">
        <g id="Grupo_1103802" data-name="Grupo 1103802">
          <g id="Grupo_1103801" data-name="Grupo 1103801">
            <path id="Trazado_886369" data-name="Trazado 886369" d="M2017.392,275.862a15.918,15.918,0,0,1-9.547,3.424s-1.375,3.351-1.6,4.379c0,0-5.811-9.977.87-15.017S2019.859,273.772,2017.392,275.862Z" transform="translate(-2003.906 -267.262)" fill="#344052"/>
          </g>
        </g>
      </g>
      <g id="Grupo_1103806" data-name="Grupo 1103806" transform="translate(11.173 10.888)">
        <g id="Grupo_1103805" data-name="Grupo 1103805">
          <g id="Grupo_1103804" data-name="Grupo 1103804">
            <path id="Trazado_886370" data-name="Trazado 886370" d="M2018.5,323.232c0-.887-.454-2.928-1.8-2.426s-.14,4.671.745,4.459C2017.449,325.265,2018.51,325.332,2018.5,323.232Z" transform="translate(-2016.104 -320.727)" fill="#eea987"/>
          </g>
        </g>
      </g>
      <path id="Trazado_886371" data-name="Trazado 886371" d="M2027.1,363.118a7.386,7.386,0,0,1-4.564-4.117c2.654,3.429,4.656,2.937,4.656,2.937C2027.146,362.385,2027.142,362.664,2027.1,363.118Z" transform="translate(-2010.133 -340.784)" fill="#a77860"/>
    </g>
    <g id="Grupo_1103808" data-name="Grupo 1103808" transform="translate(-11258.95 -6896.896)">
      <path id="Trazado_886372" data-name="Trazado 886372" d="M1945.19,364.3v1.066h6.276v5.89h1.066V364.3Zm-42.621,6.956h1.066v-5.89h6.276V364.3h-7.342v6.956Zm48.9,30.395v5.893h-6.276v1.066h7.342v-6.958Zm-47.83,0h-1.066v6.958h7.342v-1.066h-6.276v-5.893Z" transform="translate(-1902.569 -364.297)" fill="#4598e6"/>
    </g>
    <g id="Grupo_1103809" data-name="Grupo 1103809" transform="translate(-11335.433 -6804.857)">
      <rect id="Rectángulo_403362" data-name="Rectángulo 403362" width="7.862" height="1.456" transform="translate(0 0)" fill="#4598e6"/>
    </g>
    <g id="Grupo_1103810" data-name="Grupo 1103810" transform="translate(-11364.871 -6861.092)">
      <path id="Trazado_886373" data-name="Trazado 886373" d="M1406.4,551.256v1.424h8.383v7.868h1.424v-9.292Zm-56.928,9.292h1.424V552.68h8.383v-1.424h-9.807Zm65.312,40.6v7.871H1406.4v1.424h9.807v-9.295h-1.424Zm-63.888,0h-1.424v9.295h9.807v-1.424h-8.383Z" transform="translate(-1349.47 -551.256)" fill="#4598e6"/>
    </g>
    <g id="Grupo_1103826" data-name="Grupo 1103826" transform="translate(-11242.098 -6847.629)">
      <g id="Grupo_1103811" data-name="Grupo 1103811" transform="translate(2.153 44.865)">
        <path id="Trazado_886374" data-name="Trazado 886374" d="M2085.873,906.9h-6.65c-.122-.266-.22-.5-.3-.683-1.973-4.659-12.142-15.343-12.142-15.343v.023a.02.02,0,0,0-.006.012v.012c-.006.017-.012.029-.018.046s-.012.052-.023.087a.21.21,0,0,0-.011.058c-.006.017-.012.029-.018.046-.417,1.557-2.465,9.313-3.49,15.742h-45c-.1-.6-.226-1.163-.365-1.69a36.417,36.417,0,0,1-.868-4.653c-.005-.075-.017-.145-.023-.22-.035-.272-.064-.544-.087-.81a42.676,42.676,0,0,1-.075-7.449c-.127.272-1.036,3.606-2.228,7.72-.654,2.257-1.395,4.752-2.13,7.1h-10.626l13.335-38.471c.3-.232,3.756-1.9,6.28-3.108,2.575-1.227,5.684-3.027,8.49-4.567,1.435-.787,2.79-1.5,3.965-2.037l.179-.081v-.006c1.939-.886,3.229-1.47,3.229-1.47h.006c.046-.006.353-.035.839-.081,2.709-.26,11.112-1.047,13.925-1.209.231-.018.428-.023.579-.029a2.327,2.327,0,0,1,.283,0,35.409,35.409,0,0,1,4.364,1.493c.087.029.174.064.26.1l.324.121c.2.076.4.151.6.232.405.162.828.324,1.25.492.145.058.3.116.446.174,4.555,1.806,9.775,4.046,11.014,4.937.822.585,3.374,5.394,6.332,11.344C2080.7,884.93,2084.593,899.643,2085.873,906.9Z" transform="translate(-2001.812 -855.839)" fill="#decbc4"/>
      </g>
      <g id="Grupo_1103812" data-name="Grupo 1103812" transform="translate(37.451 29.757)">
        <path id="Trazado_886375" data-name="Trazado 886375" d="M2201.874,790.75c-.12,6.049-11.832,9.358-11.832,9.358s-4.9-6.142-3.729-6.73c.459-.231.646-1.148.7-2.176a21.221,21.221,0,0,0-.067-2.743c-.035-.428-.068-.7-.068-.7s1.673-1.766,3.8-3.869c3.72-3.678,8.834-8.39,8.843-6.516a1.671,1.671,0,0,1-.043.355C2198.584,781.945,2201.874,790.75,2201.874,790.75Z" transform="translate(-2186.133 -776.946)" fill="#eea886"/>
      </g>
      <g id="Grupo_1103813" data-name="Grupo 1103813" transform="translate(37.103 34.698)">
        <path id="Trazado_886376" data-name="Trazado 886376" d="M2195.9,802.748h0c-.023.035-.52.778-1.368,1.845-1.8,2.262-5.178,5.977-8.978,7.469a21.271,21.271,0,0,0-.066-2.744,6.089,6.089,0,0,1-1.163-.14,36.029,36.029,0,0,1,2.547-3.729l2.351-.7Z" transform="translate(-2184.32 -802.748)" fill="#a77860"/>
      </g>
      <g id="Grupo_1103814" data-name="Grupo 1103814" transform="translate(29.205 9.936)">
        <path id="Trazado_886377" data-name="Trazado 886377" d="M2164.8,693.771c-1.013,2.2-1.975,3.8-2.248,4.434h0a7.813,7.813,0,0,1-1.368,1.845c-1.93,2.079-5.518,4.822-9.044,4.726a6.089,6.089,0,0,1-1.163-.14,5.534,5.534,0,0,1-4.031-2.784c-7.307-14.306-2.017-26-2.017-26s19.979-5.65,23.1.364C2170.226,680.432,2167.179,688.592,2164.8,693.771Z" transform="translate(-2143.076 -673.442)" fill="#eea886"/>
      </g>
      <g id="Grupo_1103815" data-name="Grupo 1103815" transform="translate(28.618 0)">
        <path id="Trazado_886378" data-name="Trazado 886378" d="M2142.448,633.9s-1.855-.1-2.314-3.621c-.453-3.475.463-4.439.463-4.439s8.248-3.453,11.209-3.9,10.245-.88,11.952,1.072c0,0,4.147-.964,5.278,5.922,1.793,10.924-6.109,21.531-6.109,21.531s.067-7.137-1.507-8.082-2.932,1.3-2.932,1.3l-3.219.577s4.89-10.558-.976-10.949S2145.805,634.514,2142.448,633.9Z" transform="translate(-2140.008 -621.559)" fill="#e8734d"/>
      </g>
      <g id="Grupo_1103816" data-name="Grupo 1103816" transform="translate(47.083 16.271)">
        <path id="Trazado_886379" data-name="Trazado 886379" d="M2236.533,709.535c.306-3.144,5.992-4.344,5.611-1.049s-3.181,6.462-4.474,6.35S2236.3,711.931,2236.533,709.535Z" transform="translate(-2236.429 -706.523)" fill="#eea886"/>
      </g>
      <g id="Grupo_1103817" data-name="Grupo 1103817" transform="translate(42.162 46.363)">
        <path id="Trazado_886380" data-name="Trazado 886380" d="M2249.041,881.349c-1.853-5.932-3.456-10.626-4.167-11.135-1.244-.891-11.107-3.606-15.789-5.44-.15-.058-.3-.116-.446-.174-.423-.168-.845-.33-1.25-.492-.2-.081-.4-.156-.6-.232l-.324-.121c-.087-.035-.174-.069-.26-.1-.006.006-.012.017-.023.023a76.847,76.847,0,0,0-5.168,6.61c-4.839,6.876-11.141,18.017-10.175,28.3.313,3.3.695,8.039,1.337,13.358.046.422.1.845.156,1.273h21.831c.266-5.568.74-12.9,1.458-15.742.006-.017.012-.029.018-.046a.2.2,0,0,1,.011-.058c.006-.029.018-.058.023-.087s.012-.029.018-.046v-.012a.02.02,0,0,1,.006-.012s5.284,8.259,5.556,16h13.74C2254.318,906.027,2252.217,891.53,2249.041,881.349Z" transform="translate(-2210.737 -863.656)" fill="#3c4145"/>
      </g>
      <g id="Grupo_1103818" data-name="Grupo 1103818" transform="translate(0 47.746)">
        <path id="Trazado_886381" data-name="Trazado 886381" d="M2024.887,870.948s-1.649,5.487-3.779,19.186v.005c-.075.458-.145.926-.22,1.406-.006.052-.018.11-.023.168-.052.313-.1.637-.145.961-.006.04-.012.075-.017.116-.035.214-.07.434-.1.66-.081.538-.162,1.094-.243,1.656-.8,5.591-1.864,14.475-2.946,23.955h-8.63a40.262,40.262,0,0,1-.874-6.673.8.8,0,0,0-.041.11c-.689,1.91-1.447,3.988-2.217,6.008l-.208.555h-14.874l14.816-38.76c.3-.232,4.109-2.286,6.633-3.484,2.634-1.256,5.961-2.8,8.913-4.161,1.412-.654,2.738-1.262,3.86-1.777Z" transform="translate(-1990.572 -870.878)" fill="#3c4145"/>
      </g>
      <g id="Grupo_1103819" data-name="Grupo 1103819" transform="translate(42.163 46.362)">
        <path id="Trazado_886382" data-name="Trazado 886382" d="M2222.958,878.663l-5.7,3.218,2.437,2.483-5.348,28.857h-2.014c-.741-5.834-1.163-11.072-1.493-14.631-1.488-15.9,14.382-33.841,15.366-34.934.764.289,1.586.608,2.437.943Z" transform="translate(-2210.74 -863.656)" fill="#51565c"/>
      </g>
      <g id="Grupo_1103820" data-name="Grupo 1103820" transform="translate(24.898 47.665)">
        <path id="Trazado_886383" data-name="Trazado 886383" d="M2130.088,870.455s-2.13,6.951-4.607,24.308c-.8,5.585-1.869,14.475-2.951,23.955h-.839l-1.105-27.266,2.714-2.94-2.413-3.015,5.163-13.185c1.412-.654,2.738-1.262,3.86-1.777Z" transform="translate(-2120.585 -870.455)" fill="#51565c"/>
      </g>
      <g id="Grupo_1103821" data-name="Grupo 1103821" transform="translate(41.36 43.561)">
        <path id="Trazado_886384" data-name="Trazado 886384" d="M2223.1,851.9l-4.724-2.869s-.132,2.591-11.832,9.358l3.323,9.358Z" transform="translate(-2206.548 -849.029)" fill="#f5e2d9"/>
      </g>
      <g id="Grupo_1103822" data-name="Grupo 1103822" transform="translate(34.402 44.866)">
        <path id="Trazado_886385" data-name="Trazado 886385" d="M2174.058,855.844s.184,2.8,3.112,8.053l-6.484,8.453-.473-13.71Z" transform="translate(-2170.213 -855.844)" fill="#f5e2d9"/>
      </g>
      <g id="Grupo_1103823" data-name="Grupo 1103823" transform="translate(37.432 52.919)">
        <path id="Trazado_886386" data-name="Trazado 886386" d="M2189.983,897.894s1.256,5.027.8,6.434c0,0-2.763,1.005-4.75-.251A22.019,22.019,0,0,1,2189.983,897.894Z" transform="translate(-2186.038 -897.894)" fill="#d44040"/>
      </g>
      <g id="Grupo_1103824" data-name="Grupo 1103824" transform="translate(33.154 57.943)">
        <path id="Trazado_886387" data-name="Trazado 886387" d="M2170.394,936.2a126.381,126.381,0,0,0-.833,25.917h-5.539c-.075-1.094-.145-2.234-.214-3.426-1.03-17.878,5.29-33.852,5.29-33.852l2.819-.706S2171.009,932.029,2170.394,936.2Z" transform="translate(-2163.694 -924.129)" fill="#d44040"/>
      </g>
      <g id="Grupo_1103825" data-name="Grupo 1103825" transform="translate(14.891 70.493)">
        <path id="Trazado_886388" data-name="Trazado 886388" d="M2070.956,1000.318c-.211,4.289-.18,8.1-.18,8.1v0c0,.021-.006.137-.015.328-.009-.073-.018-.144-.027-.215-.687,1.909-1.447,3.985-2.214,6.006a64.334,64.334,0,0,1-.172-6.545c.307-12.028,4.09-18.335,4.09-18.335C2071.571,991.754,2071.156,996.253,2070.956,1000.318Z" transform="translate(-2068.329 -989.659)" fill="#2d3133"/>
      </g>
    </g>
    <g id="Grupo_1103849" data-name="Grupo 1103849" transform="translate(-11311.818 -6799.665)">
      <g id="Grupo_1103827" data-name="Grupo 1103827" transform="translate(0 22.31)">
        <path id="Trazado_886389" data-name="Trazado 886389" d="M1661.969,1014.223l-17.7,9.727L1626.5,995.984l21.494-7.467Z" transform="translate(-1626.5 -988.517)" fill="#292c47"/>
      </g>
      <g id="Grupo_1103828" data-name="Grupo 1103828" transform="translate(1.178 23.136)">
        <path id="Trazado_886390" data-name="Trazado 886390" d="M1665.818,1016.87l-16.548,9.1-16.621-26.154,20.1-6.982Z" transform="translate(-1632.65 -992.83)" fill="#fff"/>
      </g>
      <g id="Grupo_1103829" data-name="Grupo 1103829" transform="translate(19.423 36.472)">
        <path id="Trazado_886391" data-name="Trazado 886391" d="M1748.91,1068.281s-3.08-1.473-4.432-2.243-4.83-1.827-5.111-2.078-10.31-.87-10.918-1.394-1.2,1.23,1.4,1.8,6.216,1.961,6.414,2.977-2.67,1.257-2.96,2.094.082.649.492.828,3.411-1.482,4.73-1.01,3.335-.181,4.347.165,5.927,2,5.927,2Z" transform="translate(-1727.926 -1062.469)" fill="#eea886"/>
      </g>
      <g id="Grupo_1103830" data-name="Grupo 1103830" transform="translate(3.359 36.5)">
        <path id="Trazado_886392" data-name="Trazado 886392" d="M1657.59,1080.351s-2.588-2.329-3.84-3.3-3.6-3.84-3.948-4.007-4.834-9.377-5.565-9.745.692-1.609,2.241.618,4.269,5.094,5.3,4.885.145-3.005.82-3.6.643-.176.973.142-.068,3.791.89,4.851,1.128,3.214,1.848,4.032,4.193,4.807,4.193,4.807Z" transform="translate(-1644.039 -1062.618)" fill="#eea886"/>
      </g>
      <g id="Grupo_1103831" data-name="Grupo 1103831" transform="translate(72.639 178.214)">
        <path id="Trazado_886393" data-name="Trazado 886393" d="M2005.81,1803.124s.56,3.885.63,4.469,6.227-.344,6.227-.344l.5-4.625S2006.578,1802.577,2005.81,1803.124Z" transform="translate(-2005.81 -1802.623)" fill="#424773"/>
      </g>
      <g id="Grupo_1103832" data-name="Grupo 1103832" transform="translate(62.518 182.428)">
        <path id="Trazado_886394" data-name="Trazado 886394" d="M1963.643,1824.889a16.621,16.621,0,0,1-3.837,3.362c-1.887,1.021-4.852,1.425-5.967,2.481-.805.762-2.933,4.045,4.9,3.979s11.614.464,12.453-.795-1.215-9.29-1.215-9.29S1968.124,1825.293,1963.643,1824.889Z" transform="translate(-1952.959 -1824.626)" fill="#292c47"/>
      </g>
      <g id="Grupo_1103833" data-name="Grupo 1103833" transform="translate(28.523 178.214)">
        <path id="Trazado_886395" data-name="Trazado 886395" d="M1775.44,1803.124s.56,3.885.63,4.469,6.227-.344,6.227-.344l.5-4.625S1776.21,1802.577,1775.44,1803.124Z" transform="translate(-1775.44 -1802.623)" fill="#424773"/>
      </g>
      <g id="Grupo_1103834" data-name="Grupo 1103834" transform="translate(14.784 182.428)">
        <path id="Trazado_886396" data-name="Trazado 886396" d="M1718,1824.89a16.621,16.621,0,0,1-3.838,3.362c-1.887,1.021-8.83,1.859-9.945,2.915-.805.763-2.145,3.832,8.881,3.545,7.833-.2,11.614.464,12.453-.795s-1.215-9.29-1.215-9.29S1722.59,1825.34,1718,1824.89Z" transform="translate(-1703.698 -1824.627)" fill="#292c47"/>
      </g>
      <g id="Grupo_1103835" data-name="Grupo 1103835" transform="translate(53.413 78.883)">
        <path id="Trazado_886397" data-name="Trazado 886397" d="M1919.542,1283.93s5.785,9.191,5.353,17.5,2.1,17.379,2.967,26.059c.969,9.676,4.934,32.582,5.078,37.758s-.615,21.7-.615,21.7l-7.937.181s-6.666-40.046-8.392-44.132-10.288-33.217-10.575-36.485S1919.542,1283.93,1919.542,1283.93Z" transform="translate(-1905.416 -1283.93)" fill="#292c47"/>
      </g>
      <g id="Grupo_1103836" data-name="Grupo 1103836" transform="translate(27.452 77.298)">
        <path id="Trazado_886398" data-name="Trazado 886398" d="M1779.483,1278.486s-4.36,22.772-4.935,27.857-.959,24.609-1.247,27.787-1.918,41.59-3.453,46.311h10.146s7.789-27.924,7.789-41.136,6.017-28.722,9.9-37.439,12.775-8.923,15.163-25.1C1812.849,1276.77,1782.716,1273.355,1779.483,1278.486Z" transform="translate(-1769.848 -1275.656)" fill="#292c47"/>
      </g>
      <g id="Grupo_1103837" data-name="Grupo 1103837" transform="translate(44.056 0.894)">
        <path id="Trazado_886399" data-name="Trazado 886399" d="M1870.384,877.4s-7.765-2.9-11.345,3.01-3.235,17.744.679,19.2,9.794.694,11.8-3,3.813-9.045,3.726-12.619S1872.424,878.433,1870.384,877.4Z" transform="translate(-1856.555 -876.69)" fill="#eea886"/>
      </g>
      <g id="Grupo_1103838" data-name="Grupo 1103838" transform="translate(47.831 16.717)">
        <path id="Trazado_886400" data-name="Trazado 886400" d="M1876.5,966.681a6.711,6.711,0,0,1-.211,3.129c-.534,1.033,10.06,1.06,10.06,1.06a69.777,69.777,0,0,1,2.491-10.364C1890.467,955.76,1876.5,966.681,1876.5,966.681Z" transform="translate(-1876.266 -959.311)" fill="#eea886"/>
      </g>
      <g id="Grupo_1103839" data-name="Grupo 1103839" transform="translate(44.391 0)">
        <path id="Trazado_886401" data-name="Trazado 886401" d="M1874.312,889.931s-.731,1.206-3.716.738-6.626-4.439-7.872-4.875-1.258-1.168-1.258-1.168l-.78,1.14-1.324.084s1.207-3.552-.614-5,1.89-11.5,11.462-8.152c0,0,7.352,2.026,7.084,6.208S1875.957,887.848,1874.312,889.931Z" transform="translate(-1858.3 -872.019)" fill="#3a3f47"/>
      </g>
      <g id="Grupo_1103840" data-name="Grupo 1103840" transform="translate(47.223 24.19)">
        <path id="Trazado_886402" data-name="Trazado 886402" d="M1873.09,1001.236s.034-1.973.928-2.162,9.873-1.052,10.97-.621v2.3S1882.872,1002.052,1873.09,1001.236Z" transform="translate(-1873.09 -998.333)" fill="#e2d2ca"/>
      </g>
      <g id="Grupo_1103841" data-name="Grupo 1103841" transform="translate(47.519 9.562)">
        <path id="Trazado_886403" data-name="Trazado 886403" d="M1874.871,923.475c.167-.7,1.951-2.705,2.634-.56s-1.032,5.032-1.988,4.785S1874.448,925.254,1874.871,923.475Z" transform="translate(-1874.636 -921.951)" fill="#eea886"/>
      </g>
      <g id="Grupo_1103842" data-name="Grupo 1103842" transform="translate(11.554 50.404)">
        <path id="Trazado_886404" data-name="Trazado 886404" d="M1686.869,1135.223a.025.025,0,0,1,.015,0C1686.821,1135.248,1686.812,1135.251,1686.869,1135.223Z" transform="translate(-1686.831 -1135.221)" fill="#323657"/>
      </g>
      <g id="Grupo_1103843" data-name="Grupo 1103843" transform="translate(11.606 26.607)">
        <path id="Trazado_886405" data-name="Trazado 886405" d="M1749.563,1085.13a82.135,82.135,0,0,1-12.883,2.3c-8.121.9-28.41-.323-28.538-1.282s4.365-35.723,4.109-37.514-.393-8.169-.393-8.169a44.947,44.947,0,0,1-4.03,12.779c-.777,1.406-3.382,5.813-4.638,4.811-6.078-4.853-15.491-23.141-16.088-23.3.5-.218,4.461-2.041,5.016-2.226.487-.162,4.872,4.48,7.529,7.359,1.185,1.283,2.026,2.215,2.026,2.215.767-1.726,3.562-12.6,4.43-16.365,1.959-8.488,1.658-8.841,1.658-8.841,5.941-1.8,14.958-5.455,14.958-5.455l11.9-.485s10.92,2.4,15.22,4.346c.408.184.41,9.742,1.529,12.248l-3.566,7.522s-2.06,14.9-2.487,21.528C1745.121,1059.645,1749.563,1085.13,1749.563,1085.13Z" transform="translate(-1687.103 -1010.958)" fill="#ffdf69"/>
      </g>
      <g id="Grupo_1103844" data-name="Grupo 1103844" transform="translate(63.12 30.952)">
        <path id="Trazado_886406" data-name="Trazado 886406" d="M1969.348,1058.3c-.311,1-1.721,1.85-2.638,2.221a3.408,3.408,0,0,1-1.9.192l-.466-.086h0l-8.154-1.512s-1.784-20.547,11.139-25.47C1967.665,1033.759,1972.2,1049.1,1969.348,1058.3Z" transform="translate(-1956.102 -1033.647)" fill="#ffdf69"/>
      </g>
      <g id="Grupo_1103845" data-name="Grupo 1103845" transform="translate(71.356 47.436)">
        <path id="Trazado_886407" data-name="Trazado 886407" d="M2001.48,1130.115h0a3.409,3.409,0,0,1-1.9.192l-.466-.086h0l.8-10.5Z" transform="translate(-1999.109 -1119.72)" fill="#ab9546"/>
      </g>
      <g id="Grupo_1103846" data-name="Grupo 1103846" transform="translate(24.149 55.537)">
        <path id="Trazado_886408" data-name="Trazado 886408" d="M1754.629,1164.239l-1,4.22a33.367,33.367,0,0,1-1.029-6.435C1753.788,1163.306,1754.629,1164.239,1754.629,1164.239Z" transform="translate(-1752.601 -1162.024)" fill="#ab9546"/>
      </g>
      <g id="Grupo_1103847" data-name="Grupo 1103847" transform="translate(60.098 2.282)">
        <path id="Trazado_886409" data-name="Trazado 886409" d="M1940.32,883.955s10.177-1.274.173,15.724Z" transform="translate(-1940.32 -883.934)" fill="#3a3f47"/>
      </g>
      <g id="Grupo_1103848" data-name="Grupo 1103848" transform="translate(7.147 23.687)">
        <path id="Trazado_886410" data-name="Trazado 886410" d="M1664.854,1000.3l-1.034-1.777,8.149-2.812,1.034,1.768Z" transform="translate(-1663.82 -995.709)" fill="#292c47"/>
      </g>
    </g>
    <g id="Grupo_1103850" data-name="Grupo 1103850" transform="translate(-11171.651 -6853.746)" opacity="0.95">
      <path id="Trazado_886411" data-name="Trazado 886411" d="M2473.268,606.5h5.772l-1.768-3.665H2471.5Z" transform="translate(-2449.847 -600.308)" fill="url(#linear-gradient-12)"/>
      <path id="Trazado_886412" data-name="Trazado 886412" d="M2459.166,606.5h1.375l-1.766-3.665H2457.4Z" transform="translate(-2438.447 -600.308)" fill="url(#linear-gradient-12)"/>
      <path id="Trazado_886413" data-name="Trazado 886413" d="M2359.206,591.45h23.373l-.776-1.832H2358.43Z" transform="translate(-2358.43 -589.618)" fill="url(#linear-gradient-14)"/>
    </g>
    <g id="Grupo_1103857" data-name="Grupo 1103857" transform="translate(-11305.768 -6913.325)">
      <g id="Grupo_1103851" data-name="Grupo 1103851" transform="translate(0 0)">
        <path id="Trazado_886414" data-name="Trazado 886414" d="M1667.462,281.492h-8.826a.539.539,0,0,1-.539-.539v-1.906a.539.539,0,0,1,.539-.539h8.826a.539.539,0,0,1,.539.539v1.906A.538.538,0,0,1,1667.462,281.492Z" transform="translate(-1658.097 -278.507)" fill="url(#linear-gradient-15)"/>
      </g>
      <g id="Grupo_1103852" data-name="Grupo 1103852" transform="translate(0 7.158)">
        <path id="Trazado_886415" data-name="Trazado 886415" d="M1667.462,318.868h-8.826a.539.539,0,0,1-.539-.539v-1.906a.539.539,0,0,1,.539-.539h8.826a.539.539,0,0,1,.539.539v1.906A.539.539,0,0,1,1667.462,318.868Z" transform="translate(-1658.097 -315.883)" fill="url(#linear-gradient-15)"/>
      </g>
      <g id="Grupo_1103853" data-name="Grupo 1103853" transform="translate(0 14.315)">
        <path id="Trazado_886416" data-name="Trazado 886416" d="M1667.462,356.244h-8.826a.539.539,0,0,1-.539-.54V353.8a.539.539,0,0,1,.539-.539h8.826a.539.539,0,0,1,.539.539V355.7A.539.539,0,0,1,1667.462,356.244Z" transform="translate(-1658.097 -353.259)" fill="url(#linear-gradient-17)"/>
      </g>
      <g id="Grupo_1103854" data-name="Grupo 1103854" transform="translate(13.996 0)">
        <path id="Trazado_886417" data-name="Trazado 886417" d="M1733.46,281.492h-1.739a.539.539,0,0,1-.54-.539v-1.906a.539.539,0,0,1,.54-.539h1.739a.539.539,0,0,1,.539.539v1.906A.541.541,0,0,1,1733.46,281.492Z" transform="translate(-1731.181 -278.507)" fill="url(#linear-gradient-18)"/>
      </g>
      <g id="Grupo_1103855" data-name="Grupo 1103855" transform="translate(13.996 7.158)">
        <path id="Trazado_886418" data-name="Trazado 886418" d="M1733.46,318.868h-1.739a.539.539,0,0,1-.54-.539v-1.906a.539.539,0,0,1,.54-.539h1.739a.539.539,0,0,1,.539.539v1.906A.541.541,0,0,1,1733.46,318.868Z" transform="translate(-1731.181 -315.883)" fill="url(#linear-gradient-18)"/>
      </g>
      <g id="Grupo_1103856" data-name="Grupo 1103856" transform="translate(13.996 14.315)">
        <path id="Trazado_886419" data-name="Trazado 886419" d="M1733.46,356.244h-1.739a.539.539,0,0,1-.54-.54V353.8a.539.539,0,0,1,.54-.539h1.739a.539.539,0,0,1,.539.539V355.7A.541.541,0,0,1,1733.46,356.244Z" transform="translate(-1731.181 -353.259)" fill="url(#linear-gradient-20)"/>
      </g>
    </g>
    <g id="Grupo_1103858" data-name="Grupo 1103858" transform="translate(-11335.862 -6755.718)">
      <path id="Trazado_886420" data-name="Trazado 886420" d="M1529.441,1108.078H1539.8l-3.171-6.578H1526.27Z" transform="translate(-1521.421 -1101.5)" fill="url(#linear-gradient-21)"/>
      <path id="Trazado_886421" data-name="Trazado 886421" d="M1504.121,1108.078h2.47l-3.171-6.578h-2.47Z" transform="translate(-1500.95 -1101.5)" fill="url(#linear-gradient-21)"/>
    </g>
  </g>
</svg>
