<svg xmlns="http://www.w3.org/2000/svg" width="102.343" height="102.343" viewBox="0 0 102.343 102.343">
  <g id="Grupo_1108016" data-name="Grupo 1108016" transform="translate(-221.379 -4941.464)">
    <rect id="Rectángulo_400898" data-name="Rectángulo 400898" width="102.343" height="102.343" rx="51.171" transform="translate(221.379 4941.464)" fill="#8746f8"/>
    <g id="curriculum-vitae_12061923" transform="translate(237.788 4958.694)">
      <g id="Grupo_1107938" data-name="Grupo 1107938" transform="translate(6.5 5.438)">
        <path id="Trazado_888861" data-name="Trazado 888861" d="M15.843,5.452q14.833-.058,29.665.117l.35.35a30.016,30.016,0,0,1,.117,3.737q3.971-.934,3.037,3.037a14.234,14.234,0,0,1,2.569.117l.35.35q.175,2.917.117,5.839,10.575,3.691,10.978,14.949-.4,11.258-10.978,14.949.059,6.541-.117,13.08l-.35.35q-18.92.234-37.84,0l-.35-.35a14.234,14.234,0,0,1-.117-2.569q-3.971.934-3.037-3.037a22.993,22.993,0,0,1-3.27-.117l-.35-.35q-.234-20.672,0-41.344Q11.193,9.927,15.843,5.452Z" transform="translate(-6.5 -5.438)" fill="#040405" fill-rule="evenodd" opacity="0.975"/>
      </g>
      <g id="Grupo_1107939" data-name="Grupo 1107939" transform="translate(8.369 7.292)">
        <path id="Trazado_888862" data-name="Trazado 888862" d="M21.04,40.968q8.375.237,16.818.467a17.968,17.968,0,0,1,.234,2.336q-8.762-.117-17.518.234a.83.83,0,0,0,.234,1.285q9,.059,17.986.35.469,1.061.934,2.1l-18.686.467q-1.182.574-.234,1.518l20.555.234a14.047,14.047,0,0,0,2.569,2.686,24.718,24.718,0,0,0,6.19,2.8q.175,2.45.117,4.905H14.5V22.282q4.206.058,8.409-.117l.35-.35q.175-4.2.117-8.409,13.4-.116,26.745.234.234,5.489,0,10.978a16.893,16.893,0,0,0-5.839,2.8A2.392,2.392,0,0,0,43.7,25.9q-11.328-.234-22.657,0-1.17.7-.234,1.635l22.891.234a8.342,8.342,0,0,0-2.336,2.336L21.04,30.34q-1.17.7-.234,1.635,9.462.058,18.92.35a12.666,12.666,0,0,0-.934,2.1q-8.874.292-17.752.35-1.17.7-.234,1.635,8.642.175,17.285.117a11.532,11.532,0,0,0-.234,2.569q-8.41-.059-16.818.117Q19.662,40.124,21.04,40.968Z" transform="translate(-14.5 -13.377)" fill="#e6e9ed" fill-rule="evenodd"/>
      </g>
      <g id="Grupo_1107940" data-name="Grupo 1107940" transform="translate(9.77 8.956)">
        <path id="Trazado_888863" data-name="Trazado 888863" d="M25.639,20.5a15.727,15.727,0,0,1,.467,5.372q-2.805.058-5.606-.117Q23.14,23.174,25.639,20.5Z" transform="translate(-20.5 -20.5)" fill="#a1c0cc" fill-rule="evenodd" opacity="0.991"/>
      </g>
      <g id="Grupo_1107941" data-name="Grupo 1107941" transform="translate(45.741 11.525)">
        <path id="Trazado_888864" data-name="Trazado 888864" d="M174.5,31.5h1.4v6.774h-1.4Z" transform="translate(-174.5 -31.5)" fill="#b3c9d0" fill-rule="evenodd"/>
      </g>
      <g id="Grupo_1107942" data-name="Grupo 1107942" transform="translate(48.75 14.562)">
        <path id="Trazado_888865" data-name="Trazado 888865" d="M187.643,48.237a15.1,15.1,0,0,1-.234-3.737h1.4v3.971A1.6,1.6,0,0,1,187.643,48.237Z" transform="translate(-187.382 -44.5)" fill="#7f96a0" fill-rule="evenodd" opacity="0.78"/>
      </g>
      <g id="Grupo_1107943" data-name="Grupo 1107943" transform="translate(49.011 14.795)">
        <path id="Trazado_888866" data-name="Trazado 888866" d="M188.5,49V45.5h.934V49Z" transform="translate(-188.5 -45.5)" fill="#a6c7d2" fill-rule="evenodd"/>
      </g>
      <g id="Grupo_1107944" data-name="Grupo 1107944" transform="translate(23.387 15.248)">
        <path id="Trazado_888867" data-name="Trazado 888867" d="M79.427,47.452q6.775-.058,13.548.117a1.222,1.222,0,0,1,.234,1.635q-7.007.234-14.015,0A1.019,1.019,0,0,1,79.427,47.452Z" transform="translate(-78.796 -47.438)" fill="#0a0a0a" fill-rule="evenodd"/>
      </g>
      <g id="Grupo_1107945" data-name="Grupo 1107945" transform="translate(33.408 20.084)">
        <path id="Trazado_888868" data-name="Trazado 888868" d="M133.1,68.226q11.634-.992,15.767,9.81A14.047,14.047,0,0,1,147,89.716q-1.076-5.981-7.124-6.657a9.449,9.449,0,0,0,1.285-9.694q-3.572-4.7-8.993-2.219a6.883,6.883,0,0,0-2.92,7.124,10.229,10.229,0,0,0,1.985,4.788q-6.27.664-6.891,6.891-6.045-9.707,1.752-18.1A16.788,16.788,0,0,1,133.1,68.226Z" transform="translate(-121.698 -68.143)" fill="#81d6fb" fill-rule="evenodd" opacity="0.999"/>
      </g>
      <g id="Grupo_1107946" data-name="Grupo 1107946" transform="translate(42.694 23.899)">
        <path id="Trazado_888869" data-name="Trazado 888869" d="M165.2,84.48a5.064,5.064,0,0,1,5.256,3.27,8.934,8.934,0,0,1-1.168,6.307,4.145,4.145,0,0,1-5.723.818,7.3,7.3,0,0,1-1.518-8.058A5.8,5.8,0,0,1,165.2,84.48Z" transform="translate(-161.452 -84.474)" fill="#fbdcc3" fill-rule="evenodd" opacity="0.999"/>
      </g>
      <g id="Grupo_1107947" data-name="Grupo 1107947" transform="translate(14.909 34.826)">
        <path id="Trazado_888870" data-name="Trazado 888870" d="M42.5,131.313a151.636,151.636,0,0,1,16.818.467Q50.875,131.55,42.5,131.313Z" transform="translate(-42.5 -131.255)" fill="#c7cace" fill-rule="evenodd" opacity="0.776"/>
      </g>
      <g id="Grupo_1107948" data-name="Grupo 1107948" transform="translate(37.689 36.985)">
        <path id="Trazado_888871" data-name="Trazado 888871" d="M143.873,140.5h3.5a2.094,2.094,0,0,0,.467,1.518,49.636,49.636,0,0,0-1.051,8.059,4.645,4.645,0,0,1,.818.934l-.234.234q-1.126-.325-2.219-.7-.117-2.336-.234-4.672-.7-1.17-1.635-.234a34.256,34.256,0,0,1-.35,3.971q-4.073-1.791-2.453-6.073A5.892,5.892,0,0,1,143.873,140.5Z" transform="translate(-140.025 -140.5)" fill="#419ff4" fill-rule="evenodd"/>
      </g>
      <g id="Grupo_1107949" data-name="Grupo 1107949" transform="translate(46.909 36.996)">
        <path id="Trazado_888872" data-name="Trazado 888872" d="M179.5,140.77a.466.466,0,0,1,.7-.117Q179.9,141.258,179.5,140.77Z" transform="translate(-179.5 -140.547)" fill="#d388af" fill-rule="evenodd"/>
      </g>
      <g id="Grupo_1107950" data-name="Grupo 1107950" transform="translate(49.011 36.928)">
        <path id="Trazado_888873" data-name="Trazado 888873" d="M188.967,140.312q8-.7,7.124,7.241a10.73,10.73,0,0,1-2.686,1.869,34.256,34.256,0,0,1-.35-3.971q-.7-.934-1.4,0-.059,2.461-.35,4.905a5.88,5.88,0,0,1-2.569.467,4.646,4.646,0,0,1,.818-.934,42.34,42.34,0,0,0-1.051-8.059A2.094,2.094,0,0,0,188.967,140.312Z" transform="translate(-188.5 -140.255)" fill="#409df1" fill-rule="evenodd"/>
      </g>
      <g id="Grupo_1107951" data-name="Grupo 1107951" transform="translate(46.209 38.854)">
        <path id="Trazado_888874" data-name="Trazado 888874" d="M177.434,148.5a34.81,34.81,0,0,1,1.168,6.19,1.978,1.978,0,0,1-1.051,1.985,3.548,3.548,0,0,1-1.051-1.985Q177.025,151.6,177.434,148.5Z" transform="translate(-176.5 -148.5)" fill="#ee83a6" fill-rule="evenodd"/>
      </g>
      <g id="Grupo_1107952" data-name="Grupo 1107952" transform="translate(14.909 41.657)">
        <path id="Trazado_888875" data-name="Trazado 888875" d="M61.186,160.5a.257.257,0,0,1,.234.234q-9.457.35-18.92.234Z" transform="translate(-42.5 -160.5)" fill="#797c7d" fill-rule="evenodd" opacity="0.761"/>
      </g>
      <g id="Grupo_1107953" data-name="Grupo 1107953" transform="translate(23.318 46.547)">
        <path id="Trazado_888876" data-name="Trazado 888876" d="M92.982,181.452a1.408,1.408,0,0,1,0,1.518q-7.007.234-14.015,0-.934-.7,0-1.4Q85.973,181.394,92.982,181.452Z" transform="translate(-78.5 -181.437)" fill-rule="evenodd"/>
      </g>
      <g id="Grupo_1107954" data-name="Grupo 1107954" transform="translate(12.088 49.599)">
        <path id="Trazado_888877" data-name="Trazado 888877" d="M64.078,194.5h1.4a66.7,66.7,0,0,1-.234,7.825q-17.285.234-34.57,0a2.122,2.122,0,0,1-.234-1.285q16.585.059,33.168-.117A22.794,22.794,0,0,0,64.078,194.5Z" transform="translate(-30.425 -194.5)" fill="#b2c8ce" fill-rule="evenodd"/>
      </g>
      <g id="Grupo_1107955" data-name="Grupo 1107955" transform="translate(15.376 49.599)">
        <path id="Trazado_888878" data-name="Trazado 888878" d="M78.135,194.5h.934v10.745H44.5v-.934q16.41.116,32.7-.234a.667.667,0,0,0,.584-.234Q77.844,199.111,78.135,194.5Z" transform="translate(-44.5 -194.5)" fill="#a3c3ce" fill-rule="evenodd"/>
      </g>
      <g id="Grupo_1107956" data-name="Grupo 1107956" transform="translate(15.119 59.175)">
        <path id="Trazado_888879" data-name="Trazado 888879" d="M76.359,235.5q-16.291.35-32.7.234v.934a1.6,1.6,0,0,1-.234-1.168Z" transform="translate(-43.402 -235.5)" fill="#8099a4" fill-rule="evenodd" opacity="0.761"/>
      </g>
      <g id="Grupo_1107957" data-name="Grupo 1107957" transform="translate(15.376 49.342)">
        <path id="Trazado_888880" data-name="Trazado 888880" d="M78.135,193.658a1.6,1.6,0,0,1,1.168-.234v11.212q-17.461.116-34.8-.234H79.07V193.658Z" transform="translate(-44.5 -193.402)" fill="#7a929b" fill-rule="evenodd" opacity="0.753"/>
      </g>
    </g>
  </g>
</svg>
