<svg xmlns="http://www.w3.org/2000/svg" width="52.438" height="54.569" viewBox="0 0 52.438 54.569">
  <g id="Grupo_1107855" data-name="Grupo 1107855" transform="translate(-404.102 -1092.431)">
    <g id="personal_11690092_-_copia" data-name="personal_11690092 - copia" transform="translate(404.102 1092.431)">
      <g id="Grupo_1107701" data-name="Grupo 1107701" transform="translate(0 0)">
        <path id="Trazado_888628" data-name="Trazado 888628" d="M15.158-.5h27.5a4.185,4.185,0,0,1,1.812,1.705q.16,11.4.107,22.808,11.406,1.494,12.363,13-.6,9.387-9.379,12.683a21.9,21.9,0,0,1-2.984.533,3.11,3.11,0,0,1-1.918,3.837H6.632a2.817,2.817,0,0,1-2.025-2.132q-.213-20.783,0-41.566a4.892,4.892,0,0,1,.426-1.066Q9.965,4.213,15.158-.5Z" transform="translate(-4.5 0.5)" fill="#050505" fill-rule="evenodd" opacity="0.964"/>
      </g>
      <g id="Grupo_1107703" data-name="Grupo 1107703" transform="translate(1.905 1.918)">
        <path id="Trazado_888630" data-name="Trazado 888630" d="M49.262,8.5a1.505,1.505,0,0,1,.533.426q.16,11.084.107,22.169a8.311,8.311,0,0,0-2.558.426q.053-6.4-.107-12.79l-.32-.32a27.366,27.366,0,0,0-5.862.107q-.106,8.633-.213,17.266a13.809,13.809,0,0,0-1.705,2.345q-.106-7.567-.213-15.134l-.32-.32a36.076,36.076,0,0,0-5.542,0l-.32.32q-.213,8.846,0,17.692l.32.32q2.449.16,4.9.107a21.759,21.759,0,0,0-.213,3.837q-7.462-.053-14.921.107a.866.866,0,0,0,0,1.492q7.569.053,15.134.32L38.6,49l-15.561.426q-1.11.66-.213,1.6,8.528.053,17.053.32A9.569,9.569,0,0,0,41.8,53.584L22.83,53.8a.866.866,0,0,0,0,1.492l21.529.213A10.909,10.909,0,0,0,49.9,57.1a2.461,2.461,0,0,1-.639,2.238q-17.586.213-35.172,0l-.533-.533q-.16-20.357-.107-40.714,3.945.053,7.887-.107a2.245,2.245,0,0,0,1.705-2.238A61.73,61.73,0,0,0,23.256,8.5Z" transform="translate(-13.437 -8.5)" fill="#ebf0f3" fill-rule="evenodd"/>
      </g>
      <g id="Grupo_1107704" data-name="Grupo 1107704" transform="translate(3.197 3.197)">
        <path id="Trazado_888631" data-name="Trazado 888631" d="M25.895,14.5A32.241,32.241,0,0,1,26,20.895,33.591,33.591,0,0,1,19.5,21Q22.762,17.793,25.895,14.5Z" transform="translate(-19.5 -14.5)" fill="#dfe0e0" fill-rule="evenodd"/>
      </g>
      <g id="Grupo_1107705" data-name="Grupo 1107705" transform="translate(6.85 4.69)">
        <path id="Trazado_888632" data-name="Trazado 888632" d="M55.365,21.5A17.587,17.587,0,0,1,60.8,22.566a18.488,18.488,0,0,1-1.6,5.222.95.95,0,0,1-1.172-.32,3.214,3.214,0,0,1,.32-2.025l-.213-.32Q47.962,31.2,37.566,36.848q-1.684-.471-.32-1.6Q47.424,29.468,57.5,23.525a6.474,6.474,0,0,1-2.238-.746A1.583,1.583,0,0,1,55.365,21.5Z" transform="translate(-36.636 -21.5)" fill="#090909" fill-rule="evenodd"/>
      </g>
      <g id="Grupo_1107706" data-name="Grupo 1107706" transform="translate(31.108 13.429)">
        <path id="Trazado_888633" data-name="Trazado 888633" d="M150.451,62.5h2.984q.053,6.076-.107,12.15a13.932,13.932,0,0,0-2.771,1.705Q150.4,69.429,150.451,62.5Z" transform="translate(-150.437 -62.5)" fill="#63b4f5" fill-rule="evenodd"/>
      </g>
      <g id="Grupo_1107707" data-name="Grupo 1107707" transform="translate(22.808 17.692)">
        <path id="Trazado_888634" data-name="Trazado 888634" d="M111.5,82.5h2.984V97.634H111.5Z" transform="translate(-111.5 -82.5)" fill="#71d460" fill-rule="evenodd"/>
      </g>
      <g id="Grupo_1107708" data-name="Grupo 1107708" transform="translate(12.787 20.415)">
        <path id="Trazado_888635" data-name="Trazado 888635" d="M64.7,95.322a22.309,22.309,0,0,1,6.075.426q.213,6.608,0,13.216l-.32.32a36.059,36.059,0,0,1-5.542,0l-.32-.32Q64.335,102.12,64.7,95.322Z" transform="translate(-64.488 -95.274)" fill-rule="evenodd"/>
      </g>
      <g id="Grupo_1107710" data-name="Grupo 1107710" transform="translate(14.495 22.169)">
        <path id="Trazado_888637" data-name="Trazado 888637" d="M75.484,103.5v10.658H72.5V103.5Z" transform="translate(-72.5 -103.5)" fill="#feda2c" fill-rule="evenodd"/>
      </g>
      <g id="Grupo_1107711" data-name="Grupo 1107711" transform="translate(4.476 24.713)">
        <path id="Trazado_888638" data-name="Trazado 888638" d="M25.926,115.451q2.773-.053,5.542.107l.32.32q.213,4.476,0,8.953l-.32.32a36.063,36.063,0,0,1-5.542,0l-.32-.32q-.213-4.476,0-8.953A.918.918,0,0,0,25.926,115.451Z" transform="translate(-25.5 -115.438)" fill="#050201" fill-rule="evenodd"/>
      </g>
      <g id="Grupo_1107712" data-name="Grupo 1107712" transform="translate(27.864 26.202)">
        <path id="Trazado_888639" data-name="Trazado 888639" d="M144.871,122.439q10.221-.412,12.9,9.379.786,10.1-8.846,13.109a11.369,11.369,0,0,1-11.83-4.8q-5.171-9.947,3.943-16.307A14.081,14.081,0,0,1,144.871,122.439Z" transform="translate(-135.219 -122.422)" fill="#b1cfd4" fill-rule="evenodd"/>
      </g>
      <g id="Grupo_1107713" data-name="Grupo 1107713" transform="translate(6.182 26.432)">
        <path id="Trazado_888640" data-name="Trazado 888640" d="M33.5,123.5h2.984v6.395H33.5Z" transform="translate(-33.5 -123.5)" fill="#fb685a" fill-rule="evenodd"/>
      </g>
      <g id="Grupo_1107714" data-name="Grupo 1107714" transform="translate(31.651 28.343)">
        <path id="Trazado_888641" data-name="Trazado 888641" d="M159.276,132.473q6.021-.214,5.649,5.755a4.122,4.122,0,0,1-1.386,2.238,7.642,7.642,0,0,1,4.583,7.567l-.32.32q-7.248.213-14.495,0l-.32-.32a7.642,7.642,0,0,1,4.583-7.567,4.887,4.887,0,0,1-.746-6.075A6.362,6.362,0,0,1,159.276,132.473Z" transform="translate(-152.985 -132.465)" fill="#060504" fill-rule="evenodd"/>
      </g>
      <g id="Grupo_1107715" data-name="Grupo 1107715" transform="translate(36.419 30.051)">
        <path id="Trazado_888642" data-name="Trazado 888642" d="M177.3,140.481q4.066-.145,3.517,3.837-1.491,2.806-4.37,1.386a3.428,3.428,0,0,1-.959-3.517A4.184,4.184,0,0,1,177.3,140.481Z" transform="translate(-175.352 -140.476)" fill="#f9d1b8" fill-rule="evenodd"/>
      </g>
      <g id="Grupo_1107716" data-name="Grupo 1107716" transform="translate(33.253 37.444)">
        <path id="Trazado_888643" data-name="Trazado 888643" d="M164.976,175.233q5.993-.684,7.461,5.116H160.5A6.831,6.831,0,0,1,164.976,175.233Z" transform="translate(-160.5 -175.161)" fill="#fbd62c" fill-rule="evenodd"/>
      </g>
      <g id="Grupo_1107717" data-name="Grupo 1107717" transform="translate(4.493 38.569)">
        <path id="Trazado_888644" data-name="Trazado 888644" d="M25.989,180.451a20.982,20.982,0,0,1,2.984.107q.853.639,0,1.279a10.492,10.492,0,0,1-2.984,0A.791.791,0,0,1,25.989,180.451Z" transform="translate(-25.579 -180.438)" fill="#060606" fill-rule="evenodd"/>
      </g>
      <g id="Grupo_1107718" data-name="Grupo 1107718" transform="translate(11.511 42.419)">
        <path id="Trazado_888645" data-name="Trazado 888645" d="M74.061,198.5a.235.235,0,0,1,.213.213q-7.884.32-15.774.213Z" transform="translate(-58.5 -198.5)" fill="#bcc0c3" fill-rule="evenodd"/>
      </g>
      <g id="Grupo_1107719" data-name="Grupo 1107719" transform="translate(4.506 42.832)">
        <path id="Trazado_888646" data-name="Trazado 888646" d="M26.036,200.451a20.984,20.984,0,0,1,2.984.107q.918.908-.213,1.492a7.723,7.723,0,0,1-2.558,0Q25.147,201.363,26.036,200.451Z" transform="translate(-25.639 -200.438)" fill="#101010" fill-rule="evenodd"/>
      </g>
      <g id="Grupo_1107720" data-name="Grupo 1107720" transform="translate(4.539 47.095)">
        <path id="Trazado_888647" data-name="Trazado 888647" d="M26.372,220.451a18.1,18.1,0,0,1,2.771.107.866.866,0,0,1,0,1.492,10.493,10.493,0,0,1-2.984,0A.93.93,0,0,1,26.372,220.451Z" transform="translate(-25.796 -220.438)" fill="#0f0f0f" fill-rule="evenodd"/>
      </g>
    </g>
  </g>
</svg>
