<svg xmlns="http://www.w3.org/2000/svg" width="85" height="85" viewBox="0 0 85 85">
  <g id="Grupo_1108010" data-name="Grupo 1108010" transform="translate(-230.051 -2157)">
    <rect id="Rectángulo_400898" data-name="Rectángulo 400898" width="85" height="85" rx="42.5" transform="translate(230.051 2157)" fill="#8746f8"/>
    <g id="file_3968436" transform="translate(239.857 2165.25)">
      <g id="Grupo_1107533" data-name="Grupo 1107533" transform="translate(14.184 7.5)">
        <path id="Trazado_888460" data-name="Trazado 888460" d="M78.216,27.7H74.85q.1-4.264-.21-8.417-3.156-3.367-6.523-6.523-14.255-.315-28.616-.21V7.5H78.216Z" transform="translate(-39.5 -7.5)" fill="#c7ccec" fill-rule="evenodd"/>
      </g>
      <g id="Grupo_1107534" data-name="Grupo 1107534" transform="translate(10.817 12.524)">
        <path id="Trazado_888461" data-name="Trazado 888461" d="M26.867,31.4q14.362-.1,28.616.21v6.523h6.523q.314,4.152.21,8.417H45.383a12.821,12.821,0,0,0-.105-2.315,1.468,1.468,0,0,0-.526-.736,23.4,23.4,0,0,0-5.26-.316H23.5V31.4Z" transform="translate(-23.5 -31.376)" fill="#e2e6f5" fill-rule="evenodd"/>
      </g>
      <g id="Grupo_1107535" data-name="Grupo 1107535" transform="translate(42.8 12.76)">
        <path id="Trazado_888462" data-name="Trazado 888462" d="M175.5,32.5q3.367,3.156,6.523,6.523H175.5Z" transform="translate(-175.5 -32.5)" fill="#9ca1be" fill-rule="evenodd"/>
      </g>
      <g id="Grupo_1107536" data-name="Grupo 1107536" transform="translate(17.551 16.758)">
        <path id="Trazado_888463" data-name="Trazado 888463" d="M55.5,51.5H73.175v1.683H55.5Z" transform="translate(-55.5 -51.5)" fill="#c7cdec" fill-rule="evenodd"/>
      </g>
      <g id="Grupo_1107537" data-name="Grupo 1107537" transform="translate(36.909 16.758)">
        <path id="Trazado_888464" data-name="Trazado 888464" d="M147.5,51.5h3.367v1.683H147.5Z" transform="translate(-147.5 -51.5)" fill="#c7cdec" fill-rule="evenodd"/>
      </g>
      <g id="Grupo_1107538" data-name="Grupo 1107538" transform="translate(15.867 20.125)">
        <path id="Trazado_888465" data-name="Trazado 888465" d="M47.5,67.5H71.908v1.683H47.5Z" transform="translate(-47.5 -67.5)" fill="#c7cdec" fill-rule="evenodd"/>
      </g>
      <g id="Grupo_1107539" data-name="Grupo 1107539" transform="translate(7.438 24.301)">
        <path id="Trazado_888466" data-name="Trazado 888466" d="M10.817,87.379h4.208a34.176,34.176,0,0,0,.105,3.787,1.483,1.483,0,0,0,.526.947,32.974,32.974,0,0,0,5.155.316,36.655,36.655,0,0,0,5.366-.316,1.483,1.483,0,0,0,.526-.947,34.177,34.177,0,0,0,.105-3.787,23.4,23.4,0,0,1,5.26.316,1.468,1.468,0,0,1,.526.736,12.821,12.821,0,0,1,.105,2.315,38.058,38.058,0,0,0,.105,4,1.58,1.58,0,0,0,.947.947q9.573.158,19.148.105.149,7.7-.316,15.36a1.482,1.482,0,0,1-.947.526q-5.785.158-11.573.105a8.7,8.7,0,0,0-.316-8.837,3.348,3.348,0,0,0-1.157-1.262,7.127,7.127,0,0,0-4.208-2.42q-7.707-.751-9.995,6.628a9.107,9.107,0,0,0,.947,5.892H7.451Q7.4,100,7.556,88.221a.986.986,0,0,1,.736-.736A15.243,15.243,0,0,1,10.817,87.379Z" transform="translate(-7.438 -87.347)" fill="#fbe696" fill-rule="evenodd"/>
      </g>
      <g id="Grupo_1107540" data-name="Grupo 1107540" transform="translate(15.013 24.333)">
        <path id="Trazado_888467" data-name="Trazado 888467" d="M43.451,87.5H55.234a34.176,34.176,0,0,1-.105,3.787,1.483,1.483,0,0,1-.526.947,36.651,36.651,0,0,1-5.366.316,32.972,32.972,0,0,1-5.155-.316,1.483,1.483,0,0,1-.526-.947A34.176,34.176,0,0,1,43.451,87.5Z" transform="translate(-43.438 -87.5)" fill="#f9d266" fill-rule="evenodd"/>
      </g>
      <g id="Grupo_1107541" data-name="Grupo 1107541" transform="translate(32.687 27.688)">
        <path id="Trazado_888468" data-name="Trazado 888468" d="M127.451,103.456h20.2a1.458,1.458,0,0,1,1.578.842q.158,2.1.105,4.208h-1.683q-9.574.053-19.148-.105a1.58,1.58,0,0,1-.947-.947A38.059,38.059,0,0,1,127.451,103.456Z" transform="translate(-127.438 -103.444)" fill="#f0ae42" fill-rule="evenodd" opacity="0.999"/>
      </g>
      <g id="Grupo_1107542" data-name="Grupo 1107542" transform="translate(7.438 32.737)">
        <path id="Trazado_888469" data-name="Trazado 888469" d="M52.9,127.451h1.683a15.227,15.227,0,0,1,2.525.105.986.986,0,0,1,.736.736q.211,11.783,0,23.567a.986.986,0,0,1-.736.736q-24.408.211-48.816,0a.986.986,0,0,1-.736-.736q-.158-4.207-.105-8.417h18.1a8.092,8.092,0,0,0,6.838,4.208,8.876,8.876,0,0,0,7.68-4.208q5.787.053,11.573-.105a1.482,1.482,0,0,0,.947-.526Q53.049,135.152,52.9,127.451Z" transform="translate(-7.438 -127.438)" fill="#f8d165" fill-rule="evenodd"/>
      </g>
      <g id="Grupo_1107543" data-name="Grupo 1107543" transform="translate(24.254 36.152)">
        <path id="Trazado_888470" data-name="Trazado 888470" d="M101.7,146.16q.053,3.684-.105,7.365a3.2,3.2,0,0,1-2.63,2.63,17.191,17.191,0,0,1-4.629-.105q3.15-3.36,6.523-6.523a9.554,9.554,0,0,0-1.683-1.683q-2.42,2.63-5.05,5.05a9.555,9.555,0,0,0-1.683-1.683,13.528,13.528,0,0,1-1.368,1.473.263.263,0,0,0,0,.421q1.484,1.431,2.841,2.946a33,33,0,0,1-5.26.21h-.21a9.107,9.107,0,0,1-.947-5.892q2.288-7.379,9.995-6.628A7.127,7.127,0,0,1,101.7,146.16Z" transform="translate(-87.36 -143.671)" fill="#579c30" fill-rule="evenodd"/>
      </g>
      <g id="Grupo_1107544" data-name="Grupo 1107544" transform="translate(25.546 38.641)">
        <path id="Trazado_888471" data-name="Trazado 888471" d="M106.546,155.5a3.349,3.349,0,0,1,1.157,1.262,8.7,8.7,0,0,1,.316,8.837,8.877,8.877,0,0,1-7.68,4.208A8.092,8.092,0,0,1,93.5,165.6a33,33,0,0,0,5.26-.21h.421a17.189,17.189,0,0,0,4.629.105,3.2,3.2,0,0,0,2.63-2.63Q106.6,159.184,106.546,155.5Z" transform="translate(-93.5 -155.5)" fill="#4f8c29" fill-rule="evenodd"/>
      </g>
      <g id="Grupo_1107545" data-name="Grupo 1107545" transform="translate(27.861 40.325)">
        <path id="Trazado_888472" data-name="Trazado 888472" d="M107.866,171.706h-.421q-1.356-1.514-2.841-2.946a.263.263,0,0,1,0-.421,13.525,13.525,0,0,0,1.368-1.473,9.555,9.555,0,0,1,1.683,1.683q2.63-2.42,5.05-5.05a9.556,9.556,0,0,1,1.683,1.683Q111.016,168.346,107.866,171.706Z" transform="translate(-104.5 -163.5)" fill="#e0e5f3" fill-rule="evenodd"/>
      </g>
      <g id="Grupo_1107546" data-name="Grupo 1107546" transform="translate(44.484 51.266)">
        <path id="Trazado_888473" data-name="Trazado 888473" d="M191.917,215.5v1.683H183.5V215.5Z" transform="translate(-183.5 -215.5)" fill="#efae41" fill-rule="evenodd"/>
      </g>
      <g id="Grupo_1107547" data-name="Grupo 1107547" transform="translate(44.484 51.266)">
        <path id="Trazado_888474" data-name="Trazado 888474" d="M191.917,215.5H193.6v3.367H183.5v-1.683h8.417Z" transform="translate(-183.5 -215.5)" fill="#d4883d" fill-rule="evenodd"/>
      </g>
    </g>
  </g>
</svg>
