<svg xmlns="http://www.w3.org/2000/svg" width="66.786" height="66.792" viewBox="0 0 66.786 66.792">
  <g id="interview_12216624_-_copia" data-name="interview_12216624 - copia" transform="translate(-2.5 -2.477)">
    <g id="Grupo_1107603" data-name="Grupo 1107603" transform="translate(36.988 2.477)">
      <path id="Trazado_888530" data-name="Trazado 888530" d="M141.191,2.483q11.881-.272,13.357,11.487-1.1,10.516-11.621,11.487a12.649,12.649,0,0,1-3.206-.534,26.89,26.89,0,0,1-7.079,1.469,1.169,1.169,0,0,1-.534-1.069q.637-2.481,1.336-4.942a12.242,12.242,0,0,1,.668-13.891A12.4,12.4,0,0,1,141.191,2.483Z" transform="translate(-131.601 -2.477)" fill="#030301" fill-rule="evenodd" opacity="0.919"/>
    </g>
    <g id="Grupo_1107604" data-name="Grupo 1107604" transform="translate(39.187 4.744)">
      <path id="Trazado_888531" data-name="Trazado 888531" d="M146.689,11.105q8.589-1.154,11.354,6.946Q158.276,30.9,145.487,29a17.719,17.719,0,0,0-4.408,1.069l-.267-.267q.6-1.716,1.069-3.473Q136.085,16.073,146.689,11.105Z" transform="translate(-139.833 -10.962)" fill="#fadc74" fill-rule="evenodd"/>
    </g>
    <g id="Grupo_1107605" data-name="Grupo 1107605" transform="translate(44.469 6.691)">
      <path id="Trazado_888532" data-name="Trazado 888532" d="M161.981,18.318q6.081-.665,5.209,5.343a6.438,6.438,0,0,1-2.671,2.671l-.267,1.6q-1.074,1.071-1.87-.267A3.171,3.171,0,0,1,162.916,25a16.756,16.756,0,0,1,2.137-1.87q.6-3.139-2.538-2.538a8.7,8.7,0,0,0-1.336,2.4,1.575,1.575,0,0,1-1.469-.134,3.63,3.63,0,0,1,.534-2.939A14.384,14.384,0,0,1,161.981,18.318Z" transform="translate(-159.605 -18.252)" fill="#0c0a05" fill-rule="evenodd"/>
    </g>
    <g id="Grupo_1107606" data-name="Grupo 1107606" transform="translate(2.5 9.706)">
      <path id="Trazado_888533" data-name="Trazado 888533" d="M49.25,59.179a.432.432,0,0,0,.267.534.432.432,0,0,0,.267.534q2.523,7.321-3.473,12.155,10.73,3.99,12.556,15.361a1.339,1.339,0,0,1-.8,1.2q-17.364.267-34.729,0A1.762,1.762,0,0,1,22.8,87.5Q24.6,76.214,35.359,72.4a11.526,11.526,0,0,1-2.939-2.939L3.3,69.2a2.526,2.526,0,0,1-.668-.4,32.391,32.391,0,0,1,0-5.877l.4-.4q5.608-.2,11.22-.134a19.246,19.246,0,0,0-.267-2.939,13.482,13.482,0,0,1-2.671-.134,1.762,1.762,0,0,1-.534-1.469,12.515,12.515,0,0,1,2-5.877q-1.107-5.042,4.141-4.675a13.89,13.89,0,0,1,4.274-2.4q-6.733-6.682-.267-13.624a9.635,9.635,0,0,1,10.151-.534,8.638,8.638,0,0,1,3.606,9.484,8.911,8.911,0,0,1-3.339,4.675,18.476,18.476,0,0,1,4.541,2.4q5.149-.459,4.141,4.675l1.2,2.4A10.623,10.623,0,0,1,49.25,59.179Z" transform="translate(-2.5 -29.536)" fill="#020202" fill-rule="evenodd" opacity="0.94"/>
    </g>
    <g id="Grupo_1107607" data-name="Grupo 1107607" transform="translate(20.156 11.824)">
      <path id="Trazado_888534" data-name="Trazado 888534" d="M73.375,37.475q8.072-.276,7.614,7.747-3.062,7.121-10.018,3.606-4.623-4.84-.267-9.884A19.9,19.9,0,0,1,73.375,37.475Z" transform="translate(-68.59 -37.466)" fill="#f2d8c9" fill-rule="evenodd"/>
    </g>
    <g id="Grupo_1107608" data-name="Grupo 1107608" transform="translate(47.4 17.954)">
      <path id="Trazado_888535" data-name="Trazado 888535" d="M170.823,60.437q2.426-.224,1.069,1.736Q170.006,62.216,170.823,60.437Z" transform="translate(-170.576 -60.414)" fill="#0f0c06" fill-rule="evenodd"/>
    </g>
    <g id="Grupo_1107609" data-name="Grupo 1107609" transform="translate(49.233 25.985)">
      <path id="Trazado_888536" data-name="Trazado 888536" d="M177.988,104.908a8715.393,8715.393,0,0,0-.534-1.069q-.067-5.612.134-11.22a2.974,2.974,0,0,1,1.2-1.736,72.706,72.706,0,0,1,8.682-.4,72.706,72.706,0,0,1,8.682.4,2.974,2.974,0,0,1,1.2,1.736q.267,5.61,0,11.22a3.76,3.76,0,0,1-1.2,1.736q-4.914.51-9.884.534a14.282,14.282,0,0,1-4.141,3.874,2.055,2.055,0,0,1-1.069-.8,19.335,19.335,0,0,1-.134-3.206A3.777,3.777,0,0,1,177.988,104.908Z" transform="translate(-177.437 -90.475)" fill-rule="evenodd" opacity="0.941"/>
    </g>
    <g id="Grupo_1107610" data-name="Grupo 1107610" transform="translate(20.933 26.464)">
      <path id="Trazado_888537" data-name="Trazado 888537" d="M74.706,92.33a16.3,16.3,0,0,1,7.747,1.2q-5.476.267-10.953,0A24.343,24.343,0,0,1,74.706,92.33Z" transform="translate(-71.5 -92.268)" fill="#78b2e3" fill-rule="evenodd"/>
    </g>
    <g id="Grupo_1107611" data-name="Grupo 1107611" transform="translate(51.387 28.112)">
      <path id="Trazado_888538" data-name="Trazado 888538" d="M186.034,98.454q7.347-.067,14.693.134l.4.4a96.445,96.445,0,0,1,0,10.151l-.4.4-9.617.267-1.736,1.736a2.736,2.736,0,0,0-.668-1.736l-2.671-.267-.4-.4a96.453,96.453,0,0,1,0-10.151A1.151,1.151,0,0,0,186.034,98.454Z" transform="translate(-185.5 -98.438)" fill="#62e5b4" fill-rule="evenodd"/>
    </g>
    <g id="Grupo_1107612" data-name="Grupo 1107612" transform="translate(53.027 29.715)">
      <path id="Trazado_888539" data-name="Trazado 888539" d="M192.136,104.454q5.612-.067,11.22.134a1.085,1.085,0,0,1,0,1.87q-5.477.267-10.953,0Q191.023,105.6,192.136,104.454Z" transform="translate(-191.639 -104.437)" fill="#050b08" fill-rule="evenodd"/>
    </g>
    <g id="Grupo_1107613" data-name="Grupo 1107613" transform="translate(15.056 29.999)">
      <path id="Trazado_888540" data-name="Trazado 888540" d="M49.5,105.5H71.94a31.557,31.557,0,0,1-.4,5.076q-1.912,1.5-3.74,3.206a9.472,9.472,0,0,0-2,4.274H51.1Q50.4,111.762,49.5,105.5Z" transform="translate(-49.5 -105.5)" fill="#cfcfd4" fill-rule="evenodd"/>
    </g>
    <g id="Grupo_1107614" data-name="Grupo 1107614" transform="translate(53.006 32.653)">
      <path id="Trazado_888541" data-name="Trazado 888541" d="M192.079,115.454q5.612-.067,11.22.134a1.085,1.085,0,0,1,0,1.87q-5.61.267-11.22,0A1.228,1.228,0,0,1,192.079,115.454Z" transform="translate(-191.56 -115.437)" fill="#020403" fill-rule="evenodd"/>
    </g>
    <g id="Grupo_1107615" data-name="Grupo 1107615" transform="translate(23.143 33.168)">
      <path id="Trazado_888542" data-name="Trazado 888542" d="M81.571,117.4q5.493-.454,4.141,4.809-3,3.3-5.61-.267A3.436,3.436,0,0,1,81.571,117.4Z" transform="translate(-79.775 -117.365)" fill="#0a0a0b" fill-rule="evenodd"/>
    </g>
    <g id="Grupo_1107616" data-name="Grupo 1107616" transform="translate(25.346 35.339)">
      <path id="Trazado_888543" data-name="Trazado 888543" d="M88.417,125.493q2.486-.075,1.069,2Q87.261,127.35,88.417,125.493Z" transform="translate(-88.022 -125.49)" fill="#a7a7aa" fill-rule="evenodd"/>
    </g>
    <g id="Grupo_1107617" data-name="Grupo 1107617" transform="translate(53.069 35.592)">
      <path id="Trazado_888544" data-name="Trazado 888544" d="M192.518,126.454q5.478-.067,10.953.134a1.085,1.085,0,0,1,0,1.87q-5.61.267-11.22,0A1.166,1.166,0,0,1,192.518,126.454Z" transform="translate(-191.796 -126.437)" fill="#050a08" fill-rule="evenodd"/>
    </g>
    <g id="Grupo_1107618" data-name="Grupo 1107618" transform="translate(13.249 35.876)">
      <path id="Trazado_888545" data-name="Trazado 888545" d="M42.94,127.5a1.368,1.368,0,0,1,0,1.6A1.675,1.675,0,0,1,42.94,127.5Z" transform="translate(-42.736 -127.5)" fill="#6593b9" fill-rule="evenodd"/>
    </g>
    <g id="Grupo_1107619" data-name="Grupo 1107619" transform="translate(33.471 36.901)">
      <path id="Trazado_888546" data-name="Trazado 888546" d="M124.061,131.38q6.6-.542,8.949,5.61,1.041,7.07-5.744,9.216-9.99.161-8.682-9.751A8.2,8.2,0,0,1,124.061,131.38Z" transform="translate(-118.433 -131.336)" fill="#f2d8c9" fill-rule="evenodd"/>
    </g>
    <g id="Grupo_1107620" data-name="Grupo 1107620" transform="translate(4.607 44.692)">
      <path id="Trazado_888547" data-name="Trazado 888547" d="M37.132,161.836c-.25-.285-17.72-1.069-26.447-1.069V162.9a5.571,5.571,0,0,1-.267-2.4H37.132Z" transform="translate(-10.388 -160.5)" fill="#ebb977" fill-rule="evenodd"/>
    </g>
    <g id="Grupo_1107621" data-name="Grupo 1107621" transform="translate(4.8 44.692)">
      <path id="Trazado_888548" data-name="Trazado 888548" d="M38.052,162.747v.623H11.5V161.5H37.784A1.61,1.61,0,0,0,38.052,162.747Z" transform="translate(-11.5 -161.5)" fill="#ebb977" fill-rule="evenodd"/>
    </g>
    <g id="Grupo_1107622" data-name="Grupo 1107622" transform="translate(4.857 46.071)">
      <path id="Trazado_888549" data-name="Trazado 888549" d="M11.5,167.5H37.994a181.314,181.314,0,0,1-26.494.971Z" transform="translate(-11.5 -167.5)" fill="#e4a970" fill-rule="evenodd"/>
    </g>
    <g id="Grupo_1107624" data-name="Grupo 1107624" transform="translate(25.207 54.039)">
      <path id="Trazado_888551" data-name="Trazado 888551" d="M106.2,195.759a30.534,30.534,0,0,1,5.744,5.076,28.029,28.029,0,0,1,2.939,5.61,3.1,3.1,0,0,1-.134,1.87H87.5a15.85,15.85,0,0,1,11.754-12.422A18.253,18.253,0,0,1,106.2,195.759Z" transform="translate(-87.5 -195.489)" fill="#89c8fd" fill-rule="evenodd"/>
    </g>
    <g id="Grupo_1107625" data-name="Grupo 1107625" transform="translate(42.695 54.309)">
      <path id="Trazado_888552" data-name="Trazado 888552" d="M157.5,196.5q10.734,2.558,13.5,12.289a15.963,15.963,0,0,1-4.109.267,2.838,2.838,0,0,0,.147-1.87,27.246,27.246,0,0,0-3.228-5.61A32.776,32.776,0,0,0,157.5,196.5Z" transform="translate(-157.5 -196.5)" fill="#89c8fd" fill-rule="evenodd"/>
    </g>
  </g>
</svg>
