<svg xmlns="http://www.w3.org/2000/svg" width="82.576" height="66.792" viewBox="0 0 82.576 66.792">
  <g id="Grupo_1108005" data-name="Grupo 1108005" transform="translate(-856.305 -2975.983)">
    <g id="Grupo_1107982" data-name="Grupo 1107982" transform="translate(868.214 2976.055)">
      <path id="Trazado_888906" data-name="Trazado 888906" d="M52.694,36.28a19.366,19.366,0,0,1,13.588,3.567q6.248,6.44-.34,12.569A19.538,19.538,0,0,1,50.656,55.3a22.068,22.068,0,0,0-5.435,1.868,2.186,2.186,0,0,1-2.718-.849,36.287,36.287,0,0,1,2.038-3.567q-7.4-9.294,3.057-14.947A42.814,42.814,0,0,1,52.694,36.28Z" transform="translate(-41.475 -36.167)" fill="#010204" fill-rule="evenodd" opacity="0.896"/>
    </g>
    <g id="Grupo_1107983" data-name="Grupo 1107983" transform="translate(899.083 2975.983)">
      <path id="Trazado_888907" data-name="Trazado 888907" d="M143.268,36.141A17.872,17.872,0,0,1,158.385,40.9a7.773,7.773,0,0,1,1.359,7.473,13.764,13.764,0,0,1-2.887,4.246,29.382,29.382,0,0,0,1.529,2.548,1.814,1.814,0,0,1-.849,2.378q-2.738-1.054-5.435-2.208a55.168,55.168,0,0,0-5.775.17,15.85,15.85,0,0,1-12.739-5.435q-3.506-6.985,2.887-11.38A22.583,22.583,0,0,1,143.268,36.141Z" transform="translate(-132.345 -35.956)" fill="#020204" fill-rule="evenodd" opacity="0.893"/>
    </g>
    <g id="Grupo_1107984" data-name="Grupo 1107984" transform="translate(870.3 2978.362)">
      <path id="Trazado_888908" data-name="Trazado 888908" d="M55.729,43.143a19.927,19.927,0,0,1,12.229,2.208q6.729,6.686-1.7,11.21a17.7,17.7,0,0,1-11.89.849q-1.9.5-3.737.849a3.288,3.288,0,0,0,1.019-1.7,19.122,19.122,0,0,1-3.907-4.586,5.88,5.88,0,0,1,2.548-6.284A19.76,19.76,0,0,1,55.729,43.143Z" transform="translate(-47.615 -42.959)" fill="#527eea" fill-rule="evenodd"/>
    </g>
    <g id="Grupo_1107985" data-name="Grupo 1107985" transform="translate(901.229 2978.16)">
      <path id="Trazado_888909" data-name="Trazado 888909" d="M148.119,42.41a18.6,18.6,0,0,1,10.87,2.548q5.153,3.779,1.529,9a8.506,8.506,0,0,0-2.548,2.378,3.715,3.715,0,0,0,1.019,1.529q-1.835-.352-3.737-.849a39.09,39.09,0,0,1-8.493.17,12.639,12.639,0,0,1-6.964-3.907,5.377,5.377,0,0,1-.34-6.115A13.343,13.343,0,0,1,148.119,42.41Z" transform="translate(-138.663 -42.364)" fill="#527fea" fill-rule="evenodd"/>
    </g>
    <g id="Grupo_1107986" data-name="Grupo 1107986" transform="translate(876.75 2982.602)">
      <path id="Trazado_888910" data-name="Trazado 888910" d="M66.907,55.459q4.929-.085,9.851.17a1.029,1.029,0,0,1-.34,1.7,61.992,61.992,0,0,1-9.172,0A1.2,1.2,0,0,1,66.907,55.459Z" transform="translate(-66.603 -55.438)" fill="#090a12" fill-rule="evenodd"/>
    </g>
    <g id="Grupo_1107987" data-name="Grupo 1107987" transform="translate(907.663 2982.623)">
      <path id="Trazado_888911" data-name="Trazado 888911" d="M157.907,55.5H168.1a3.088,3.088,0,0,1-.34,1.868,66.665,66.665,0,0,1-9.512,0A1.2,1.2,0,0,1,157.907,55.5Z" transform="translate(-157.603 -55.5)" fill="#0a0b14" fill-rule="evenodd"/>
    </g>
    <g id="Grupo_1107988" data-name="Grupo 1107988" transform="translate(876.72 2988.63)">
      <path id="Trazado_888912" data-name="Trazado 888912" d="M66.849,70.459q4.929-.085,9.851.17a1.231,1.231,0,0,1,0,1.7,47.806,47.806,0,0,1-9.851-.17A1.244,1.244,0,0,1,66.849,70.459Z" transform="translate(-66.514 -70.438)" fill="#06070f" fill-rule="evenodd"/>
    </g>
    <g id="Grupo_1107989" data-name="Grupo 1107989" transform="translate(907.663 2988.63)">
      <path id="Trazado_888913" data-name="Trazado 888913" d="M157.907,70.459q4.928-.085,9.851.17a1.232,1.232,0,0,1,0,1.7,66.663,66.663,0,0,1-9.512,0A1.2,1.2,0,0,1,157.907,70.459Z" transform="translate(-157.603 -70.438)" fill="#06070f" fill-rule="evenodd"/>
    </g>
    <g id="Grupo_1107990" data-name="Grupo 1107990" transform="translate(861.283 3008.443)">
      <path id="Trazado_888914" data-name="Trazado 888914" d="M29.03,122.5q9.474,1.451,7.643,10.87-3.5,7.144-11.04,4.586-5.762-3.172-4.246-9.681A8.4,8.4,0,0,1,29.03,122.5Z" transform="translate(-21.071 -122.5)" fill="#030303" fill-rule="evenodd" opacity="0.891"/>
    </g>
    <g id="Grupo_1107991" data-name="Grupo 1107991" transform="translate(889.963 3008.772)">
      <path id="Trazado_888915" data-name="Trazado 888915" d="M111.615,123.437q10.856-.608,9.681,10.191a8.394,8.394,0,0,1-7.813,5.775q-7.16-.96-7.983-8.153A8.312,8.312,0,0,1,111.615,123.437Z" transform="translate(-105.5 -123.404)" fill="#030303" fill-rule="evenodd" opacity="0.892"/>
    </g>
    <g id="Grupo_1107992" data-name="Grupo 1107992" transform="translate(917.819 3008.797)">
      <path id="Trazado_888916" data-name="Trazado 888916" d="M193.615,123.492q10.918-.21,9.342,10.531-2.446,6.107-9,5.265-7.5-2.242-6.284-10.021A8.913,8.913,0,0,1,193.615,123.492Z" transform="translate(-187.5 -123.488)" fill="#040404" fill-rule="evenodd" opacity="0.886"/>
    </g>
    <g id="Grupo_1107993" data-name="Grupo 1107993" transform="translate(863.539 3010.675)">
      <path id="Trazado_888917" data-name="Trazado 888917" d="M31.716,129.337a6.386,6.386,0,0,1,7.3,4.076q.764,8.068-7.3,7.3-5.328-2.417-3.567-7.983A10.218,10.218,0,0,1,31.716,129.337Z" transform="translate(-27.712 -129.253)" fill="#f2f2f2" fill-rule="evenodd"/>
    </g>
    <g id="Grupo_1107994" data-name="Grupo 1107994" transform="translate(892.323 3010.765)">
      <path id="Trazado_888918" data-name="Trazado 888918" d="M116.88,129.5q8.811.482,6.284,8.832-4.108,4.81-9.172,1.019Q109.825,132.752,116.88,129.5Z" transform="translate(-112.445 -129.5)" fill="#f1f1f1" fill-rule="evenodd"/>
    </g>
    <g id="Grupo_1107995" data-name="Grupo 1107995" transform="translate(919.991 3011.037)">
      <path id="Trazado_888919" data-name="Trazado 888919" d="M197.5,130.341q8.066-.849,7.643,7.134-1.973,5.02-7.3,3.907-6.288-3.315-2.548-9.342A21.535,21.535,0,0,0,197.5,130.341Z" transform="translate(-193.894 -130.26)" fill="#f2f2f2" fill-rule="evenodd"/>
    </g>
    <g id="Grupo_1107996" data-name="Grupo 1107996" transform="translate(856.305 3028.162)">
      <path id="Trazado_888920" data-name="Trazado 888920" d="M17.655,175.5q13.492-.095,15.287,13.248l-.51,1.019q-12.957.592-25.987.17Q5.852,177.976,17.655,175.5Z" transform="translate(-6.417 -175.498)" fill="#000100" fill-rule="evenodd" opacity="0.909"/>
    </g>
    <g id="Grupo_1107997" data-name="Grupo 1107997" transform="translate(885.181 3028.159)">
      <path id="Trazado_888921" data-name="Trazado 888921" d="M102.318,175.494q14.641-.218,15.117,14.267-12.957.592-25.987.17Q90.879,178.262,102.318,175.494Z" transform="translate(-91.421 -175.49)" fill="#020100" fill-rule="evenodd" opacity="0.895"/>
    </g>
    <g id="Grupo_1107998" data-name="Grupo 1107998" transform="translate(912.525 3028.163)">
      <path id="Trazado_888922" data-name="Trazado 888922" d="M184,175.5q12.45.182,14.267,12.4a6.819,6.819,0,0,1-.34,2.038q-13.03.422-25.987-.17a13.006,13.006,0,0,1,6.284-12.4A19.125,19.125,0,0,1,184,175.5Z" transform="translate(-171.915 -175.5)" fill="#020000" fill-rule="evenodd" opacity="0.91"/>
    </g>
    <g id="Grupo_1107999" data-name="Grupo 1107999" transform="translate(858.371 3030.531)">
      <path id="Trazado_888923" data-name="Trazado 888923" d="M34.241,191.313v1.019H12.5v-1.019q3.039-10.1,13.588-8.662A11.706,11.706,0,0,1,34.241,191.313Z" transform="translate(-12.5 -182.471)" fill="#43a555" fill-rule="evenodd"/>
    </g>
    <g id="Grupo_1108000" data-name="Grupo 1108000" transform="translate(887.246 3030.529)">
      <path id="Trazado_888924" data-name="Trazado 888924" d="M119.241,191.989q-10.782.508-21.741.34V191.31q3.058-10.111,13.588-8.662A11.215,11.215,0,0,1,119.241,191.989Z" transform="translate(-97.5 -182.466)" fill="#f1bc26" fill-rule="evenodd"/>
    </g>
    <g id="Grupo_1108001" data-name="Grupo 1108001" transform="translate(914.762 3030.541)">
      <path id="Trazado_888925" data-name="Trazado 888925" d="M200.241,191.332v1.019H178.5q1.551-9.194,10.87-9.851Q198.015,182.994,200.241,191.332Z" transform="translate(-178.5 -182.5)" fill="#df4b3b" fill-rule="evenodd"/>
    </g>
    <g id="Grupo_1108002" data-name="Grupo 1108002" transform="translate(858.001 3039.373)">
      <path id="Trazado_888926" data-name="Trazado 888926" d="M11.781,208.5v1.019H33.521V208.5a1.566,1.566,0,0,1,.34,1.359H11.441A1.566,1.566,0,0,1,11.781,208.5Z" transform="translate(-11.411 -208.5)" fill="#23562c" fill-rule="evenodd"/>
    </g>
    <g id="Grupo_1108003" data-name="Grupo 1108003" transform="translate(886.876 3039.373)">
      <path id="Trazado_888927" data-name="Trazado 888927" d="M96.781,208.5v1.019q10.959.169,21.741-.34a.374.374,0,0,1,.34.34q-11.205.51-22.42.34A1.566,1.566,0,0,1,96.781,208.5Z" transform="translate(-96.411 -208.5)" fill="#503e0d" fill-rule="evenodd"/>
    </g>
    <g id="Grupo_1108004" data-name="Grupo 1108004" transform="translate(914.762 3039.373)">
      <path id="Trazado_888928" data-name="Trazado 888928" d="M200.241,208.5a1.567,1.567,0,0,1,.34,1.359q-11.129.169-22.081-.34h21.741Z" transform="translate(-178.5 -208.5)" fill="#76281f" fill-rule="evenodd"/>
    </g>
  </g>
</svg>
